G04 EAGLE Gerber RS-274X export*
G75*
%MOMM*%
%FSLAX34Y34*%
%LPD*%
%INSilkscreen Top*%
%IPPOS*%
%AMOC8*
5,1,8,0,0,1.08239X$1,22.5*%
G01*
%ADD10C,0.203200*%
%ADD11C,0.254000*%
%ADD12C,0.508000*%
%ADD13C,0.254000*%

G36*
X250620Y1021226D02*
X250620Y1021226D01*
X250728Y1021236D01*
X250741Y1021242D01*
X250755Y1021244D01*
X250852Y1021292D01*
X250951Y1021337D01*
X250964Y1021348D01*
X250973Y1021352D01*
X250988Y1021368D01*
X251065Y1021430D01*
X253650Y1024015D01*
X253713Y1024104D01*
X253779Y1024189D01*
X253784Y1024202D01*
X253792Y1024214D01*
X253823Y1024317D01*
X253859Y1024420D01*
X253859Y1024434D01*
X253863Y1024447D01*
X253859Y1024555D01*
X253860Y1024664D01*
X253855Y1024677D01*
X253855Y1024691D01*
X253817Y1024793D01*
X253782Y1024895D01*
X253773Y1024910D01*
X253769Y1024919D01*
X253755Y1024936D01*
X253701Y1025018D01*
X250937Y1028408D01*
X251494Y1029490D01*
X251500Y1029510D01*
X251542Y1029605D01*
X251913Y1030764D01*
X256264Y1031207D01*
X256368Y1031235D01*
X256474Y1031260D01*
X256486Y1031267D01*
X256499Y1031270D01*
X256589Y1031331D01*
X256682Y1031388D01*
X256690Y1031399D01*
X256702Y1031407D01*
X256768Y1031493D01*
X256837Y1031577D01*
X256841Y1031590D01*
X256850Y1031601D01*
X256884Y1031704D01*
X256923Y1031805D01*
X256924Y1031823D01*
X256928Y1031832D01*
X256928Y1031854D01*
X256937Y1031952D01*
X256937Y1035608D01*
X256920Y1035715D01*
X256906Y1035823D01*
X256900Y1035835D01*
X256898Y1035849D01*
X256846Y1035945D01*
X256799Y1036042D01*
X256789Y1036052D01*
X256783Y1036064D01*
X256703Y1036138D01*
X256627Y1036215D01*
X256615Y1036221D01*
X256605Y1036231D01*
X256506Y1036276D01*
X256409Y1036324D01*
X256391Y1036328D01*
X256382Y1036332D01*
X256361Y1036334D01*
X256264Y1036353D01*
X251913Y1036796D01*
X251542Y1037955D01*
X251533Y1037972D01*
X251531Y1037980D01*
X251527Y1037987D01*
X251494Y1038070D01*
X250937Y1039152D01*
X253701Y1042542D01*
X253755Y1042636D01*
X253812Y1042728D01*
X253815Y1042741D01*
X253822Y1042753D01*
X253843Y1042860D01*
X253868Y1042965D01*
X253866Y1042979D01*
X253869Y1042993D01*
X253854Y1043100D01*
X253844Y1043208D01*
X253838Y1043221D01*
X253836Y1043235D01*
X253788Y1043332D01*
X253743Y1043431D01*
X253732Y1043444D01*
X253728Y1043453D01*
X253712Y1043468D01*
X253650Y1043545D01*
X251065Y1046130D01*
X250976Y1046193D01*
X250891Y1046259D01*
X250878Y1046264D01*
X250866Y1046272D01*
X250763Y1046303D01*
X250660Y1046339D01*
X250646Y1046339D01*
X250633Y1046343D01*
X250525Y1046339D01*
X250416Y1046340D01*
X250403Y1046335D01*
X250389Y1046335D01*
X250287Y1046297D01*
X250185Y1046262D01*
X250170Y1046253D01*
X250161Y1046249D01*
X250144Y1046235D01*
X250062Y1046181D01*
X246672Y1043417D01*
X245590Y1043974D01*
X245570Y1043980D01*
X245475Y1044022D01*
X244316Y1044393D01*
X243873Y1048744D01*
X243845Y1048848D01*
X243820Y1048954D01*
X243813Y1048966D01*
X243810Y1048979D01*
X243749Y1049069D01*
X243692Y1049162D01*
X243681Y1049170D01*
X243673Y1049182D01*
X243587Y1049248D01*
X243503Y1049317D01*
X243490Y1049321D01*
X243479Y1049330D01*
X243376Y1049364D01*
X243275Y1049403D01*
X243257Y1049404D01*
X243248Y1049408D01*
X243226Y1049408D01*
X243128Y1049417D01*
X239472Y1049417D01*
X239365Y1049400D01*
X239257Y1049386D01*
X239245Y1049380D01*
X239231Y1049378D01*
X239135Y1049326D01*
X239038Y1049279D01*
X239028Y1049269D01*
X239016Y1049263D01*
X238942Y1049183D01*
X238865Y1049107D01*
X238859Y1049095D01*
X238849Y1049085D01*
X238804Y1048986D01*
X238756Y1048889D01*
X238752Y1048871D01*
X238748Y1048862D01*
X238746Y1048841D01*
X238727Y1048744D01*
X238284Y1044393D01*
X237125Y1044022D01*
X237107Y1044012D01*
X237010Y1043974D01*
X235928Y1043417D01*
X232538Y1046181D01*
X232444Y1046235D01*
X232352Y1046292D01*
X232339Y1046295D01*
X232327Y1046302D01*
X232220Y1046323D01*
X232115Y1046348D01*
X232101Y1046346D01*
X232087Y1046349D01*
X231980Y1046334D01*
X231872Y1046324D01*
X231859Y1046318D01*
X231846Y1046316D01*
X231748Y1046268D01*
X231649Y1046223D01*
X231636Y1046212D01*
X231627Y1046208D01*
X231612Y1046192D01*
X231535Y1046130D01*
X228950Y1043545D01*
X228887Y1043456D01*
X228821Y1043371D01*
X228816Y1043358D01*
X228808Y1043346D01*
X228777Y1043243D01*
X228741Y1043140D01*
X228741Y1043126D01*
X228737Y1043113D01*
X228741Y1043005D01*
X228740Y1042896D01*
X228745Y1042883D01*
X228745Y1042869D01*
X228783Y1042767D01*
X228818Y1042665D01*
X228827Y1042650D01*
X228831Y1042641D01*
X228845Y1042624D01*
X228899Y1042542D01*
X231663Y1039152D01*
X231106Y1038070D01*
X231100Y1038050D01*
X231058Y1037955D01*
X230687Y1036796D01*
X226336Y1036353D01*
X226232Y1036325D01*
X226126Y1036300D01*
X226114Y1036293D01*
X226101Y1036290D01*
X226011Y1036229D01*
X225918Y1036172D01*
X225910Y1036161D01*
X225898Y1036153D01*
X225832Y1036067D01*
X225764Y1035983D01*
X225759Y1035970D01*
X225750Y1035959D01*
X225716Y1035856D01*
X225677Y1035755D01*
X225676Y1035737D01*
X225672Y1035728D01*
X225673Y1035706D01*
X225663Y1035608D01*
X225663Y1031952D01*
X225680Y1031845D01*
X225694Y1031737D01*
X225700Y1031725D01*
X225702Y1031711D01*
X225754Y1031615D01*
X225801Y1031518D01*
X225811Y1031508D01*
X225817Y1031496D01*
X225897Y1031422D01*
X225973Y1031345D01*
X225985Y1031339D01*
X225996Y1031329D01*
X226094Y1031284D01*
X226191Y1031236D01*
X226209Y1031232D01*
X226218Y1031228D01*
X226239Y1031226D01*
X226336Y1031207D01*
X230687Y1030764D01*
X231058Y1029605D01*
X231068Y1029587D01*
X231106Y1029490D01*
X231663Y1028408D01*
X228899Y1025018D01*
X228845Y1024924D01*
X228788Y1024832D01*
X228785Y1024819D01*
X228778Y1024807D01*
X228757Y1024700D01*
X228732Y1024595D01*
X228734Y1024581D01*
X228731Y1024567D01*
X228746Y1024460D01*
X228756Y1024352D01*
X228762Y1024339D01*
X228764Y1024326D01*
X228812Y1024228D01*
X228857Y1024129D01*
X228868Y1024116D01*
X228872Y1024107D01*
X228888Y1024092D01*
X228950Y1024015D01*
X231535Y1021430D01*
X231624Y1021367D01*
X231709Y1021301D01*
X231722Y1021296D01*
X231734Y1021288D01*
X231837Y1021257D01*
X231940Y1021221D01*
X231954Y1021221D01*
X231967Y1021217D01*
X232075Y1021221D01*
X232184Y1021220D01*
X232197Y1021225D01*
X232211Y1021225D01*
X232313Y1021263D01*
X232415Y1021298D01*
X232430Y1021307D01*
X232439Y1021311D01*
X232456Y1021325D01*
X232538Y1021379D01*
X235928Y1024143D01*
X237010Y1023586D01*
X237063Y1023569D01*
X237112Y1023543D01*
X237178Y1023532D01*
X237242Y1023511D01*
X237298Y1023512D01*
X237352Y1023503D01*
X237419Y1023514D01*
X237486Y1023515D01*
X237538Y1023533D01*
X237593Y1023542D01*
X237653Y1023574D01*
X237716Y1023597D01*
X237759Y1023631D01*
X237809Y1023657D01*
X237855Y1023706D01*
X237907Y1023748D01*
X237938Y1023795D01*
X237976Y1023835D01*
X238032Y1023940D01*
X238040Y1023953D01*
X238041Y1023958D01*
X238045Y1023965D01*
X240198Y1029162D01*
X240218Y1029246D01*
X240223Y1029258D01*
X240225Y1029274D01*
X240250Y1029360D01*
X240249Y1029380D01*
X240254Y1029400D01*
X240246Y1029482D01*
X240247Y1029501D01*
X240243Y1029521D01*
X240239Y1029604D01*
X240232Y1029623D01*
X240230Y1029643D01*
X240198Y1029712D01*
X240192Y1029739D01*
X240177Y1029763D01*
X240150Y1029832D01*
X240137Y1029847D01*
X240129Y1029865D01*
X240084Y1029914D01*
X240064Y1029946D01*
X240032Y1029972D01*
X239993Y1030018D01*
X239972Y1030033D01*
X239962Y1030043D01*
X239941Y1030055D01*
X239878Y1030099D01*
X239875Y1030101D01*
X239874Y1030101D01*
X239872Y1030103D01*
X238988Y1030598D01*
X238309Y1031225D01*
X237795Y1031994D01*
X237475Y1032862D01*
X237367Y1033779D01*
X237480Y1034714D01*
X237811Y1035595D01*
X238343Y1036372D01*
X239044Y1037001D01*
X239874Y1037444D01*
X240786Y1037678D01*
X241728Y1037688D01*
X242644Y1037474D01*
X243484Y1037049D01*
X244198Y1036436D01*
X244747Y1035671D01*
X245098Y1034797D01*
X245231Y1033865D01*
X245139Y1032928D01*
X244827Y1032040D01*
X244312Y1031252D01*
X243625Y1030608D01*
X242726Y1030102D01*
X242686Y1030069D01*
X242644Y1030047D01*
X242613Y1030014D01*
X242565Y1029979D01*
X242552Y1029962D01*
X242536Y1029949D01*
X242501Y1029895D01*
X242477Y1029869D01*
X242464Y1029838D01*
X242422Y1029781D01*
X242416Y1029761D01*
X242405Y1029743D01*
X242387Y1029670D01*
X242377Y1029647D01*
X242374Y1029623D01*
X242351Y1029548D01*
X242352Y1029527D01*
X242347Y1029506D01*
X242354Y1029422D01*
X242353Y1029404D01*
X242356Y1029388D01*
X242359Y1029304D01*
X242367Y1029278D01*
X242368Y1029263D01*
X242378Y1029241D01*
X242402Y1029162D01*
X242710Y1028417D01*
X242711Y1028417D01*
X243021Y1027668D01*
X243331Y1026919D01*
X243331Y1026918D01*
X243642Y1026170D01*
X243642Y1026169D01*
X243952Y1025420D01*
X244262Y1024671D01*
X244263Y1024671D01*
X244555Y1023965D01*
X244584Y1023918D01*
X244605Y1023866D01*
X244648Y1023815D01*
X244684Y1023758D01*
X244727Y1023723D01*
X244763Y1023680D01*
X244820Y1023646D01*
X244872Y1023603D01*
X244924Y1023584D01*
X244972Y1023555D01*
X245038Y1023541D01*
X245101Y1023517D01*
X245156Y1023515D01*
X245210Y1023504D01*
X245277Y1023511D01*
X245344Y1023509D01*
X245398Y1023525D01*
X245453Y1023532D01*
X245564Y1023576D01*
X245578Y1023580D01*
X245582Y1023583D01*
X245590Y1023586D01*
X246672Y1024143D01*
X250062Y1021379D01*
X250156Y1021325D01*
X250248Y1021268D01*
X250261Y1021265D01*
X250273Y1021258D01*
X250380Y1021237D01*
X250485Y1021212D01*
X250499Y1021214D01*
X250513Y1021211D01*
X250620Y1021226D01*
G37*
G36*
X535100Y1021226D02*
X535100Y1021226D01*
X535208Y1021236D01*
X535221Y1021242D01*
X535235Y1021244D01*
X535332Y1021292D01*
X535431Y1021337D01*
X535444Y1021348D01*
X535453Y1021352D01*
X535468Y1021368D01*
X535545Y1021430D01*
X538130Y1024015D01*
X538193Y1024104D01*
X538259Y1024189D01*
X538264Y1024202D01*
X538272Y1024214D01*
X538303Y1024317D01*
X538339Y1024420D01*
X538339Y1024434D01*
X538343Y1024447D01*
X538339Y1024555D01*
X538340Y1024664D01*
X538335Y1024677D01*
X538335Y1024691D01*
X538297Y1024793D01*
X538262Y1024895D01*
X538253Y1024910D01*
X538249Y1024919D01*
X538235Y1024936D01*
X538181Y1025018D01*
X535417Y1028408D01*
X535974Y1029490D01*
X535980Y1029510D01*
X536022Y1029605D01*
X536393Y1030764D01*
X540744Y1031207D01*
X540848Y1031235D01*
X540954Y1031260D01*
X540966Y1031267D01*
X540979Y1031270D01*
X541069Y1031331D01*
X541162Y1031388D01*
X541170Y1031399D01*
X541182Y1031407D01*
X541248Y1031493D01*
X541317Y1031577D01*
X541321Y1031590D01*
X541330Y1031601D01*
X541364Y1031704D01*
X541403Y1031805D01*
X541404Y1031823D01*
X541408Y1031832D01*
X541408Y1031854D01*
X541417Y1031952D01*
X541417Y1035608D01*
X541400Y1035715D01*
X541386Y1035823D01*
X541380Y1035835D01*
X541378Y1035849D01*
X541326Y1035945D01*
X541279Y1036042D01*
X541269Y1036052D01*
X541263Y1036064D01*
X541183Y1036138D01*
X541107Y1036215D01*
X541095Y1036221D01*
X541085Y1036231D01*
X540986Y1036276D01*
X540889Y1036324D01*
X540871Y1036328D01*
X540862Y1036332D01*
X540841Y1036334D01*
X540744Y1036353D01*
X536393Y1036796D01*
X536022Y1037955D01*
X536013Y1037972D01*
X536011Y1037980D01*
X536007Y1037987D01*
X535974Y1038070D01*
X535417Y1039152D01*
X538181Y1042542D01*
X538235Y1042636D01*
X538292Y1042728D01*
X538295Y1042741D01*
X538302Y1042753D01*
X538323Y1042860D01*
X538348Y1042965D01*
X538346Y1042979D01*
X538349Y1042993D01*
X538334Y1043100D01*
X538324Y1043208D01*
X538318Y1043221D01*
X538316Y1043235D01*
X538268Y1043332D01*
X538223Y1043431D01*
X538212Y1043444D01*
X538208Y1043453D01*
X538192Y1043468D01*
X538130Y1043545D01*
X535545Y1046130D01*
X535456Y1046193D01*
X535371Y1046259D01*
X535358Y1046264D01*
X535346Y1046272D01*
X535243Y1046303D01*
X535140Y1046339D01*
X535126Y1046339D01*
X535113Y1046343D01*
X535005Y1046339D01*
X534896Y1046340D01*
X534883Y1046335D01*
X534869Y1046335D01*
X534767Y1046297D01*
X534665Y1046262D01*
X534650Y1046253D01*
X534641Y1046249D01*
X534624Y1046235D01*
X534542Y1046181D01*
X531152Y1043417D01*
X530070Y1043974D01*
X530050Y1043980D01*
X529955Y1044022D01*
X528796Y1044393D01*
X528353Y1048744D01*
X528325Y1048848D01*
X528300Y1048954D01*
X528293Y1048966D01*
X528290Y1048979D01*
X528229Y1049069D01*
X528172Y1049162D01*
X528161Y1049170D01*
X528153Y1049182D01*
X528067Y1049248D01*
X527983Y1049317D01*
X527970Y1049321D01*
X527959Y1049330D01*
X527856Y1049364D01*
X527755Y1049403D01*
X527737Y1049404D01*
X527728Y1049408D01*
X527706Y1049408D01*
X527608Y1049417D01*
X523952Y1049417D01*
X523845Y1049400D01*
X523737Y1049386D01*
X523725Y1049380D01*
X523711Y1049378D01*
X523615Y1049326D01*
X523518Y1049279D01*
X523508Y1049269D01*
X523496Y1049263D01*
X523422Y1049183D01*
X523345Y1049107D01*
X523339Y1049095D01*
X523329Y1049085D01*
X523284Y1048986D01*
X523236Y1048889D01*
X523232Y1048871D01*
X523228Y1048862D01*
X523226Y1048841D01*
X523207Y1048744D01*
X522764Y1044393D01*
X521605Y1044022D01*
X521587Y1044012D01*
X521490Y1043974D01*
X520408Y1043417D01*
X517018Y1046181D01*
X516924Y1046235D01*
X516832Y1046292D01*
X516819Y1046295D01*
X516807Y1046302D01*
X516700Y1046323D01*
X516595Y1046348D01*
X516581Y1046346D01*
X516567Y1046349D01*
X516460Y1046334D01*
X516352Y1046324D01*
X516339Y1046318D01*
X516326Y1046316D01*
X516228Y1046268D01*
X516129Y1046223D01*
X516116Y1046212D01*
X516107Y1046208D01*
X516092Y1046192D01*
X516015Y1046130D01*
X513430Y1043545D01*
X513367Y1043456D01*
X513301Y1043371D01*
X513296Y1043358D01*
X513288Y1043346D01*
X513257Y1043243D01*
X513221Y1043140D01*
X513221Y1043126D01*
X513217Y1043113D01*
X513221Y1043005D01*
X513220Y1042896D01*
X513225Y1042883D01*
X513225Y1042869D01*
X513263Y1042767D01*
X513298Y1042665D01*
X513307Y1042650D01*
X513311Y1042641D01*
X513325Y1042624D01*
X513379Y1042542D01*
X516143Y1039152D01*
X515586Y1038070D01*
X515580Y1038050D01*
X515538Y1037955D01*
X515167Y1036796D01*
X510816Y1036353D01*
X510712Y1036325D01*
X510606Y1036300D01*
X510594Y1036293D01*
X510581Y1036290D01*
X510491Y1036229D01*
X510398Y1036172D01*
X510390Y1036161D01*
X510378Y1036153D01*
X510312Y1036067D01*
X510244Y1035983D01*
X510239Y1035970D01*
X510230Y1035959D01*
X510196Y1035856D01*
X510157Y1035755D01*
X510156Y1035737D01*
X510152Y1035728D01*
X510153Y1035706D01*
X510143Y1035608D01*
X510143Y1031952D01*
X510160Y1031845D01*
X510174Y1031737D01*
X510180Y1031725D01*
X510182Y1031711D01*
X510234Y1031615D01*
X510281Y1031518D01*
X510291Y1031508D01*
X510297Y1031496D01*
X510377Y1031422D01*
X510453Y1031345D01*
X510465Y1031339D01*
X510476Y1031329D01*
X510574Y1031284D01*
X510671Y1031236D01*
X510689Y1031232D01*
X510698Y1031228D01*
X510719Y1031226D01*
X510816Y1031207D01*
X515167Y1030764D01*
X515538Y1029605D01*
X515548Y1029587D01*
X515586Y1029490D01*
X516143Y1028408D01*
X513379Y1025018D01*
X513325Y1024924D01*
X513268Y1024832D01*
X513265Y1024819D01*
X513258Y1024807D01*
X513237Y1024700D01*
X513212Y1024595D01*
X513214Y1024581D01*
X513211Y1024567D01*
X513226Y1024460D01*
X513236Y1024352D01*
X513242Y1024339D01*
X513244Y1024326D01*
X513292Y1024228D01*
X513337Y1024129D01*
X513348Y1024116D01*
X513352Y1024107D01*
X513368Y1024092D01*
X513430Y1024015D01*
X516015Y1021430D01*
X516104Y1021367D01*
X516189Y1021301D01*
X516202Y1021296D01*
X516214Y1021288D01*
X516317Y1021257D01*
X516420Y1021221D01*
X516434Y1021221D01*
X516447Y1021217D01*
X516555Y1021221D01*
X516664Y1021220D01*
X516677Y1021225D01*
X516691Y1021225D01*
X516793Y1021263D01*
X516895Y1021298D01*
X516910Y1021307D01*
X516919Y1021311D01*
X516936Y1021325D01*
X517018Y1021379D01*
X520408Y1024143D01*
X521490Y1023586D01*
X521543Y1023569D01*
X521592Y1023543D01*
X521658Y1023532D01*
X521722Y1023511D01*
X521778Y1023512D01*
X521832Y1023503D01*
X521899Y1023514D01*
X521966Y1023515D01*
X522018Y1023533D01*
X522073Y1023542D01*
X522133Y1023574D01*
X522196Y1023597D01*
X522239Y1023631D01*
X522289Y1023657D01*
X522335Y1023706D01*
X522387Y1023748D01*
X522418Y1023795D01*
X522456Y1023835D01*
X522512Y1023940D01*
X522520Y1023953D01*
X522521Y1023958D01*
X522525Y1023965D01*
X524678Y1029162D01*
X524698Y1029246D01*
X524703Y1029258D01*
X524705Y1029274D01*
X524730Y1029360D01*
X524729Y1029380D01*
X524734Y1029400D01*
X524726Y1029482D01*
X524727Y1029501D01*
X524723Y1029521D01*
X524719Y1029604D01*
X524712Y1029623D01*
X524710Y1029643D01*
X524678Y1029712D01*
X524672Y1029739D01*
X524657Y1029763D01*
X524630Y1029832D01*
X524617Y1029847D01*
X524609Y1029865D01*
X524564Y1029914D01*
X524544Y1029946D01*
X524512Y1029972D01*
X524473Y1030018D01*
X524452Y1030033D01*
X524442Y1030043D01*
X524421Y1030055D01*
X524358Y1030099D01*
X524355Y1030101D01*
X524354Y1030101D01*
X524352Y1030103D01*
X523468Y1030598D01*
X522789Y1031225D01*
X522275Y1031994D01*
X521955Y1032862D01*
X521847Y1033779D01*
X521960Y1034714D01*
X522291Y1035595D01*
X522823Y1036372D01*
X523524Y1037001D01*
X524354Y1037444D01*
X525266Y1037678D01*
X526208Y1037688D01*
X527124Y1037474D01*
X527964Y1037049D01*
X528678Y1036436D01*
X529227Y1035671D01*
X529578Y1034797D01*
X529711Y1033865D01*
X529619Y1032928D01*
X529307Y1032040D01*
X528792Y1031252D01*
X528105Y1030608D01*
X527206Y1030102D01*
X527166Y1030069D01*
X527124Y1030047D01*
X527093Y1030014D01*
X527045Y1029979D01*
X527032Y1029962D01*
X527016Y1029949D01*
X526981Y1029895D01*
X526957Y1029869D01*
X526944Y1029838D01*
X526902Y1029781D01*
X526896Y1029761D01*
X526885Y1029743D01*
X526867Y1029670D01*
X526857Y1029647D01*
X526854Y1029623D01*
X526831Y1029548D01*
X526832Y1029527D01*
X526827Y1029506D01*
X526834Y1029422D01*
X526833Y1029404D01*
X526836Y1029388D01*
X526839Y1029304D01*
X526847Y1029278D01*
X526848Y1029263D01*
X526858Y1029241D01*
X526882Y1029162D01*
X527190Y1028417D01*
X527191Y1028417D01*
X527501Y1027668D01*
X527811Y1026919D01*
X527811Y1026918D01*
X528122Y1026170D01*
X528122Y1026169D01*
X528432Y1025420D01*
X528742Y1024671D01*
X528743Y1024671D01*
X529035Y1023965D01*
X529064Y1023918D01*
X529085Y1023866D01*
X529128Y1023815D01*
X529164Y1023758D01*
X529207Y1023723D01*
X529243Y1023680D01*
X529300Y1023646D01*
X529352Y1023603D01*
X529404Y1023584D01*
X529452Y1023555D01*
X529518Y1023541D01*
X529581Y1023517D01*
X529636Y1023515D01*
X529690Y1023504D01*
X529757Y1023511D01*
X529824Y1023509D01*
X529878Y1023525D01*
X529933Y1023532D01*
X530044Y1023576D01*
X530058Y1023580D01*
X530062Y1023583D01*
X530070Y1023586D01*
X531152Y1024143D01*
X534542Y1021379D01*
X534636Y1021325D01*
X534728Y1021268D01*
X534741Y1021265D01*
X534753Y1021258D01*
X534860Y1021237D01*
X534965Y1021212D01*
X534979Y1021214D01*
X534993Y1021211D01*
X535100Y1021226D01*
G37*
G36*
X819580Y1021226D02*
X819580Y1021226D01*
X819688Y1021236D01*
X819701Y1021242D01*
X819715Y1021244D01*
X819812Y1021292D01*
X819911Y1021337D01*
X819924Y1021348D01*
X819933Y1021352D01*
X819948Y1021368D01*
X820025Y1021430D01*
X822610Y1024015D01*
X822673Y1024104D01*
X822739Y1024189D01*
X822744Y1024202D01*
X822752Y1024214D01*
X822783Y1024317D01*
X822819Y1024420D01*
X822819Y1024434D01*
X822823Y1024447D01*
X822819Y1024555D01*
X822820Y1024664D01*
X822815Y1024677D01*
X822815Y1024691D01*
X822777Y1024793D01*
X822742Y1024895D01*
X822733Y1024910D01*
X822729Y1024919D01*
X822715Y1024936D01*
X822661Y1025018D01*
X819897Y1028408D01*
X820454Y1029490D01*
X820460Y1029510D01*
X820502Y1029605D01*
X820873Y1030764D01*
X825224Y1031207D01*
X825328Y1031235D01*
X825434Y1031260D01*
X825446Y1031267D01*
X825459Y1031270D01*
X825549Y1031331D01*
X825642Y1031388D01*
X825650Y1031399D01*
X825662Y1031407D01*
X825728Y1031493D01*
X825797Y1031577D01*
X825801Y1031590D01*
X825810Y1031601D01*
X825844Y1031704D01*
X825883Y1031805D01*
X825884Y1031823D01*
X825888Y1031832D01*
X825888Y1031854D01*
X825897Y1031952D01*
X825897Y1035608D01*
X825880Y1035715D01*
X825866Y1035823D01*
X825860Y1035835D01*
X825858Y1035849D01*
X825806Y1035945D01*
X825759Y1036042D01*
X825749Y1036052D01*
X825743Y1036064D01*
X825663Y1036138D01*
X825587Y1036215D01*
X825575Y1036221D01*
X825565Y1036231D01*
X825466Y1036276D01*
X825369Y1036324D01*
X825351Y1036328D01*
X825342Y1036332D01*
X825321Y1036334D01*
X825224Y1036353D01*
X820873Y1036796D01*
X820502Y1037955D01*
X820493Y1037972D01*
X820491Y1037980D01*
X820487Y1037987D01*
X820454Y1038070D01*
X819897Y1039152D01*
X822661Y1042542D01*
X822715Y1042636D01*
X822772Y1042728D01*
X822775Y1042741D01*
X822782Y1042753D01*
X822803Y1042860D01*
X822828Y1042965D01*
X822826Y1042979D01*
X822829Y1042993D01*
X822814Y1043100D01*
X822804Y1043208D01*
X822798Y1043221D01*
X822796Y1043235D01*
X822748Y1043332D01*
X822703Y1043431D01*
X822692Y1043444D01*
X822688Y1043453D01*
X822672Y1043468D01*
X822610Y1043545D01*
X820025Y1046130D01*
X819936Y1046193D01*
X819851Y1046259D01*
X819838Y1046264D01*
X819826Y1046272D01*
X819723Y1046303D01*
X819620Y1046339D01*
X819606Y1046339D01*
X819593Y1046343D01*
X819485Y1046339D01*
X819376Y1046340D01*
X819363Y1046335D01*
X819349Y1046335D01*
X819247Y1046297D01*
X819145Y1046262D01*
X819130Y1046253D01*
X819121Y1046249D01*
X819104Y1046235D01*
X819022Y1046181D01*
X815632Y1043417D01*
X814550Y1043974D01*
X814530Y1043980D01*
X814435Y1044022D01*
X813276Y1044393D01*
X812833Y1048744D01*
X812805Y1048848D01*
X812780Y1048954D01*
X812773Y1048966D01*
X812770Y1048979D01*
X812709Y1049069D01*
X812652Y1049162D01*
X812641Y1049170D01*
X812633Y1049182D01*
X812547Y1049248D01*
X812463Y1049317D01*
X812450Y1049321D01*
X812439Y1049330D01*
X812336Y1049364D01*
X812235Y1049403D01*
X812217Y1049404D01*
X812208Y1049408D01*
X812186Y1049408D01*
X812088Y1049417D01*
X808432Y1049417D01*
X808325Y1049400D01*
X808217Y1049386D01*
X808205Y1049380D01*
X808191Y1049378D01*
X808095Y1049326D01*
X807998Y1049279D01*
X807988Y1049269D01*
X807976Y1049263D01*
X807902Y1049183D01*
X807825Y1049107D01*
X807819Y1049095D01*
X807809Y1049085D01*
X807764Y1048986D01*
X807716Y1048889D01*
X807712Y1048871D01*
X807708Y1048862D01*
X807706Y1048841D01*
X807687Y1048744D01*
X807244Y1044393D01*
X806085Y1044022D01*
X806067Y1044012D01*
X805970Y1043974D01*
X804888Y1043417D01*
X801498Y1046181D01*
X801404Y1046235D01*
X801312Y1046292D01*
X801299Y1046295D01*
X801287Y1046302D01*
X801180Y1046323D01*
X801075Y1046348D01*
X801061Y1046346D01*
X801047Y1046349D01*
X800940Y1046334D01*
X800832Y1046324D01*
X800819Y1046318D01*
X800806Y1046316D01*
X800708Y1046268D01*
X800609Y1046223D01*
X800596Y1046212D01*
X800587Y1046208D01*
X800572Y1046192D01*
X800495Y1046130D01*
X797910Y1043545D01*
X797847Y1043456D01*
X797781Y1043371D01*
X797776Y1043358D01*
X797768Y1043346D01*
X797737Y1043243D01*
X797701Y1043140D01*
X797701Y1043126D01*
X797697Y1043113D01*
X797701Y1043005D01*
X797700Y1042896D01*
X797705Y1042883D01*
X797705Y1042869D01*
X797743Y1042767D01*
X797778Y1042665D01*
X797787Y1042650D01*
X797791Y1042641D01*
X797805Y1042624D01*
X797859Y1042542D01*
X800623Y1039152D01*
X800066Y1038070D01*
X800060Y1038050D01*
X800018Y1037955D01*
X799647Y1036796D01*
X795296Y1036353D01*
X795192Y1036325D01*
X795086Y1036300D01*
X795074Y1036293D01*
X795061Y1036290D01*
X794971Y1036229D01*
X794878Y1036172D01*
X794870Y1036161D01*
X794858Y1036153D01*
X794792Y1036067D01*
X794724Y1035983D01*
X794719Y1035970D01*
X794710Y1035959D01*
X794676Y1035856D01*
X794637Y1035755D01*
X794636Y1035737D01*
X794632Y1035728D01*
X794633Y1035706D01*
X794623Y1035608D01*
X794623Y1031952D01*
X794640Y1031845D01*
X794654Y1031737D01*
X794660Y1031725D01*
X794662Y1031711D01*
X794714Y1031615D01*
X794761Y1031518D01*
X794771Y1031508D01*
X794777Y1031496D01*
X794857Y1031422D01*
X794933Y1031345D01*
X794945Y1031339D01*
X794956Y1031329D01*
X795054Y1031284D01*
X795151Y1031236D01*
X795169Y1031232D01*
X795178Y1031228D01*
X795199Y1031226D01*
X795296Y1031207D01*
X799647Y1030764D01*
X800018Y1029605D01*
X800028Y1029587D01*
X800066Y1029490D01*
X800623Y1028408D01*
X797859Y1025018D01*
X797805Y1024924D01*
X797748Y1024832D01*
X797745Y1024819D01*
X797738Y1024807D01*
X797717Y1024700D01*
X797692Y1024595D01*
X797694Y1024581D01*
X797691Y1024567D01*
X797706Y1024460D01*
X797716Y1024352D01*
X797722Y1024339D01*
X797724Y1024326D01*
X797772Y1024228D01*
X797817Y1024129D01*
X797828Y1024116D01*
X797832Y1024107D01*
X797848Y1024092D01*
X797910Y1024015D01*
X800495Y1021430D01*
X800584Y1021367D01*
X800669Y1021301D01*
X800682Y1021296D01*
X800694Y1021288D01*
X800797Y1021257D01*
X800900Y1021221D01*
X800914Y1021221D01*
X800927Y1021217D01*
X801035Y1021221D01*
X801144Y1021220D01*
X801157Y1021225D01*
X801171Y1021225D01*
X801273Y1021263D01*
X801375Y1021298D01*
X801390Y1021307D01*
X801399Y1021311D01*
X801416Y1021325D01*
X801498Y1021379D01*
X804888Y1024143D01*
X805970Y1023586D01*
X806023Y1023569D01*
X806072Y1023543D01*
X806138Y1023532D01*
X806202Y1023511D01*
X806258Y1023512D01*
X806312Y1023503D01*
X806379Y1023514D01*
X806446Y1023515D01*
X806498Y1023533D01*
X806553Y1023542D01*
X806613Y1023574D01*
X806676Y1023597D01*
X806719Y1023631D01*
X806769Y1023657D01*
X806815Y1023706D01*
X806867Y1023748D01*
X806898Y1023795D01*
X806936Y1023835D01*
X806992Y1023940D01*
X807000Y1023953D01*
X807001Y1023958D01*
X807005Y1023965D01*
X809158Y1029162D01*
X809178Y1029246D01*
X809183Y1029258D01*
X809185Y1029274D01*
X809210Y1029360D01*
X809209Y1029380D01*
X809214Y1029400D01*
X809206Y1029482D01*
X809207Y1029501D01*
X809203Y1029521D01*
X809199Y1029604D01*
X809192Y1029623D01*
X809190Y1029643D01*
X809158Y1029712D01*
X809152Y1029739D01*
X809137Y1029763D01*
X809110Y1029832D01*
X809097Y1029847D01*
X809089Y1029865D01*
X809044Y1029914D01*
X809024Y1029946D01*
X808992Y1029972D01*
X808953Y1030018D01*
X808932Y1030033D01*
X808922Y1030043D01*
X808901Y1030055D01*
X808838Y1030099D01*
X808835Y1030101D01*
X808834Y1030101D01*
X808832Y1030103D01*
X807948Y1030598D01*
X807269Y1031225D01*
X806755Y1031994D01*
X806435Y1032862D01*
X806327Y1033779D01*
X806440Y1034714D01*
X806771Y1035595D01*
X807303Y1036372D01*
X808004Y1037001D01*
X808834Y1037444D01*
X809746Y1037678D01*
X810688Y1037688D01*
X811604Y1037474D01*
X812444Y1037049D01*
X813158Y1036436D01*
X813707Y1035671D01*
X814058Y1034797D01*
X814191Y1033865D01*
X814099Y1032928D01*
X813787Y1032040D01*
X813272Y1031252D01*
X812585Y1030608D01*
X811686Y1030102D01*
X811646Y1030069D01*
X811604Y1030047D01*
X811573Y1030014D01*
X811525Y1029979D01*
X811512Y1029962D01*
X811496Y1029949D01*
X811461Y1029895D01*
X811437Y1029869D01*
X811424Y1029838D01*
X811382Y1029781D01*
X811376Y1029761D01*
X811365Y1029743D01*
X811347Y1029670D01*
X811337Y1029647D01*
X811334Y1029623D01*
X811311Y1029548D01*
X811312Y1029527D01*
X811307Y1029506D01*
X811314Y1029422D01*
X811313Y1029404D01*
X811316Y1029388D01*
X811319Y1029304D01*
X811327Y1029278D01*
X811328Y1029263D01*
X811338Y1029241D01*
X811362Y1029162D01*
X811670Y1028417D01*
X811671Y1028417D01*
X811981Y1027668D01*
X812291Y1026919D01*
X812291Y1026918D01*
X812602Y1026170D01*
X812602Y1026169D01*
X812912Y1025420D01*
X813222Y1024671D01*
X813223Y1024671D01*
X813515Y1023965D01*
X813544Y1023918D01*
X813565Y1023866D01*
X813608Y1023815D01*
X813644Y1023758D01*
X813687Y1023723D01*
X813723Y1023680D01*
X813780Y1023646D01*
X813832Y1023603D01*
X813884Y1023584D01*
X813932Y1023555D01*
X813998Y1023541D01*
X814061Y1023517D01*
X814116Y1023515D01*
X814170Y1023504D01*
X814237Y1023511D01*
X814304Y1023509D01*
X814358Y1023525D01*
X814413Y1023532D01*
X814524Y1023576D01*
X814538Y1023580D01*
X814542Y1023583D01*
X814550Y1023586D01*
X815632Y1024143D01*
X819022Y1021379D01*
X819116Y1021325D01*
X819208Y1021268D01*
X819221Y1021265D01*
X819233Y1021258D01*
X819340Y1021237D01*
X819445Y1021212D01*
X819459Y1021214D01*
X819473Y1021211D01*
X819580Y1021226D01*
G37*
G36*
X1104060Y1021226D02*
X1104060Y1021226D01*
X1104168Y1021236D01*
X1104181Y1021242D01*
X1104195Y1021244D01*
X1104292Y1021292D01*
X1104391Y1021337D01*
X1104404Y1021348D01*
X1104413Y1021352D01*
X1104428Y1021368D01*
X1104505Y1021430D01*
X1107090Y1024015D01*
X1107153Y1024104D01*
X1107219Y1024189D01*
X1107224Y1024202D01*
X1107232Y1024214D01*
X1107263Y1024317D01*
X1107299Y1024420D01*
X1107299Y1024434D01*
X1107303Y1024447D01*
X1107299Y1024555D01*
X1107300Y1024664D01*
X1107295Y1024677D01*
X1107295Y1024691D01*
X1107257Y1024793D01*
X1107222Y1024895D01*
X1107213Y1024910D01*
X1107209Y1024919D01*
X1107195Y1024936D01*
X1107141Y1025018D01*
X1104377Y1028408D01*
X1104934Y1029490D01*
X1104940Y1029510D01*
X1104982Y1029605D01*
X1105353Y1030764D01*
X1109704Y1031207D01*
X1109808Y1031235D01*
X1109914Y1031260D01*
X1109926Y1031267D01*
X1109939Y1031270D01*
X1110029Y1031331D01*
X1110122Y1031388D01*
X1110130Y1031399D01*
X1110142Y1031407D01*
X1110208Y1031493D01*
X1110277Y1031577D01*
X1110281Y1031590D01*
X1110290Y1031601D01*
X1110324Y1031704D01*
X1110363Y1031805D01*
X1110364Y1031823D01*
X1110368Y1031832D01*
X1110368Y1031854D01*
X1110377Y1031952D01*
X1110377Y1035608D01*
X1110360Y1035715D01*
X1110346Y1035823D01*
X1110340Y1035835D01*
X1110338Y1035849D01*
X1110286Y1035945D01*
X1110239Y1036042D01*
X1110229Y1036052D01*
X1110223Y1036064D01*
X1110143Y1036138D01*
X1110067Y1036215D01*
X1110055Y1036221D01*
X1110045Y1036231D01*
X1109946Y1036276D01*
X1109849Y1036324D01*
X1109831Y1036328D01*
X1109822Y1036332D01*
X1109801Y1036334D01*
X1109704Y1036353D01*
X1105353Y1036796D01*
X1104982Y1037955D01*
X1104973Y1037972D01*
X1104971Y1037980D01*
X1104967Y1037987D01*
X1104934Y1038070D01*
X1104377Y1039152D01*
X1107141Y1042542D01*
X1107195Y1042636D01*
X1107252Y1042728D01*
X1107255Y1042741D01*
X1107262Y1042753D01*
X1107283Y1042860D01*
X1107308Y1042965D01*
X1107306Y1042979D01*
X1107309Y1042993D01*
X1107294Y1043100D01*
X1107284Y1043208D01*
X1107278Y1043221D01*
X1107276Y1043235D01*
X1107228Y1043332D01*
X1107183Y1043431D01*
X1107172Y1043444D01*
X1107168Y1043453D01*
X1107152Y1043468D01*
X1107090Y1043545D01*
X1104505Y1046130D01*
X1104416Y1046193D01*
X1104331Y1046259D01*
X1104318Y1046264D01*
X1104306Y1046272D01*
X1104203Y1046303D01*
X1104100Y1046339D01*
X1104086Y1046339D01*
X1104073Y1046343D01*
X1103965Y1046339D01*
X1103856Y1046340D01*
X1103843Y1046335D01*
X1103829Y1046335D01*
X1103727Y1046297D01*
X1103625Y1046262D01*
X1103610Y1046253D01*
X1103601Y1046249D01*
X1103584Y1046235D01*
X1103502Y1046181D01*
X1100112Y1043417D01*
X1099030Y1043974D01*
X1099010Y1043980D01*
X1098915Y1044022D01*
X1097756Y1044393D01*
X1097313Y1048744D01*
X1097285Y1048848D01*
X1097260Y1048954D01*
X1097253Y1048966D01*
X1097250Y1048979D01*
X1097189Y1049069D01*
X1097132Y1049162D01*
X1097121Y1049170D01*
X1097113Y1049182D01*
X1097027Y1049248D01*
X1096943Y1049317D01*
X1096930Y1049321D01*
X1096919Y1049330D01*
X1096816Y1049364D01*
X1096715Y1049403D01*
X1096697Y1049404D01*
X1096688Y1049408D01*
X1096666Y1049408D01*
X1096568Y1049417D01*
X1092912Y1049417D01*
X1092805Y1049400D01*
X1092697Y1049386D01*
X1092685Y1049380D01*
X1092671Y1049378D01*
X1092575Y1049326D01*
X1092478Y1049279D01*
X1092468Y1049269D01*
X1092456Y1049263D01*
X1092382Y1049183D01*
X1092305Y1049107D01*
X1092299Y1049095D01*
X1092289Y1049085D01*
X1092244Y1048986D01*
X1092196Y1048889D01*
X1092192Y1048871D01*
X1092188Y1048862D01*
X1092186Y1048841D01*
X1092167Y1048744D01*
X1091724Y1044393D01*
X1090565Y1044022D01*
X1090547Y1044012D01*
X1090450Y1043974D01*
X1089368Y1043417D01*
X1085978Y1046181D01*
X1085884Y1046235D01*
X1085792Y1046292D01*
X1085779Y1046295D01*
X1085767Y1046302D01*
X1085660Y1046323D01*
X1085555Y1046348D01*
X1085541Y1046346D01*
X1085527Y1046349D01*
X1085420Y1046334D01*
X1085312Y1046324D01*
X1085299Y1046318D01*
X1085286Y1046316D01*
X1085188Y1046268D01*
X1085089Y1046223D01*
X1085076Y1046212D01*
X1085067Y1046208D01*
X1085052Y1046192D01*
X1084975Y1046130D01*
X1082390Y1043545D01*
X1082327Y1043456D01*
X1082261Y1043371D01*
X1082256Y1043358D01*
X1082248Y1043346D01*
X1082217Y1043243D01*
X1082181Y1043140D01*
X1082181Y1043126D01*
X1082177Y1043113D01*
X1082181Y1043005D01*
X1082180Y1042896D01*
X1082185Y1042883D01*
X1082185Y1042869D01*
X1082223Y1042767D01*
X1082258Y1042665D01*
X1082267Y1042650D01*
X1082271Y1042641D01*
X1082285Y1042624D01*
X1082339Y1042542D01*
X1085103Y1039152D01*
X1084546Y1038070D01*
X1084540Y1038050D01*
X1084498Y1037955D01*
X1084127Y1036796D01*
X1079776Y1036353D01*
X1079672Y1036325D01*
X1079566Y1036300D01*
X1079554Y1036293D01*
X1079541Y1036290D01*
X1079451Y1036229D01*
X1079358Y1036172D01*
X1079350Y1036161D01*
X1079338Y1036153D01*
X1079272Y1036067D01*
X1079204Y1035983D01*
X1079199Y1035970D01*
X1079190Y1035959D01*
X1079156Y1035856D01*
X1079117Y1035755D01*
X1079116Y1035737D01*
X1079112Y1035728D01*
X1079113Y1035706D01*
X1079103Y1035608D01*
X1079103Y1031952D01*
X1079120Y1031845D01*
X1079134Y1031737D01*
X1079140Y1031725D01*
X1079142Y1031711D01*
X1079194Y1031615D01*
X1079241Y1031518D01*
X1079251Y1031508D01*
X1079257Y1031496D01*
X1079337Y1031422D01*
X1079413Y1031345D01*
X1079425Y1031339D01*
X1079436Y1031329D01*
X1079534Y1031284D01*
X1079631Y1031236D01*
X1079649Y1031232D01*
X1079658Y1031228D01*
X1079679Y1031226D01*
X1079776Y1031207D01*
X1084127Y1030764D01*
X1084498Y1029605D01*
X1084508Y1029587D01*
X1084546Y1029490D01*
X1085103Y1028408D01*
X1082339Y1025018D01*
X1082285Y1024924D01*
X1082228Y1024832D01*
X1082225Y1024819D01*
X1082218Y1024807D01*
X1082197Y1024700D01*
X1082172Y1024595D01*
X1082174Y1024581D01*
X1082171Y1024567D01*
X1082186Y1024460D01*
X1082196Y1024352D01*
X1082202Y1024339D01*
X1082204Y1024326D01*
X1082252Y1024228D01*
X1082297Y1024129D01*
X1082308Y1024116D01*
X1082312Y1024107D01*
X1082328Y1024092D01*
X1082390Y1024015D01*
X1084975Y1021430D01*
X1085064Y1021367D01*
X1085149Y1021301D01*
X1085162Y1021296D01*
X1085174Y1021288D01*
X1085277Y1021257D01*
X1085380Y1021221D01*
X1085394Y1021221D01*
X1085407Y1021217D01*
X1085515Y1021221D01*
X1085624Y1021220D01*
X1085637Y1021225D01*
X1085651Y1021225D01*
X1085753Y1021263D01*
X1085855Y1021298D01*
X1085870Y1021307D01*
X1085879Y1021311D01*
X1085896Y1021325D01*
X1085978Y1021379D01*
X1089368Y1024143D01*
X1090450Y1023586D01*
X1090503Y1023569D01*
X1090552Y1023543D01*
X1090618Y1023532D01*
X1090682Y1023511D01*
X1090738Y1023512D01*
X1090792Y1023503D01*
X1090859Y1023514D01*
X1090926Y1023515D01*
X1090978Y1023533D01*
X1091033Y1023542D01*
X1091093Y1023574D01*
X1091156Y1023597D01*
X1091199Y1023631D01*
X1091249Y1023657D01*
X1091295Y1023706D01*
X1091347Y1023748D01*
X1091378Y1023795D01*
X1091416Y1023835D01*
X1091472Y1023940D01*
X1091480Y1023953D01*
X1091481Y1023958D01*
X1091485Y1023965D01*
X1093638Y1029162D01*
X1093658Y1029246D01*
X1093663Y1029258D01*
X1093665Y1029274D01*
X1093690Y1029360D01*
X1093689Y1029380D01*
X1093694Y1029400D01*
X1093686Y1029482D01*
X1093687Y1029501D01*
X1093683Y1029521D01*
X1093679Y1029604D01*
X1093672Y1029623D01*
X1093670Y1029643D01*
X1093638Y1029712D01*
X1093632Y1029739D01*
X1093617Y1029763D01*
X1093590Y1029832D01*
X1093577Y1029847D01*
X1093569Y1029865D01*
X1093524Y1029914D01*
X1093504Y1029946D01*
X1093472Y1029972D01*
X1093433Y1030018D01*
X1093412Y1030033D01*
X1093402Y1030043D01*
X1093381Y1030055D01*
X1093318Y1030099D01*
X1093315Y1030101D01*
X1093314Y1030101D01*
X1093312Y1030103D01*
X1092428Y1030598D01*
X1091749Y1031225D01*
X1091235Y1031994D01*
X1090915Y1032862D01*
X1090807Y1033779D01*
X1090920Y1034714D01*
X1091251Y1035595D01*
X1091783Y1036372D01*
X1092484Y1037001D01*
X1093314Y1037444D01*
X1094226Y1037678D01*
X1095168Y1037688D01*
X1096084Y1037474D01*
X1096924Y1037049D01*
X1097638Y1036436D01*
X1098187Y1035671D01*
X1098538Y1034797D01*
X1098671Y1033865D01*
X1098579Y1032928D01*
X1098267Y1032040D01*
X1097752Y1031252D01*
X1097065Y1030608D01*
X1096166Y1030102D01*
X1096126Y1030069D01*
X1096084Y1030047D01*
X1096053Y1030014D01*
X1096005Y1029979D01*
X1095992Y1029962D01*
X1095976Y1029949D01*
X1095941Y1029895D01*
X1095917Y1029869D01*
X1095904Y1029838D01*
X1095862Y1029781D01*
X1095856Y1029761D01*
X1095845Y1029743D01*
X1095827Y1029670D01*
X1095817Y1029647D01*
X1095814Y1029623D01*
X1095791Y1029548D01*
X1095792Y1029527D01*
X1095787Y1029506D01*
X1095794Y1029422D01*
X1095793Y1029404D01*
X1095796Y1029388D01*
X1095799Y1029304D01*
X1095807Y1029278D01*
X1095808Y1029263D01*
X1095818Y1029241D01*
X1095842Y1029162D01*
X1096150Y1028417D01*
X1096151Y1028417D01*
X1096461Y1027668D01*
X1096771Y1026919D01*
X1096771Y1026918D01*
X1097082Y1026170D01*
X1097082Y1026169D01*
X1097392Y1025420D01*
X1097702Y1024671D01*
X1097703Y1024671D01*
X1097995Y1023965D01*
X1098024Y1023918D01*
X1098045Y1023866D01*
X1098088Y1023815D01*
X1098124Y1023758D01*
X1098167Y1023723D01*
X1098203Y1023680D01*
X1098260Y1023646D01*
X1098312Y1023603D01*
X1098364Y1023584D01*
X1098412Y1023555D01*
X1098478Y1023541D01*
X1098541Y1023517D01*
X1098596Y1023515D01*
X1098650Y1023504D01*
X1098717Y1023511D01*
X1098784Y1023509D01*
X1098838Y1023525D01*
X1098893Y1023532D01*
X1099004Y1023576D01*
X1099018Y1023580D01*
X1099022Y1023583D01*
X1099030Y1023586D01*
X1100112Y1024143D01*
X1103502Y1021379D01*
X1103596Y1021325D01*
X1103688Y1021268D01*
X1103701Y1021265D01*
X1103713Y1021258D01*
X1103820Y1021237D01*
X1103925Y1021212D01*
X1103939Y1021214D01*
X1103953Y1021211D01*
X1104060Y1021226D01*
G37*
G36*
X819580Y431946D02*
X819580Y431946D01*
X819688Y431956D01*
X819701Y431962D01*
X819715Y431964D01*
X819812Y432012D01*
X819911Y432057D01*
X819924Y432068D01*
X819933Y432072D01*
X819948Y432088D01*
X820025Y432150D01*
X822610Y434735D01*
X822673Y434824D01*
X822739Y434909D01*
X822744Y434922D01*
X822752Y434934D01*
X822783Y435037D01*
X822819Y435140D01*
X822819Y435154D01*
X822823Y435167D01*
X822819Y435275D01*
X822820Y435384D01*
X822815Y435397D01*
X822815Y435411D01*
X822777Y435513D01*
X822742Y435615D01*
X822733Y435630D01*
X822729Y435639D01*
X822715Y435656D01*
X822661Y435738D01*
X819897Y439128D01*
X820454Y440210D01*
X820460Y440230D01*
X820502Y440325D01*
X820873Y441484D01*
X825224Y441927D01*
X825328Y441955D01*
X825434Y441980D01*
X825446Y441987D01*
X825459Y441990D01*
X825549Y442051D01*
X825642Y442108D01*
X825650Y442119D01*
X825662Y442127D01*
X825728Y442213D01*
X825797Y442297D01*
X825801Y442310D01*
X825810Y442321D01*
X825844Y442424D01*
X825883Y442525D01*
X825884Y442543D01*
X825888Y442552D01*
X825888Y442574D01*
X825897Y442672D01*
X825897Y446328D01*
X825880Y446435D01*
X825866Y446543D01*
X825860Y446555D01*
X825858Y446569D01*
X825806Y446665D01*
X825759Y446762D01*
X825749Y446772D01*
X825743Y446784D01*
X825663Y446858D01*
X825587Y446935D01*
X825575Y446941D01*
X825565Y446951D01*
X825466Y446996D01*
X825369Y447044D01*
X825351Y447048D01*
X825342Y447052D01*
X825321Y447054D01*
X825224Y447073D01*
X820873Y447516D01*
X820502Y448675D01*
X820493Y448692D01*
X820491Y448700D01*
X820487Y448707D01*
X820454Y448790D01*
X819897Y449872D01*
X822661Y453262D01*
X822715Y453356D01*
X822772Y453448D01*
X822775Y453461D01*
X822782Y453473D01*
X822803Y453580D01*
X822828Y453685D01*
X822826Y453699D01*
X822829Y453713D01*
X822814Y453820D01*
X822804Y453928D01*
X822798Y453941D01*
X822796Y453955D01*
X822748Y454052D01*
X822703Y454151D01*
X822692Y454164D01*
X822688Y454173D01*
X822672Y454188D01*
X822610Y454265D01*
X820025Y456850D01*
X819936Y456913D01*
X819851Y456979D01*
X819838Y456984D01*
X819826Y456992D01*
X819723Y457023D01*
X819620Y457059D01*
X819606Y457059D01*
X819593Y457063D01*
X819485Y457059D01*
X819376Y457060D01*
X819363Y457055D01*
X819349Y457055D01*
X819247Y457017D01*
X819145Y456982D01*
X819130Y456973D01*
X819121Y456969D01*
X819104Y456955D01*
X819022Y456901D01*
X815632Y454137D01*
X814550Y454694D01*
X814530Y454700D01*
X814435Y454742D01*
X813276Y455113D01*
X812833Y459464D01*
X812805Y459568D01*
X812780Y459674D01*
X812773Y459686D01*
X812770Y459699D01*
X812709Y459789D01*
X812652Y459882D01*
X812641Y459890D01*
X812633Y459902D01*
X812547Y459968D01*
X812463Y460037D01*
X812450Y460041D01*
X812439Y460050D01*
X812336Y460084D01*
X812235Y460123D01*
X812217Y460124D01*
X812208Y460128D01*
X812186Y460128D01*
X812088Y460137D01*
X808432Y460137D01*
X808325Y460120D01*
X808217Y460106D01*
X808205Y460100D01*
X808191Y460098D01*
X808095Y460046D01*
X807998Y459999D01*
X807988Y459989D01*
X807976Y459983D01*
X807902Y459903D01*
X807825Y459827D01*
X807819Y459815D01*
X807809Y459805D01*
X807764Y459706D01*
X807716Y459609D01*
X807712Y459591D01*
X807708Y459582D01*
X807706Y459561D01*
X807687Y459464D01*
X807244Y455113D01*
X806085Y454742D01*
X806067Y454732D01*
X805970Y454694D01*
X804888Y454137D01*
X801498Y456901D01*
X801404Y456955D01*
X801312Y457012D01*
X801299Y457015D01*
X801287Y457022D01*
X801180Y457043D01*
X801075Y457068D01*
X801061Y457066D01*
X801047Y457069D01*
X800940Y457054D01*
X800832Y457044D01*
X800819Y457038D01*
X800806Y457036D01*
X800708Y456988D01*
X800609Y456943D01*
X800596Y456932D01*
X800587Y456928D01*
X800572Y456912D01*
X800495Y456850D01*
X797910Y454265D01*
X797847Y454176D01*
X797781Y454091D01*
X797776Y454078D01*
X797768Y454066D01*
X797737Y453963D01*
X797701Y453860D01*
X797701Y453846D01*
X797697Y453833D01*
X797701Y453725D01*
X797700Y453616D01*
X797705Y453603D01*
X797705Y453589D01*
X797743Y453487D01*
X797778Y453385D01*
X797787Y453370D01*
X797791Y453361D01*
X797805Y453344D01*
X797859Y453262D01*
X800623Y449872D01*
X800066Y448790D01*
X800060Y448770D01*
X800018Y448675D01*
X799647Y447516D01*
X795296Y447073D01*
X795192Y447045D01*
X795086Y447020D01*
X795074Y447013D01*
X795061Y447010D01*
X794971Y446949D01*
X794878Y446892D01*
X794870Y446881D01*
X794858Y446873D01*
X794792Y446787D01*
X794724Y446703D01*
X794719Y446690D01*
X794710Y446679D01*
X794676Y446576D01*
X794637Y446475D01*
X794636Y446457D01*
X794632Y446448D01*
X794633Y446426D01*
X794623Y446328D01*
X794623Y442672D01*
X794640Y442565D01*
X794654Y442457D01*
X794660Y442445D01*
X794662Y442431D01*
X794714Y442335D01*
X794761Y442238D01*
X794771Y442228D01*
X794777Y442216D01*
X794857Y442142D01*
X794933Y442065D01*
X794945Y442059D01*
X794956Y442049D01*
X795054Y442004D01*
X795151Y441956D01*
X795169Y441952D01*
X795178Y441948D01*
X795199Y441946D01*
X795296Y441927D01*
X799647Y441484D01*
X800018Y440325D01*
X800028Y440307D01*
X800066Y440210D01*
X800623Y439128D01*
X797859Y435738D01*
X797805Y435644D01*
X797748Y435552D01*
X797745Y435539D01*
X797738Y435527D01*
X797717Y435420D01*
X797692Y435315D01*
X797694Y435301D01*
X797691Y435287D01*
X797706Y435180D01*
X797716Y435072D01*
X797722Y435059D01*
X797724Y435046D01*
X797772Y434948D01*
X797817Y434849D01*
X797828Y434836D01*
X797832Y434827D01*
X797848Y434812D01*
X797910Y434735D01*
X800495Y432150D01*
X800584Y432087D01*
X800669Y432021D01*
X800682Y432016D01*
X800694Y432008D01*
X800797Y431977D01*
X800900Y431941D01*
X800914Y431941D01*
X800927Y431937D01*
X801035Y431941D01*
X801144Y431940D01*
X801157Y431945D01*
X801171Y431945D01*
X801273Y431983D01*
X801375Y432018D01*
X801390Y432027D01*
X801399Y432031D01*
X801416Y432045D01*
X801498Y432099D01*
X804888Y434863D01*
X805970Y434306D01*
X806023Y434289D01*
X806072Y434263D01*
X806138Y434252D01*
X806202Y434231D01*
X806258Y434232D01*
X806312Y434223D01*
X806379Y434234D01*
X806446Y434235D01*
X806498Y434253D01*
X806553Y434262D01*
X806613Y434294D01*
X806676Y434317D01*
X806719Y434351D01*
X806769Y434377D01*
X806815Y434426D01*
X806867Y434468D01*
X806898Y434515D01*
X806936Y434555D01*
X806992Y434660D01*
X807000Y434673D01*
X807001Y434678D01*
X807005Y434685D01*
X809158Y439882D01*
X809178Y439966D01*
X809183Y439978D01*
X809185Y439994D01*
X809210Y440080D01*
X809209Y440100D01*
X809214Y440120D01*
X809206Y440202D01*
X809207Y440221D01*
X809203Y440241D01*
X809199Y440324D01*
X809192Y440343D01*
X809190Y440363D01*
X809158Y440432D01*
X809152Y440459D01*
X809137Y440483D01*
X809110Y440552D01*
X809097Y440567D01*
X809089Y440585D01*
X809044Y440634D01*
X809024Y440666D01*
X808992Y440692D01*
X808953Y440738D01*
X808932Y440753D01*
X808922Y440763D01*
X808901Y440775D01*
X808838Y440819D01*
X808835Y440821D01*
X808834Y440821D01*
X808832Y440823D01*
X807948Y441318D01*
X807269Y441945D01*
X806755Y442714D01*
X806435Y443582D01*
X806327Y444499D01*
X806440Y445434D01*
X806771Y446315D01*
X807303Y447092D01*
X808004Y447721D01*
X808834Y448164D01*
X809746Y448398D01*
X810688Y448408D01*
X811604Y448194D01*
X812444Y447769D01*
X813158Y447156D01*
X813707Y446391D01*
X814058Y445517D01*
X814191Y444585D01*
X814099Y443648D01*
X813787Y442760D01*
X813272Y441972D01*
X812585Y441328D01*
X811686Y440822D01*
X811646Y440789D01*
X811604Y440767D01*
X811573Y440734D01*
X811525Y440699D01*
X811512Y440682D01*
X811496Y440669D01*
X811461Y440615D01*
X811437Y440589D01*
X811424Y440558D01*
X811382Y440501D01*
X811376Y440481D01*
X811365Y440463D01*
X811347Y440390D01*
X811337Y440367D01*
X811334Y440343D01*
X811311Y440268D01*
X811312Y440247D01*
X811307Y440226D01*
X811314Y440142D01*
X811313Y440124D01*
X811316Y440108D01*
X811319Y440024D01*
X811327Y439998D01*
X811328Y439983D01*
X811338Y439961D01*
X811362Y439882D01*
X811670Y439137D01*
X811671Y439137D01*
X811981Y438388D01*
X812291Y437639D01*
X812291Y437638D01*
X812602Y436890D01*
X812602Y436889D01*
X812912Y436140D01*
X813222Y435391D01*
X813223Y435391D01*
X813515Y434685D01*
X813544Y434638D01*
X813565Y434586D01*
X813608Y434535D01*
X813644Y434478D01*
X813687Y434443D01*
X813723Y434400D01*
X813780Y434366D01*
X813832Y434323D01*
X813884Y434304D01*
X813932Y434275D01*
X813998Y434261D01*
X814061Y434237D01*
X814116Y434235D01*
X814170Y434224D01*
X814237Y434231D01*
X814304Y434229D01*
X814358Y434245D01*
X814413Y434252D01*
X814524Y434296D01*
X814538Y434300D01*
X814542Y434303D01*
X814550Y434306D01*
X815632Y434863D01*
X819022Y432099D01*
X819116Y432045D01*
X819208Y431988D01*
X819221Y431985D01*
X819233Y431978D01*
X819340Y431957D01*
X819445Y431932D01*
X819459Y431934D01*
X819473Y431931D01*
X819580Y431946D01*
G37*
G36*
X1104060Y431946D02*
X1104060Y431946D01*
X1104168Y431956D01*
X1104181Y431962D01*
X1104195Y431964D01*
X1104292Y432012D01*
X1104391Y432057D01*
X1104404Y432068D01*
X1104413Y432072D01*
X1104428Y432088D01*
X1104505Y432150D01*
X1107090Y434735D01*
X1107153Y434824D01*
X1107219Y434909D01*
X1107224Y434922D01*
X1107232Y434934D01*
X1107263Y435037D01*
X1107299Y435140D01*
X1107299Y435154D01*
X1107303Y435167D01*
X1107299Y435275D01*
X1107300Y435384D01*
X1107295Y435397D01*
X1107295Y435411D01*
X1107257Y435513D01*
X1107222Y435615D01*
X1107213Y435630D01*
X1107209Y435639D01*
X1107195Y435656D01*
X1107141Y435738D01*
X1104377Y439128D01*
X1104934Y440210D01*
X1104940Y440230D01*
X1104982Y440325D01*
X1105353Y441484D01*
X1109704Y441927D01*
X1109808Y441955D01*
X1109914Y441980D01*
X1109926Y441987D01*
X1109939Y441990D01*
X1110029Y442051D01*
X1110122Y442108D01*
X1110130Y442119D01*
X1110142Y442127D01*
X1110208Y442213D01*
X1110277Y442297D01*
X1110281Y442310D01*
X1110290Y442321D01*
X1110324Y442424D01*
X1110363Y442525D01*
X1110364Y442543D01*
X1110368Y442552D01*
X1110368Y442574D01*
X1110377Y442672D01*
X1110377Y446328D01*
X1110360Y446435D01*
X1110346Y446543D01*
X1110340Y446555D01*
X1110338Y446569D01*
X1110286Y446665D01*
X1110239Y446762D01*
X1110229Y446772D01*
X1110223Y446784D01*
X1110143Y446858D01*
X1110067Y446935D01*
X1110055Y446941D01*
X1110045Y446951D01*
X1109946Y446996D01*
X1109849Y447044D01*
X1109831Y447048D01*
X1109822Y447052D01*
X1109801Y447054D01*
X1109704Y447073D01*
X1105353Y447516D01*
X1104982Y448675D01*
X1104973Y448692D01*
X1104971Y448700D01*
X1104967Y448707D01*
X1104934Y448790D01*
X1104377Y449872D01*
X1107141Y453262D01*
X1107195Y453356D01*
X1107252Y453448D01*
X1107255Y453461D01*
X1107262Y453473D01*
X1107283Y453580D01*
X1107308Y453685D01*
X1107306Y453699D01*
X1107309Y453713D01*
X1107294Y453820D01*
X1107284Y453928D01*
X1107278Y453941D01*
X1107276Y453955D01*
X1107228Y454052D01*
X1107183Y454151D01*
X1107172Y454164D01*
X1107168Y454173D01*
X1107152Y454188D01*
X1107090Y454265D01*
X1104505Y456850D01*
X1104416Y456913D01*
X1104331Y456979D01*
X1104318Y456984D01*
X1104306Y456992D01*
X1104203Y457023D01*
X1104100Y457059D01*
X1104086Y457059D01*
X1104073Y457063D01*
X1103965Y457059D01*
X1103856Y457060D01*
X1103843Y457055D01*
X1103829Y457055D01*
X1103727Y457017D01*
X1103625Y456982D01*
X1103610Y456973D01*
X1103601Y456969D01*
X1103584Y456955D01*
X1103502Y456901D01*
X1100112Y454137D01*
X1099030Y454694D01*
X1099010Y454700D01*
X1098915Y454742D01*
X1097756Y455113D01*
X1097313Y459464D01*
X1097285Y459568D01*
X1097260Y459674D01*
X1097253Y459686D01*
X1097250Y459699D01*
X1097189Y459789D01*
X1097132Y459882D01*
X1097121Y459890D01*
X1097113Y459902D01*
X1097027Y459968D01*
X1096943Y460037D01*
X1096930Y460041D01*
X1096919Y460050D01*
X1096816Y460084D01*
X1096715Y460123D01*
X1096697Y460124D01*
X1096688Y460128D01*
X1096666Y460128D01*
X1096568Y460137D01*
X1092912Y460137D01*
X1092805Y460120D01*
X1092697Y460106D01*
X1092685Y460100D01*
X1092671Y460098D01*
X1092575Y460046D01*
X1092478Y459999D01*
X1092468Y459989D01*
X1092456Y459983D01*
X1092382Y459903D01*
X1092305Y459827D01*
X1092299Y459815D01*
X1092289Y459805D01*
X1092244Y459706D01*
X1092196Y459609D01*
X1092192Y459591D01*
X1092188Y459582D01*
X1092186Y459561D01*
X1092167Y459464D01*
X1091724Y455113D01*
X1090565Y454742D01*
X1090547Y454732D01*
X1090450Y454694D01*
X1089368Y454137D01*
X1085978Y456901D01*
X1085884Y456955D01*
X1085792Y457012D01*
X1085779Y457015D01*
X1085767Y457022D01*
X1085660Y457043D01*
X1085555Y457068D01*
X1085541Y457066D01*
X1085527Y457069D01*
X1085420Y457054D01*
X1085312Y457044D01*
X1085299Y457038D01*
X1085286Y457036D01*
X1085188Y456988D01*
X1085089Y456943D01*
X1085076Y456932D01*
X1085067Y456928D01*
X1085052Y456912D01*
X1084975Y456850D01*
X1082390Y454265D01*
X1082327Y454176D01*
X1082261Y454091D01*
X1082256Y454078D01*
X1082248Y454066D01*
X1082217Y453963D01*
X1082181Y453860D01*
X1082181Y453846D01*
X1082177Y453833D01*
X1082181Y453725D01*
X1082180Y453616D01*
X1082185Y453603D01*
X1082185Y453589D01*
X1082223Y453487D01*
X1082258Y453385D01*
X1082267Y453370D01*
X1082271Y453361D01*
X1082285Y453344D01*
X1082339Y453262D01*
X1085103Y449872D01*
X1084546Y448790D01*
X1084540Y448770D01*
X1084498Y448675D01*
X1084127Y447516D01*
X1079776Y447073D01*
X1079672Y447045D01*
X1079566Y447020D01*
X1079554Y447013D01*
X1079541Y447010D01*
X1079451Y446949D01*
X1079358Y446892D01*
X1079350Y446881D01*
X1079338Y446873D01*
X1079272Y446787D01*
X1079204Y446703D01*
X1079199Y446690D01*
X1079190Y446679D01*
X1079156Y446576D01*
X1079117Y446475D01*
X1079116Y446457D01*
X1079112Y446448D01*
X1079113Y446426D01*
X1079103Y446328D01*
X1079103Y442672D01*
X1079120Y442565D01*
X1079134Y442457D01*
X1079140Y442445D01*
X1079142Y442431D01*
X1079194Y442335D01*
X1079241Y442238D01*
X1079251Y442228D01*
X1079257Y442216D01*
X1079337Y442142D01*
X1079413Y442065D01*
X1079425Y442059D01*
X1079436Y442049D01*
X1079534Y442004D01*
X1079631Y441956D01*
X1079649Y441952D01*
X1079658Y441948D01*
X1079679Y441946D01*
X1079776Y441927D01*
X1084127Y441484D01*
X1084498Y440325D01*
X1084508Y440307D01*
X1084546Y440210D01*
X1085103Y439128D01*
X1082339Y435738D01*
X1082285Y435644D01*
X1082228Y435552D01*
X1082225Y435539D01*
X1082218Y435527D01*
X1082197Y435420D01*
X1082172Y435315D01*
X1082174Y435301D01*
X1082171Y435287D01*
X1082186Y435180D01*
X1082196Y435072D01*
X1082202Y435059D01*
X1082204Y435046D01*
X1082252Y434948D01*
X1082297Y434849D01*
X1082308Y434836D01*
X1082312Y434827D01*
X1082328Y434812D01*
X1082390Y434735D01*
X1084975Y432150D01*
X1085064Y432087D01*
X1085149Y432021D01*
X1085162Y432016D01*
X1085174Y432008D01*
X1085277Y431977D01*
X1085380Y431941D01*
X1085394Y431941D01*
X1085407Y431937D01*
X1085515Y431941D01*
X1085624Y431940D01*
X1085637Y431945D01*
X1085651Y431945D01*
X1085753Y431983D01*
X1085855Y432018D01*
X1085870Y432027D01*
X1085879Y432031D01*
X1085896Y432045D01*
X1085978Y432099D01*
X1089368Y434863D01*
X1090450Y434306D01*
X1090503Y434289D01*
X1090552Y434263D01*
X1090618Y434252D01*
X1090682Y434231D01*
X1090738Y434232D01*
X1090792Y434223D01*
X1090859Y434234D01*
X1090926Y434235D01*
X1090978Y434253D01*
X1091033Y434262D01*
X1091093Y434294D01*
X1091156Y434317D01*
X1091199Y434351D01*
X1091249Y434377D01*
X1091295Y434426D01*
X1091347Y434468D01*
X1091378Y434515D01*
X1091416Y434555D01*
X1091472Y434660D01*
X1091480Y434673D01*
X1091481Y434678D01*
X1091485Y434685D01*
X1093638Y439882D01*
X1093658Y439966D01*
X1093663Y439978D01*
X1093665Y439994D01*
X1093690Y440080D01*
X1093689Y440100D01*
X1093694Y440120D01*
X1093686Y440202D01*
X1093687Y440221D01*
X1093683Y440241D01*
X1093679Y440324D01*
X1093672Y440343D01*
X1093670Y440363D01*
X1093638Y440432D01*
X1093632Y440459D01*
X1093617Y440483D01*
X1093590Y440552D01*
X1093577Y440567D01*
X1093569Y440585D01*
X1093524Y440634D01*
X1093504Y440666D01*
X1093472Y440692D01*
X1093433Y440738D01*
X1093412Y440753D01*
X1093402Y440763D01*
X1093381Y440775D01*
X1093318Y440819D01*
X1093315Y440821D01*
X1093314Y440821D01*
X1093312Y440823D01*
X1092428Y441318D01*
X1091749Y441945D01*
X1091235Y442714D01*
X1090915Y443582D01*
X1090807Y444499D01*
X1090920Y445434D01*
X1091251Y446315D01*
X1091783Y447092D01*
X1092484Y447721D01*
X1093314Y448164D01*
X1094226Y448398D01*
X1095168Y448408D01*
X1096084Y448194D01*
X1096924Y447769D01*
X1097638Y447156D01*
X1098187Y446391D01*
X1098538Y445517D01*
X1098671Y444585D01*
X1098579Y443648D01*
X1098267Y442760D01*
X1097752Y441972D01*
X1097065Y441328D01*
X1096166Y440822D01*
X1096126Y440789D01*
X1096084Y440767D01*
X1096053Y440734D01*
X1096005Y440699D01*
X1095992Y440682D01*
X1095976Y440669D01*
X1095941Y440615D01*
X1095917Y440589D01*
X1095904Y440558D01*
X1095862Y440501D01*
X1095856Y440481D01*
X1095845Y440463D01*
X1095827Y440390D01*
X1095817Y440367D01*
X1095814Y440343D01*
X1095791Y440268D01*
X1095792Y440247D01*
X1095787Y440226D01*
X1095794Y440142D01*
X1095793Y440124D01*
X1095796Y440108D01*
X1095799Y440024D01*
X1095807Y439998D01*
X1095808Y439983D01*
X1095818Y439961D01*
X1095842Y439882D01*
X1096150Y439137D01*
X1096151Y439137D01*
X1096461Y438388D01*
X1096771Y437639D01*
X1096771Y437638D01*
X1097082Y436890D01*
X1097082Y436889D01*
X1097392Y436140D01*
X1097702Y435391D01*
X1097703Y435391D01*
X1097995Y434685D01*
X1098024Y434638D01*
X1098045Y434586D01*
X1098088Y434535D01*
X1098124Y434478D01*
X1098167Y434443D01*
X1098203Y434400D01*
X1098260Y434366D01*
X1098312Y434323D01*
X1098364Y434304D01*
X1098412Y434275D01*
X1098478Y434261D01*
X1098541Y434237D01*
X1098596Y434235D01*
X1098650Y434224D01*
X1098717Y434231D01*
X1098784Y434229D01*
X1098838Y434245D01*
X1098893Y434252D01*
X1099004Y434296D01*
X1099018Y434300D01*
X1099022Y434303D01*
X1099030Y434306D01*
X1100112Y434863D01*
X1103502Y432099D01*
X1103596Y432045D01*
X1103688Y431988D01*
X1103701Y431985D01*
X1103713Y431978D01*
X1103820Y431957D01*
X1103925Y431932D01*
X1103939Y431934D01*
X1103953Y431931D01*
X1104060Y431946D01*
G37*
G36*
X250620Y431946D02*
X250620Y431946D01*
X250728Y431956D01*
X250741Y431962D01*
X250755Y431964D01*
X250852Y432012D01*
X250951Y432057D01*
X250964Y432068D01*
X250973Y432072D01*
X250988Y432088D01*
X251065Y432150D01*
X253650Y434735D01*
X253713Y434824D01*
X253779Y434909D01*
X253784Y434922D01*
X253792Y434934D01*
X253823Y435037D01*
X253859Y435140D01*
X253859Y435154D01*
X253863Y435167D01*
X253859Y435275D01*
X253860Y435384D01*
X253855Y435397D01*
X253855Y435411D01*
X253817Y435513D01*
X253782Y435615D01*
X253773Y435630D01*
X253769Y435639D01*
X253755Y435656D01*
X253701Y435738D01*
X250937Y439128D01*
X251494Y440210D01*
X251500Y440230D01*
X251542Y440325D01*
X251913Y441484D01*
X256264Y441927D01*
X256368Y441955D01*
X256474Y441980D01*
X256486Y441987D01*
X256499Y441990D01*
X256589Y442051D01*
X256682Y442108D01*
X256690Y442119D01*
X256702Y442127D01*
X256768Y442213D01*
X256837Y442297D01*
X256841Y442310D01*
X256850Y442321D01*
X256884Y442424D01*
X256923Y442525D01*
X256924Y442543D01*
X256928Y442552D01*
X256928Y442574D01*
X256937Y442672D01*
X256937Y446328D01*
X256920Y446435D01*
X256906Y446543D01*
X256900Y446555D01*
X256898Y446569D01*
X256846Y446665D01*
X256799Y446762D01*
X256789Y446772D01*
X256783Y446784D01*
X256703Y446858D01*
X256627Y446935D01*
X256615Y446941D01*
X256605Y446951D01*
X256506Y446996D01*
X256409Y447044D01*
X256391Y447048D01*
X256382Y447052D01*
X256361Y447054D01*
X256264Y447073D01*
X251913Y447516D01*
X251542Y448675D01*
X251533Y448692D01*
X251531Y448700D01*
X251527Y448707D01*
X251494Y448790D01*
X250937Y449872D01*
X253701Y453262D01*
X253755Y453356D01*
X253812Y453448D01*
X253815Y453461D01*
X253822Y453473D01*
X253843Y453580D01*
X253868Y453685D01*
X253866Y453699D01*
X253869Y453713D01*
X253854Y453820D01*
X253844Y453928D01*
X253838Y453941D01*
X253836Y453955D01*
X253788Y454052D01*
X253743Y454151D01*
X253732Y454164D01*
X253728Y454173D01*
X253712Y454188D01*
X253650Y454265D01*
X251065Y456850D01*
X250976Y456913D01*
X250891Y456979D01*
X250878Y456984D01*
X250866Y456992D01*
X250763Y457023D01*
X250660Y457059D01*
X250646Y457059D01*
X250633Y457063D01*
X250525Y457059D01*
X250416Y457060D01*
X250403Y457055D01*
X250389Y457055D01*
X250287Y457017D01*
X250185Y456982D01*
X250170Y456973D01*
X250161Y456969D01*
X250144Y456955D01*
X250062Y456901D01*
X246672Y454137D01*
X245590Y454694D01*
X245570Y454700D01*
X245475Y454742D01*
X244316Y455113D01*
X243873Y459464D01*
X243845Y459568D01*
X243820Y459674D01*
X243813Y459686D01*
X243810Y459699D01*
X243749Y459789D01*
X243692Y459882D01*
X243681Y459890D01*
X243673Y459902D01*
X243587Y459968D01*
X243503Y460037D01*
X243490Y460041D01*
X243479Y460050D01*
X243376Y460084D01*
X243275Y460123D01*
X243257Y460124D01*
X243248Y460128D01*
X243226Y460128D01*
X243128Y460137D01*
X239472Y460137D01*
X239365Y460120D01*
X239257Y460106D01*
X239245Y460100D01*
X239231Y460098D01*
X239135Y460046D01*
X239038Y459999D01*
X239028Y459989D01*
X239016Y459983D01*
X238942Y459903D01*
X238865Y459827D01*
X238859Y459815D01*
X238849Y459805D01*
X238804Y459706D01*
X238756Y459609D01*
X238752Y459591D01*
X238748Y459582D01*
X238746Y459561D01*
X238727Y459464D01*
X238284Y455113D01*
X237125Y454742D01*
X237107Y454732D01*
X237010Y454694D01*
X235928Y454137D01*
X232538Y456901D01*
X232444Y456955D01*
X232352Y457012D01*
X232339Y457015D01*
X232327Y457022D01*
X232220Y457043D01*
X232115Y457068D01*
X232101Y457066D01*
X232087Y457069D01*
X231980Y457054D01*
X231872Y457044D01*
X231859Y457038D01*
X231846Y457036D01*
X231748Y456988D01*
X231649Y456943D01*
X231636Y456932D01*
X231627Y456928D01*
X231612Y456912D01*
X231535Y456850D01*
X228950Y454265D01*
X228887Y454176D01*
X228821Y454091D01*
X228816Y454078D01*
X228808Y454066D01*
X228777Y453963D01*
X228741Y453860D01*
X228741Y453846D01*
X228737Y453833D01*
X228741Y453725D01*
X228740Y453616D01*
X228745Y453603D01*
X228745Y453589D01*
X228783Y453487D01*
X228818Y453385D01*
X228827Y453370D01*
X228831Y453361D01*
X228845Y453344D01*
X228899Y453262D01*
X231663Y449872D01*
X231106Y448790D01*
X231100Y448770D01*
X231058Y448675D01*
X230687Y447516D01*
X226336Y447073D01*
X226232Y447045D01*
X226126Y447020D01*
X226114Y447013D01*
X226101Y447010D01*
X226011Y446949D01*
X225918Y446892D01*
X225910Y446881D01*
X225898Y446873D01*
X225832Y446787D01*
X225764Y446703D01*
X225759Y446690D01*
X225750Y446679D01*
X225716Y446576D01*
X225677Y446475D01*
X225676Y446457D01*
X225672Y446448D01*
X225673Y446426D01*
X225663Y446328D01*
X225663Y442672D01*
X225680Y442565D01*
X225694Y442457D01*
X225700Y442445D01*
X225702Y442431D01*
X225754Y442335D01*
X225801Y442238D01*
X225811Y442228D01*
X225817Y442216D01*
X225897Y442142D01*
X225973Y442065D01*
X225985Y442059D01*
X225996Y442049D01*
X226094Y442004D01*
X226191Y441956D01*
X226209Y441952D01*
X226218Y441948D01*
X226239Y441946D01*
X226336Y441927D01*
X230687Y441484D01*
X231058Y440325D01*
X231068Y440307D01*
X231106Y440210D01*
X231663Y439128D01*
X228899Y435738D01*
X228845Y435644D01*
X228788Y435552D01*
X228785Y435539D01*
X228778Y435527D01*
X228757Y435420D01*
X228732Y435315D01*
X228734Y435301D01*
X228731Y435287D01*
X228746Y435180D01*
X228756Y435072D01*
X228762Y435059D01*
X228764Y435046D01*
X228812Y434948D01*
X228857Y434849D01*
X228868Y434836D01*
X228872Y434827D01*
X228888Y434812D01*
X228950Y434735D01*
X231535Y432150D01*
X231624Y432087D01*
X231709Y432021D01*
X231722Y432016D01*
X231734Y432008D01*
X231837Y431977D01*
X231940Y431941D01*
X231954Y431941D01*
X231967Y431937D01*
X232075Y431941D01*
X232184Y431940D01*
X232197Y431945D01*
X232211Y431945D01*
X232313Y431983D01*
X232415Y432018D01*
X232430Y432027D01*
X232439Y432031D01*
X232456Y432045D01*
X232538Y432099D01*
X235928Y434863D01*
X237010Y434306D01*
X237063Y434289D01*
X237112Y434263D01*
X237178Y434252D01*
X237242Y434231D01*
X237298Y434232D01*
X237352Y434223D01*
X237419Y434234D01*
X237486Y434235D01*
X237538Y434253D01*
X237593Y434262D01*
X237653Y434294D01*
X237716Y434317D01*
X237759Y434351D01*
X237809Y434377D01*
X237855Y434426D01*
X237907Y434468D01*
X237938Y434515D01*
X237976Y434555D01*
X238032Y434660D01*
X238040Y434673D01*
X238041Y434678D01*
X238045Y434685D01*
X240198Y439882D01*
X240218Y439966D01*
X240223Y439978D01*
X240225Y439994D01*
X240250Y440080D01*
X240249Y440100D01*
X240254Y440120D01*
X240246Y440202D01*
X240247Y440221D01*
X240243Y440241D01*
X240239Y440324D01*
X240232Y440343D01*
X240230Y440363D01*
X240198Y440432D01*
X240192Y440459D01*
X240177Y440483D01*
X240150Y440552D01*
X240137Y440567D01*
X240129Y440585D01*
X240084Y440634D01*
X240064Y440666D01*
X240032Y440692D01*
X239993Y440738D01*
X239972Y440753D01*
X239962Y440763D01*
X239941Y440775D01*
X239878Y440819D01*
X239875Y440821D01*
X239874Y440821D01*
X239872Y440823D01*
X238988Y441318D01*
X238309Y441945D01*
X237795Y442714D01*
X237475Y443582D01*
X237367Y444499D01*
X237480Y445434D01*
X237811Y446315D01*
X238343Y447092D01*
X239044Y447721D01*
X239874Y448164D01*
X240786Y448398D01*
X241728Y448408D01*
X242644Y448194D01*
X243484Y447769D01*
X244198Y447156D01*
X244747Y446391D01*
X245098Y445517D01*
X245231Y444585D01*
X245139Y443648D01*
X244827Y442760D01*
X244312Y441972D01*
X243625Y441328D01*
X242726Y440822D01*
X242686Y440789D01*
X242644Y440767D01*
X242613Y440734D01*
X242565Y440699D01*
X242552Y440682D01*
X242536Y440669D01*
X242501Y440615D01*
X242477Y440589D01*
X242464Y440558D01*
X242422Y440501D01*
X242416Y440481D01*
X242405Y440463D01*
X242387Y440390D01*
X242377Y440367D01*
X242374Y440343D01*
X242351Y440268D01*
X242352Y440247D01*
X242347Y440226D01*
X242354Y440142D01*
X242353Y440124D01*
X242356Y440108D01*
X242359Y440024D01*
X242367Y439998D01*
X242368Y439983D01*
X242378Y439961D01*
X242402Y439882D01*
X242710Y439137D01*
X242711Y439137D01*
X243021Y438388D01*
X243331Y437639D01*
X243331Y437638D01*
X243642Y436890D01*
X243642Y436889D01*
X243952Y436140D01*
X244262Y435391D01*
X244263Y435391D01*
X244555Y434685D01*
X244584Y434638D01*
X244605Y434586D01*
X244648Y434535D01*
X244684Y434478D01*
X244727Y434443D01*
X244763Y434400D01*
X244820Y434366D01*
X244872Y434323D01*
X244924Y434304D01*
X244972Y434275D01*
X245038Y434261D01*
X245101Y434237D01*
X245156Y434235D01*
X245210Y434224D01*
X245277Y434231D01*
X245344Y434229D01*
X245398Y434245D01*
X245453Y434252D01*
X245564Y434296D01*
X245578Y434300D01*
X245582Y434303D01*
X245590Y434306D01*
X246672Y434863D01*
X250062Y432099D01*
X250156Y432045D01*
X250248Y431988D01*
X250261Y431985D01*
X250273Y431978D01*
X250380Y431957D01*
X250485Y431932D01*
X250499Y431934D01*
X250513Y431931D01*
X250620Y431946D01*
G37*
G36*
X535100Y431946D02*
X535100Y431946D01*
X535208Y431956D01*
X535221Y431962D01*
X535235Y431964D01*
X535332Y432012D01*
X535431Y432057D01*
X535444Y432068D01*
X535453Y432072D01*
X535468Y432088D01*
X535545Y432150D01*
X538130Y434735D01*
X538193Y434824D01*
X538259Y434909D01*
X538264Y434922D01*
X538272Y434934D01*
X538303Y435037D01*
X538339Y435140D01*
X538339Y435154D01*
X538343Y435167D01*
X538339Y435275D01*
X538340Y435384D01*
X538335Y435397D01*
X538335Y435411D01*
X538297Y435513D01*
X538262Y435615D01*
X538253Y435630D01*
X538249Y435639D01*
X538235Y435656D01*
X538181Y435738D01*
X535417Y439128D01*
X535974Y440210D01*
X535980Y440230D01*
X536022Y440325D01*
X536393Y441484D01*
X540744Y441927D01*
X540848Y441955D01*
X540954Y441980D01*
X540966Y441987D01*
X540979Y441990D01*
X541069Y442051D01*
X541162Y442108D01*
X541170Y442119D01*
X541182Y442127D01*
X541248Y442213D01*
X541317Y442297D01*
X541321Y442310D01*
X541330Y442321D01*
X541364Y442424D01*
X541403Y442525D01*
X541404Y442543D01*
X541408Y442552D01*
X541408Y442574D01*
X541417Y442672D01*
X541417Y446328D01*
X541400Y446435D01*
X541386Y446543D01*
X541380Y446555D01*
X541378Y446569D01*
X541326Y446665D01*
X541279Y446762D01*
X541269Y446772D01*
X541263Y446784D01*
X541183Y446858D01*
X541107Y446935D01*
X541095Y446941D01*
X541085Y446951D01*
X540986Y446996D01*
X540889Y447044D01*
X540871Y447048D01*
X540862Y447052D01*
X540841Y447054D01*
X540744Y447073D01*
X536393Y447516D01*
X536022Y448675D01*
X536013Y448692D01*
X536011Y448700D01*
X536007Y448707D01*
X535974Y448790D01*
X535417Y449872D01*
X538181Y453262D01*
X538235Y453356D01*
X538292Y453448D01*
X538295Y453461D01*
X538302Y453473D01*
X538323Y453580D01*
X538348Y453685D01*
X538346Y453699D01*
X538349Y453713D01*
X538334Y453820D01*
X538324Y453928D01*
X538318Y453941D01*
X538316Y453955D01*
X538268Y454052D01*
X538223Y454151D01*
X538212Y454164D01*
X538208Y454173D01*
X538192Y454188D01*
X538130Y454265D01*
X535545Y456850D01*
X535456Y456913D01*
X535371Y456979D01*
X535358Y456984D01*
X535346Y456992D01*
X535243Y457023D01*
X535140Y457059D01*
X535126Y457059D01*
X535113Y457063D01*
X535005Y457059D01*
X534896Y457060D01*
X534883Y457055D01*
X534869Y457055D01*
X534767Y457017D01*
X534665Y456982D01*
X534650Y456973D01*
X534641Y456969D01*
X534624Y456955D01*
X534542Y456901D01*
X531152Y454137D01*
X530070Y454694D01*
X530050Y454700D01*
X529955Y454742D01*
X528796Y455113D01*
X528353Y459464D01*
X528325Y459568D01*
X528300Y459674D01*
X528293Y459686D01*
X528290Y459699D01*
X528229Y459789D01*
X528172Y459882D01*
X528161Y459890D01*
X528153Y459902D01*
X528067Y459968D01*
X527983Y460037D01*
X527970Y460041D01*
X527959Y460050D01*
X527856Y460084D01*
X527755Y460123D01*
X527737Y460124D01*
X527728Y460128D01*
X527706Y460128D01*
X527608Y460137D01*
X523952Y460137D01*
X523845Y460120D01*
X523737Y460106D01*
X523725Y460100D01*
X523711Y460098D01*
X523615Y460046D01*
X523518Y459999D01*
X523508Y459989D01*
X523496Y459983D01*
X523422Y459903D01*
X523345Y459827D01*
X523339Y459815D01*
X523329Y459805D01*
X523284Y459706D01*
X523236Y459609D01*
X523232Y459591D01*
X523228Y459582D01*
X523226Y459561D01*
X523207Y459464D01*
X522764Y455113D01*
X521605Y454742D01*
X521587Y454732D01*
X521490Y454694D01*
X520408Y454137D01*
X517018Y456901D01*
X516924Y456955D01*
X516832Y457012D01*
X516819Y457015D01*
X516807Y457022D01*
X516700Y457043D01*
X516595Y457068D01*
X516581Y457066D01*
X516567Y457069D01*
X516460Y457054D01*
X516352Y457044D01*
X516339Y457038D01*
X516326Y457036D01*
X516228Y456988D01*
X516129Y456943D01*
X516116Y456932D01*
X516107Y456928D01*
X516092Y456912D01*
X516015Y456850D01*
X513430Y454265D01*
X513367Y454176D01*
X513301Y454091D01*
X513296Y454078D01*
X513288Y454066D01*
X513257Y453963D01*
X513221Y453860D01*
X513221Y453846D01*
X513217Y453833D01*
X513221Y453725D01*
X513220Y453616D01*
X513225Y453603D01*
X513225Y453589D01*
X513263Y453487D01*
X513298Y453385D01*
X513307Y453370D01*
X513311Y453361D01*
X513325Y453344D01*
X513379Y453262D01*
X516143Y449872D01*
X515586Y448790D01*
X515580Y448770D01*
X515538Y448675D01*
X515167Y447516D01*
X510816Y447073D01*
X510712Y447045D01*
X510606Y447020D01*
X510594Y447013D01*
X510581Y447010D01*
X510491Y446949D01*
X510398Y446892D01*
X510390Y446881D01*
X510378Y446873D01*
X510312Y446787D01*
X510244Y446703D01*
X510239Y446690D01*
X510230Y446679D01*
X510196Y446576D01*
X510157Y446475D01*
X510156Y446457D01*
X510152Y446448D01*
X510153Y446426D01*
X510143Y446328D01*
X510143Y442672D01*
X510160Y442565D01*
X510174Y442457D01*
X510180Y442445D01*
X510182Y442431D01*
X510234Y442335D01*
X510281Y442238D01*
X510291Y442228D01*
X510297Y442216D01*
X510377Y442142D01*
X510453Y442065D01*
X510465Y442059D01*
X510476Y442049D01*
X510574Y442004D01*
X510671Y441956D01*
X510689Y441952D01*
X510698Y441948D01*
X510719Y441946D01*
X510816Y441927D01*
X515167Y441484D01*
X515538Y440325D01*
X515548Y440307D01*
X515586Y440210D01*
X516143Y439128D01*
X513379Y435738D01*
X513325Y435644D01*
X513268Y435552D01*
X513265Y435539D01*
X513258Y435527D01*
X513237Y435420D01*
X513212Y435315D01*
X513214Y435301D01*
X513211Y435287D01*
X513226Y435180D01*
X513236Y435072D01*
X513242Y435059D01*
X513244Y435046D01*
X513292Y434948D01*
X513337Y434849D01*
X513348Y434836D01*
X513352Y434827D01*
X513368Y434812D01*
X513430Y434735D01*
X516015Y432150D01*
X516104Y432087D01*
X516189Y432021D01*
X516202Y432016D01*
X516214Y432008D01*
X516317Y431977D01*
X516420Y431941D01*
X516434Y431941D01*
X516447Y431937D01*
X516555Y431941D01*
X516664Y431940D01*
X516677Y431945D01*
X516691Y431945D01*
X516793Y431983D01*
X516895Y432018D01*
X516910Y432027D01*
X516919Y432031D01*
X516936Y432045D01*
X517018Y432099D01*
X520408Y434863D01*
X521490Y434306D01*
X521543Y434289D01*
X521592Y434263D01*
X521658Y434252D01*
X521722Y434231D01*
X521778Y434232D01*
X521832Y434223D01*
X521899Y434234D01*
X521966Y434235D01*
X522018Y434253D01*
X522073Y434262D01*
X522133Y434294D01*
X522196Y434317D01*
X522239Y434351D01*
X522289Y434377D01*
X522335Y434426D01*
X522387Y434468D01*
X522418Y434515D01*
X522456Y434555D01*
X522512Y434660D01*
X522520Y434673D01*
X522521Y434678D01*
X522525Y434685D01*
X524678Y439882D01*
X524698Y439966D01*
X524703Y439978D01*
X524705Y439994D01*
X524730Y440080D01*
X524729Y440100D01*
X524734Y440120D01*
X524726Y440202D01*
X524727Y440221D01*
X524723Y440241D01*
X524719Y440324D01*
X524712Y440343D01*
X524710Y440363D01*
X524678Y440432D01*
X524672Y440459D01*
X524657Y440483D01*
X524630Y440552D01*
X524617Y440567D01*
X524609Y440585D01*
X524564Y440634D01*
X524544Y440666D01*
X524512Y440692D01*
X524473Y440738D01*
X524452Y440753D01*
X524442Y440763D01*
X524421Y440775D01*
X524358Y440819D01*
X524355Y440821D01*
X524354Y440821D01*
X524352Y440823D01*
X523468Y441318D01*
X522789Y441945D01*
X522275Y442714D01*
X521955Y443582D01*
X521847Y444499D01*
X521960Y445434D01*
X522291Y446315D01*
X522823Y447092D01*
X523524Y447721D01*
X524354Y448164D01*
X525266Y448398D01*
X526208Y448408D01*
X527124Y448194D01*
X527964Y447769D01*
X528678Y447156D01*
X529227Y446391D01*
X529578Y445517D01*
X529711Y444585D01*
X529619Y443648D01*
X529307Y442760D01*
X528792Y441972D01*
X528105Y441328D01*
X527206Y440822D01*
X527166Y440789D01*
X527124Y440767D01*
X527093Y440734D01*
X527045Y440699D01*
X527032Y440682D01*
X527016Y440669D01*
X526981Y440615D01*
X526957Y440589D01*
X526944Y440558D01*
X526902Y440501D01*
X526896Y440481D01*
X526885Y440463D01*
X526867Y440390D01*
X526857Y440367D01*
X526854Y440343D01*
X526831Y440268D01*
X526832Y440247D01*
X526827Y440226D01*
X526834Y440142D01*
X526833Y440124D01*
X526836Y440108D01*
X526839Y440024D01*
X526847Y439998D01*
X526848Y439983D01*
X526858Y439961D01*
X526882Y439882D01*
X527190Y439137D01*
X527191Y439137D01*
X527501Y438388D01*
X527811Y437639D01*
X527811Y437638D01*
X528122Y436890D01*
X528122Y436889D01*
X528432Y436140D01*
X528742Y435391D01*
X528743Y435391D01*
X529035Y434685D01*
X529064Y434638D01*
X529085Y434586D01*
X529128Y434535D01*
X529164Y434478D01*
X529207Y434443D01*
X529243Y434400D01*
X529300Y434366D01*
X529352Y434323D01*
X529404Y434304D01*
X529452Y434275D01*
X529518Y434261D01*
X529581Y434237D01*
X529636Y434235D01*
X529690Y434224D01*
X529757Y434231D01*
X529824Y434229D01*
X529878Y434245D01*
X529933Y434252D01*
X530044Y434296D01*
X530058Y434300D01*
X530062Y434303D01*
X530070Y434306D01*
X531152Y434863D01*
X534542Y432099D01*
X534636Y432045D01*
X534728Y431988D01*
X534741Y431985D01*
X534753Y431978D01*
X534860Y431957D01*
X534965Y431932D01*
X534979Y431934D01*
X534993Y431931D01*
X535100Y431946D01*
G37*
G36*
X437821Y609535D02*
X437821Y609535D01*
X437825Y609532D01*
X438825Y609732D01*
X438829Y609737D01*
X438833Y609734D01*
X439833Y610134D01*
X439838Y610142D01*
X439845Y610141D01*
X441045Y611041D01*
X441047Y611050D01*
X441054Y611050D01*
X441954Y612250D01*
X441954Y612260D01*
X441961Y612262D01*
X442361Y613262D01*
X442359Y613268D01*
X442363Y613270D01*
X442463Y613770D01*
X442460Y613777D01*
X442464Y613780D01*
X442464Y614275D01*
X442563Y614770D01*
X442557Y614783D01*
X442563Y614790D01*
X442263Y616290D01*
X442258Y616294D01*
X442261Y616298D01*
X442061Y616798D01*
X442058Y616800D01*
X442059Y616802D01*
X441859Y617202D01*
X441853Y617205D01*
X441854Y617210D01*
X441254Y618010D01*
X441249Y618011D01*
X441250Y618015D01*
X440550Y618715D01*
X440541Y618716D01*
X440540Y618722D01*
X440043Y619021D01*
X439645Y619319D01*
X439635Y619319D01*
X439633Y619326D01*
X439133Y619526D01*
X439127Y619524D01*
X439125Y619528D01*
X437625Y619828D01*
X437618Y619825D01*
X437615Y619829D01*
X411915Y619829D01*
X411910Y619826D01*
X411907Y619829D01*
X411307Y619729D01*
X411305Y619726D01*
X411303Y619728D01*
X410903Y619628D01*
X410900Y619624D01*
X410897Y619626D01*
X409897Y619226D01*
X409895Y619223D01*
X409893Y619224D01*
X409493Y619024D01*
X409490Y619018D01*
X409485Y619019D01*
X409085Y618719D01*
X409084Y618714D01*
X409080Y618715D01*
X408683Y618317D01*
X408285Y618019D01*
X408283Y618010D01*
X408276Y618010D01*
X407976Y617610D01*
X407976Y617600D01*
X407969Y617598D01*
X407772Y617104D01*
X407476Y616710D01*
X407476Y616694D01*
X407467Y616690D01*
X407368Y616194D01*
X407169Y615698D01*
X407173Y615685D01*
X407166Y615680D01*
X407166Y615185D01*
X407067Y614690D01*
X407073Y614677D01*
X407067Y614670D01*
X407367Y613170D01*
X407372Y613166D01*
X407369Y613162D01*
X407769Y612162D01*
X407772Y612160D01*
X407771Y612158D01*
X407971Y611758D01*
X407981Y611753D01*
X407980Y611745D01*
X408378Y611348D01*
X408676Y610950D01*
X408685Y610948D01*
X408685Y610941D01*
X409485Y610341D01*
X409492Y610341D01*
X409493Y610336D01*
X409893Y610136D01*
X409896Y610137D01*
X409897Y610134D01*
X410897Y609734D01*
X410903Y609736D01*
X410905Y609732D01*
X411905Y609532D01*
X411912Y609535D01*
X411915Y609531D01*
X437815Y609531D01*
X437821Y609535D01*
G37*
G36*
X153341Y609535D02*
X153341Y609535D01*
X153345Y609532D01*
X154345Y609732D01*
X154349Y609737D01*
X154353Y609734D01*
X155353Y610134D01*
X155358Y610142D01*
X155365Y610141D01*
X156565Y611041D01*
X156567Y611050D01*
X156574Y611050D01*
X157474Y612250D01*
X157474Y612260D01*
X157481Y612262D01*
X157881Y613262D01*
X157879Y613268D01*
X157883Y613270D01*
X157983Y613770D01*
X157980Y613777D01*
X157984Y613780D01*
X157984Y614275D01*
X158083Y614770D01*
X158077Y614783D01*
X158083Y614790D01*
X157783Y616290D01*
X157778Y616294D01*
X157781Y616298D01*
X157581Y616798D01*
X157578Y616800D01*
X157579Y616802D01*
X157379Y617202D01*
X157373Y617205D01*
X157374Y617210D01*
X156774Y618010D01*
X156769Y618011D01*
X156770Y618015D01*
X156070Y618715D01*
X156061Y618716D01*
X156060Y618722D01*
X155563Y619021D01*
X155165Y619319D01*
X155155Y619319D01*
X155153Y619326D01*
X154653Y619526D01*
X154647Y619524D01*
X154645Y619528D01*
X153145Y619828D01*
X153138Y619825D01*
X153135Y619829D01*
X127435Y619829D01*
X127430Y619826D01*
X127427Y619829D01*
X126827Y619729D01*
X126825Y619726D01*
X126823Y619728D01*
X126423Y619628D01*
X126420Y619624D01*
X126417Y619626D01*
X125417Y619226D01*
X125415Y619223D01*
X125413Y619224D01*
X125013Y619024D01*
X125010Y619018D01*
X125005Y619019D01*
X124605Y618719D01*
X124604Y618714D01*
X124600Y618715D01*
X124203Y618317D01*
X123805Y618019D01*
X123803Y618010D01*
X123796Y618010D01*
X123496Y617610D01*
X123496Y617600D01*
X123489Y617598D01*
X123292Y617104D01*
X122996Y616710D01*
X122996Y616694D01*
X122987Y616690D01*
X122888Y616194D01*
X122689Y615698D01*
X122693Y615685D01*
X122686Y615680D01*
X122686Y615185D01*
X122587Y614690D01*
X122593Y614677D01*
X122587Y614670D01*
X122887Y613170D01*
X122892Y613166D01*
X122889Y613162D01*
X123289Y612162D01*
X123292Y612160D01*
X123291Y612158D01*
X123491Y611758D01*
X123501Y611753D01*
X123500Y611745D01*
X123898Y611348D01*
X124196Y610950D01*
X124205Y610948D01*
X124205Y610941D01*
X125005Y610341D01*
X125012Y610341D01*
X125013Y610336D01*
X125413Y610136D01*
X125416Y610137D01*
X125417Y610134D01*
X126417Y609734D01*
X126423Y609736D01*
X126425Y609732D01*
X127425Y609532D01*
X127432Y609535D01*
X127435Y609531D01*
X153335Y609531D01*
X153341Y609535D01*
G37*
G36*
X722301Y609535D02*
X722301Y609535D01*
X722305Y609532D01*
X723305Y609732D01*
X723309Y609737D01*
X723313Y609734D01*
X724313Y610134D01*
X724318Y610142D01*
X724325Y610141D01*
X725525Y611041D01*
X725527Y611050D01*
X725534Y611050D01*
X726434Y612250D01*
X726434Y612260D01*
X726441Y612262D01*
X726841Y613262D01*
X726839Y613268D01*
X726843Y613270D01*
X726943Y613770D01*
X726940Y613777D01*
X726944Y613780D01*
X726944Y614275D01*
X727043Y614770D01*
X727037Y614783D01*
X727043Y614790D01*
X726743Y616290D01*
X726738Y616294D01*
X726741Y616298D01*
X726541Y616798D01*
X726538Y616800D01*
X726539Y616802D01*
X726339Y617202D01*
X726333Y617205D01*
X726334Y617210D01*
X725734Y618010D01*
X725729Y618011D01*
X725730Y618015D01*
X725030Y618715D01*
X725021Y618716D01*
X725020Y618722D01*
X724523Y619021D01*
X724125Y619319D01*
X724115Y619319D01*
X724113Y619326D01*
X723613Y619526D01*
X723607Y619524D01*
X723605Y619528D01*
X722105Y619828D01*
X722098Y619825D01*
X722095Y619829D01*
X696395Y619829D01*
X696390Y619826D01*
X696387Y619829D01*
X695787Y619729D01*
X695785Y619726D01*
X695783Y619728D01*
X695383Y619628D01*
X695380Y619624D01*
X695377Y619626D01*
X694377Y619226D01*
X694375Y619223D01*
X694373Y619224D01*
X693973Y619024D01*
X693970Y619018D01*
X693965Y619019D01*
X693565Y618719D01*
X693564Y618714D01*
X693560Y618715D01*
X693163Y618317D01*
X692765Y618019D01*
X692763Y618010D01*
X692756Y618010D01*
X692456Y617610D01*
X692456Y617600D01*
X692449Y617598D01*
X692252Y617104D01*
X691956Y616710D01*
X691956Y616694D01*
X691947Y616690D01*
X691848Y616194D01*
X691649Y615698D01*
X691653Y615685D01*
X691646Y615680D01*
X691646Y615185D01*
X691547Y614690D01*
X691553Y614677D01*
X691547Y614670D01*
X691847Y613170D01*
X691852Y613166D01*
X691849Y613162D01*
X692249Y612162D01*
X692252Y612160D01*
X692251Y612158D01*
X692451Y611758D01*
X692461Y611753D01*
X692460Y611745D01*
X692858Y611348D01*
X693156Y610950D01*
X693165Y610948D01*
X693165Y610941D01*
X693965Y610341D01*
X693972Y610341D01*
X693973Y610336D01*
X694373Y610136D01*
X694376Y610137D01*
X694377Y610134D01*
X695377Y609734D01*
X695383Y609736D01*
X695385Y609732D01*
X696385Y609532D01*
X696392Y609535D01*
X696395Y609531D01*
X722295Y609531D01*
X722301Y609535D01*
G37*
G36*
X1006781Y609535D02*
X1006781Y609535D01*
X1006785Y609532D01*
X1007785Y609732D01*
X1007789Y609737D01*
X1007793Y609734D01*
X1008793Y610134D01*
X1008798Y610142D01*
X1008805Y610141D01*
X1010005Y611041D01*
X1010007Y611050D01*
X1010014Y611050D01*
X1010914Y612250D01*
X1010914Y612260D01*
X1010921Y612262D01*
X1011321Y613262D01*
X1011319Y613268D01*
X1011323Y613270D01*
X1011423Y613770D01*
X1011420Y613777D01*
X1011424Y613780D01*
X1011424Y614275D01*
X1011523Y614770D01*
X1011517Y614783D01*
X1011523Y614790D01*
X1011223Y616290D01*
X1011218Y616294D01*
X1011221Y616298D01*
X1011021Y616798D01*
X1011018Y616800D01*
X1011019Y616802D01*
X1010819Y617202D01*
X1010813Y617205D01*
X1010814Y617210D01*
X1010214Y618010D01*
X1010209Y618011D01*
X1010210Y618015D01*
X1009510Y618715D01*
X1009501Y618716D01*
X1009500Y618722D01*
X1009003Y619021D01*
X1008605Y619319D01*
X1008595Y619319D01*
X1008593Y619326D01*
X1008093Y619526D01*
X1008087Y619524D01*
X1008085Y619528D01*
X1006585Y619828D01*
X1006578Y619825D01*
X1006575Y619829D01*
X980875Y619829D01*
X980870Y619826D01*
X980867Y619829D01*
X980267Y619729D01*
X980265Y619726D01*
X980263Y619728D01*
X979863Y619628D01*
X979860Y619624D01*
X979857Y619626D01*
X978857Y619226D01*
X978855Y619223D01*
X978853Y619224D01*
X978453Y619024D01*
X978450Y619018D01*
X978445Y619019D01*
X978045Y618719D01*
X978044Y618714D01*
X978040Y618715D01*
X977643Y618317D01*
X977245Y618019D01*
X977243Y618010D01*
X977236Y618010D01*
X976936Y617610D01*
X976936Y617600D01*
X976929Y617598D01*
X976732Y617104D01*
X976436Y616710D01*
X976436Y616694D01*
X976427Y616690D01*
X976328Y616194D01*
X976129Y615698D01*
X976133Y615685D01*
X976126Y615680D01*
X976126Y615185D01*
X976027Y614690D01*
X976033Y614677D01*
X976027Y614670D01*
X976327Y613170D01*
X976332Y613166D01*
X976329Y613162D01*
X976729Y612162D01*
X976732Y612160D01*
X976731Y612158D01*
X976931Y611758D01*
X976941Y611753D01*
X976940Y611745D01*
X977338Y611348D01*
X977636Y610950D01*
X977645Y610948D01*
X977645Y610941D01*
X978445Y610341D01*
X978452Y610341D01*
X978453Y610336D01*
X978853Y610136D01*
X978856Y610137D01*
X978857Y610134D01*
X979857Y609734D01*
X979863Y609736D01*
X979865Y609732D01*
X980865Y609532D01*
X980872Y609535D01*
X980875Y609531D01*
X1006775Y609531D01*
X1006781Y609535D01*
G37*
G36*
X1006781Y20255D02*
X1006781Y20255D01*
X1006785Y20252D01*
X1007785Y20452D01*
X1007789Y20457D01*
X1007793Y20454D01*
X1008793Y20854D01*
X1008798Y20862D01*
X1008805Y20861D01*
X1010005Y21761D01*
X1010007Y21770D01*
X1010014Y21770D01*
X1010914Y22970D01*
X1010914Y22980D01*
X1010921Y22982D01*
X1011321Y23982D01*
X1011319Y23988D01*
X1011323Y23990D01*
X1011423Y24490D01*
X1011420Y24497D01*
X1011424Y24500D01*
X1011424Y24995D01*
X1011523Y25490D01*
X1011517Y25503D01*
X1011523Y25510D01*
X1011223Y27010D01*
X1011218Y27014D01*
X1011221Y27018D01*
X1011021Y27518D01*
X1011018Y27520D01*
X1011019Y27522D01*
X1010819Y27922D01*
X1010813Y27925D01*
X1010814Y27930D01*
X1010214Y28730D01*
X1010209Y28731D01*
X1010210Y28735D01*
X1009510Y29435D01*
X1009501Y29436D01*
X1009500Y29442D01*
X1009003Y29741D01*
X1008605Y30039D01*
X1008595Y30039D01*
X1008593Y30046D01*
X1008093Y30246D01*
X1008087Y30244D01*
X1008085Y30248D01*
X1006585Y30548D01*
X1006578Y30545D01*
X1006575Y30549D01*
X980875Y30549D01*
X980870Y30546D01*
X980867Y30549D01*
X980267Y30449D01*
X980265Y30446D01*
X980263Y30448D01*
X979863Y30348D01*
X979860Y30344D01*
X979857Y30346D01*
X978857Y29946D01*
X978855Y29943D01*
X978853Y29944D01*
X978453Y29744D01*
X978450Y29738D01*
X978445Y29739D01*
X978045Y29439D01*
X978044Y29434D01*
X978040Y29435D01*
X977643Y29037D01*
X977245Y28739D01*
X977243Y28730D01*
X977236Y28730D01*
X976936Y28330D01*
X976936Y28320D01*
X976929Y28318D01*
X976732Y27824D01*
X976436Y27430D01*
X976436Y27414D01*
X976427Y27410D01*
X976328Y26914D01*
X976129Y26418D01*
X976133Y26405D01*
X976126Y26400D01*
X976126Y25905D01*
X976027Y25410D01*
X976033Y25397D01*
X976027Y25390D01*
X976327Y23890D01*
X976332Y23886D01*
X976329Y23882D01*
X976729Y22882D01*
X976732Y22880D01*
X976731Y22878D01*
X976931Y22478D01*
X976941Y22473D01*
X976940Y22465D01*
X977338Y22068D01*
X977636Y21670D01*
X977645Y21668D01*
X977645Y21661D01*
X978445Y21061D01*
X978452Y21061D01*
X978453Y21056D01*
X978853Y20856D01*
X978856Y20857D01*
X978857Y20854D01*
X979857Y20454D01*
X979863Y20456D01*
X979865Y20452D01*
X980865Y20252D01*
X980872Y20255D01*
X980875Y20251D01*
X1006775Y20251D01*
X1006781Y20255D01*
G37*
G36*
X722301Y20255D02*
X722301Y20255D01*
X722305Y20252D01*
X723305Y20452D01*
X723309Y20457D01*
X723313Y20454D01*
X724313Y20854D01*
X724318Y20862D01*
X724325Y20861D01*
X725525Y21761D01*
X725527Y21770D01*
X725534Y21770D01*
X726434Y22970D01*
X726434Y22980D01*
X726441Y22982D01*
X726841Y23982D01*
X726839Y23988D01*
X726843Y23990D01*
X726943Y24490D01*
X726940Y24497D01*
X726944Y24500D01*
X726944Y24995D01*
X727043Y25490D01*
X727037Y25503D01*
X727043Y25510D01*
X726743Y27010D01*
X726738Y27014D01*
X726741Y27018D01*
X726541Y27518D01*
X726538Y27520D01*
X726539Y27522D01*
X726339Y27922D01*
X726333Y27925D01*
X726334Y27930D01*
X725734Y28730D01*
X725729Y28731D01*
X725730Y28735D01*
X725030Y29435D01*
X725021Y29436D01*
X725020Y29442D01*
X724523Y29741D01*
X724125Y30039D01*
X724115Y30039D01*
X724113Y30046D01*
X723613Y30246D01*
X723607Y30244D01*
X723605Y30248D01*
X722105Y30548D01*
X722098Y30545D01*
X722095Y30549D01*
X696395Y30549D01*
X696390Y30546D01*
X696387Y30549D01*
X695787Y30449D01*
X695785Y30446D01*
X695783Y30448D01*
X695383Y30348D01*
X695380Y30344D01*
X695377Y30346D01*
X694377Y29946D01*
X694375Y29943D01*
X694373Y29944D01*
X693973Y29744D01*
X693970Y29738D01*
X693965Y29739D01*
X693565Y29439D01*
X693564Y29434D01*
X693560Y29435D01*
X693163Y29037D01*
X692765Y28739D01*
X692763Y28730D01*
X692756Y28730D01*
X692456Y28330D01*
X692456Y28320D01*
X692449Y28318D01*
X692252Y27824D01*
X691956Y27430D01*
X691956Y27414D01*
X691947Y27410D01*
X691848Y26914D01*
X691649Y26418D01*
X691653Y26405D01*
X691646Y26400D01*
X691646Y25905D01*
X691547Y25410D01*
X691553Y25397D01*
X691547Y25390D01*
X691847Y23890D01*
X691852Y23886D01*
X691849Y23882D01*
X692249Y22882D01*
X692252Y22880D01*
X692251Y22878D01*
X692451Y22478D01*
X692461Y22473D01*
X692460Y22465D01*
X692858Y22068D01*
X693156Y21670D01*
X693165Y21668D01*
X693165Y21661D01*
X693965Y21061D01*
X693972Y21061D01*
X693973Y21056D01*
X694373Y20856D01*
X694376Y20857D01*
X694377Y20854D01*
X695377Y20454D01*
X695383Y20456D01*
X695385Y20452D01*
X696385Y20252D01*
X696392Y20255D01*
X696395Y20251D01*
X722295Y20251D01*
X722301Y20255D01*
G37*
G36*
X153341Y20255D02*
X153341Y20255D01*
X153345Y20252D01*
X154345Y20452D01*
X154349Y20457D01*
X154353Y20454D01*
X155353Y20854D01*
X155358Y20862D01*
X155365Y20861D01*
X156565Y21761D01*
X156567Y21770D01*
X156574Y21770D01*
X157474Y22970D01*
X157474Y22980D01*
X157481Y22982D01*
X157881Y23982D01*
X157879Y23988D01*
X157883Y23990D01*
X157983Y24490D01*
X157980Y24497D01*
X157984Y24500D01*
X157984Y24995D01*
X158083Y25490D01*
X158077Y25503D01*
X158083Y25510D01*
X157783Y27010D01*
X157778Y27014D01*
X157781Y27018D01*
X157581Y27518D01*
X157578Y27520D01*
X157579Y27522D01*
X157379Y27922D01*
X157373Y27925D01*
X157374Y27930D01*
X156774Y28730D01*
X156769Y28731D01*
X156770Y28735D01*
X156070Y29435D01*
X156061Y29436D01*
X156060Y29442D01*
X155563Y29741D01*
X155165Y30039D01*
X155155Y30039D01*
X155153Y30046D01*
X154653Y30246D01*
X154647Y30244D01*
X154645Y30248D01*
X153145Y30548D01*
X153138Y30545D01*
X153135Y30549D01*
X127435Y30549D01*
X127430Y30546D01*
X127427Y30549D01*
X126827Y30449D01*
X126825Y30446D01*
X126823Y30448D01*
X126423Y30348D01*
X126420Y30344D01*
X126417Y30346D01*
X125417Y29946D01*
X125415Y29943D01*
X125413Y29944D01*
X125013Y29744D01*
X125010Y29738D01*
X125005Y29739D01*
X124605Y29439D01*
X124604Y29434D01*
X124600Y29435D01*
X124203Y29037D01*
X123805Y28739D01*
X123803Y28730D01*
X123796Y28730D01*
X123496Y28330D01*
X123496Y28320D01*
X123489Y28318D01*
X123292Y27824D01*
X122996Y27430D01*
X122996Y27414D01*
X122987Y27410D01*
X122888Y26914D01*
X122689Y26418D01*
X122693Y26405D01*
X122686Y26400D01*
X122686Y25905D01*
X122587Y25410D01*
X122593Y25397D01*
X122587Y25390D01*
X122887Y23890D01*
X122892Y23886D01*
X122889Y23882D01*
X123289Y22882D01*
X123292Y22880D01*
X123291Y22878D01*
X123491Y22478D01*
X123501Y22473D01*
X123500Y22465D01*
X123898Y22068D01*
X124196Y21670D01*
X124205Y21668D01*
X124205Y21661D01*
X125005Y21061D01*
X125012Y21061D01*
X125013Y21056D01*
X125413Y20856D01*
X125416Y20857D01*
X125417Y20854D01*
X126417Y20454D01*
X126423Y20456D01*
X126425Y20452D01*
X127425Y20252D01*
X127432Y20255D01*
X127435Y20251D01*
X153335Y20251D01*
X153341Y20255D01*
G37*
G36*
X437821Y20255D02*
X437821Y20255D01*
X437825Y20252D01*
X438825Y20452D01*
X438829Y20457D01*
X438833Y20454D01*
X439833Y20854D01*
X439838Y20862D01*
X439845Y20861D01*
X441045Y21761D01*
X441047Y21770D01*
X441054Y21770D01*
X441954Y22970D01*
X441954Y22980D01*
X441961Y22982D01*
X442361Y23982D01*
X442359Y23988D01*
X442363Y23990D01*
X442463Y24490D01*
X442460Y24497D01*
X442464Y24500D01*
X442464Y24995D01*
X442563Y25490D01*
X442557Y25503D01*
X442563Y25510D01*
X442263Y27010D01*
X442258Y27014D01*
X442261Y27018D01*
X442061Y27518D01*
X442058Y27520D01*
X442059Y27522D01*
X441859Y27922D01*
X441853Y27925D01*
X441854Y27930D01*
X441254Y28730D01*
X441249Y28731D01*
X441250Y28735D01*
X440550Y29435D01*
X440541Y29436D01*
X440540Y29442D01*
X440043Y29741D01*
X439645Y30039D01*
X439635Y30039D01*
X439633Y30046D01*
X439133Y30246D01*
X439127Y30244D01*
X439125Y30248D01*
X437625Y30548D01*
X437618Y30545D01*
X437615Y30549D01*
X411915Y30549D01*
X411910Y30546D01*
X411907Y30549D01*
X411307Y30449D01*
X411305Y30446D01*
X411303Y30448D01*
X410903Y30348D01*
X410900Y30344D01*
X410897Y30346D01*
X409897Y29946D01*
X409895Y29943D01*
X409893Y29944D01*
X409493Y29744D01*
X409490Y29738D01*
X409485Y29739D01*
X409085Y29439D01*
X409084Y29434D01*
X409080Y29435D01*
X408683Y29037D01*
X408285Y28739D01*
X408283Y28730D01*
X408276Y28730D01*
X407976Y28330D01*
X407976Y28320D01*
X407969Y28318D01*
X407772Y27824D01*
X407476Y27430D01*
X407476Y27414D01*
X407467Y27410D01*
X407368Y26914D01*
X407169Y26418D01*
X407173Y26405D01*
X407166Y26400D01*
X407166Y25905D01*
X407067Y25410D01*
X407073Y25397D01*
X407067Y25390D01*
X407367Y23890D01*
X407372Y23886D01*
X407369Y23882D01*
X407769Y22882D01*
X407772Y22880D01*
X407771Y22878D01*
X407971Y22478D01*
X407981Y22473D01*
X407980Y22465D01*
X408378Y22068D01*
X408676Y21670D01*
X408685Y21668D01*
X408685Y21661D01*
X409485Y21061D01*
X409492Y21061D01*
X409493Y21056D01*
X409893Y20856D01*
X409896Y20857D01*
X409897Y20854D01*
X410897Y20454D01*
X410903Y20456D01*
X410905Y20452D01*
X411905Y20252D01*
X411912Y20255D01*
X411915Y20251D01*
X437815Y20251D01*
X437821Y20255D01*
G37*
%LPC*%
G36*
X137455Y21949D02*
X137455Y21949D01*
X137078Y22327D01*
X135282Y27516D01*
X135280Y27517D01*
X135281Y27518D01*
X135081Y28018D01*
X135036Y28045D01*
X135058Y28057D01*
X135075Y28093D01*
X135084Y28100D01*
X135084Y28480D01*
X135363Y28758D01*
X135844Y28951D01*
X136310Y28951D01*
X136591Y28577D01*
X137688Y25185D01*
X137699Y25177D01*
X137702Y25164D01*
X137715Y25166D01*
X137737Y25151D01*
X137752Y25173D01*
X137779Y25178D01*
X137979Y25578D01*
X137978Y25584D01*
X137982Y25585D01*
X138877Y28470D01*
X139261Y28758D01*
X139642Y28948D01*
X140107Y28855D01*
X140391Y28477D01*
X141388Y25584D01*
X141393Y25581D01*
X141391Y25578D01*
X141591Y25178D01*
X141603Y25172D01*
X141607Y25160D01*
X141620Y25164D01*
X141644Y25152D01*
X141656Y25176D01*
X141682Y25184D01*
X142682Y28084D01*
X142680Y28089D01*
X142683Y28090D01*
X142781Y28579D01*
X143060Y28951D01*
X143426Y28951D01*
X144203Y28659D01*
X144383Y28390D01*
X144287Y27913D01*
X142490Y22619D01*
X142297Y22235D01*
X141821Y21949D01*
X141351Y21949D01*
X140974Y22232D01*
X140781Y22619D01*
X139782Y25516D01*
X139773Y25522D01*
X139772Y25532D01*
X139759Y25531D01*
X139732Y25549D01*
X139719Y25529D01*
X139694Y25527D01*
X139494Y25227D01*
X139495Y25219D01*
X139489Y25217D01*
X138490Y22520D01*
X138298Y22137D01*
X137923Y21949D01*
X137455Y21949D01*
G37*
%LPD*%
%LPC*%
G36*
X421935Y21949D02*
X421935Y21949D01*
X421558Y22327D01*
X419762Y27516D01*
X419760Y27517D01*
X419761Y27518D01*
X419561Y28018D01*
X419516Y28045D01*
X419538Y28057D01*
X419555Y28093D01*
X419564Y28100D01*
X419564Y28480D01*
X419843Y28758D01*
X420324Y28951D01*
X420790Y28951D01*
X421071Y28577D01*
X422168Y25185D01*
X422179Y25177D01*
X422182Y25164D01*
X422195Y25166D01*
X422217Y25151D01*
X422232Y25173D01*
X422259Y25178D01*
X422459Y25578D01*
X422458Y25584D01*
X422462Y25585D01*
X423357Y28470D01*
X423741Y28758D01*
X424122Y28948D01*
X424587Y28855D01*
X424871Y28477D01*
X425868Y25584D01*
X425873Y25581D01*
X425871Y25578D01*
X426071Y25178D01*
X426083Y25172D01*
X426087Y25160D01*
X426100Y25164D01*
X426124Y25152D01*
X426136Y25176D01*
X426162Y25184D01*
X427162Y28084D01*
X427160Y28089D01*
X427163Y28090D01*
X427261Y28579D01*
X427540Y28951D01*
X427906Y28951D01*
X428683Y28659D01*
X428863Y28390D01*
X428767Y27913D01*
X426970Y22619D01*
X426777Y22235D01*
X426301Y21949D01*
X425831Y21949D01*
X425454Y22232D01*
X425261Y22619D01*
X424262Y25516D01*
X424253Y25522D01*
X424252Y25532D01*
X424239Y25531D01*
X424212Y25549D01*
X424199Y25529D01*
X424174Y25527D01*
X423974Y25227D01*
X423975Y25219D01*
X423969Y25217D01*
X422970Y22520D01*
X422778Y22137D01*
X422403Y21949D01*
X421935Y21949D01*
G37*
%LPD*%
%LPC*%
G36*
X990895Y611229D02*
X990895Y611229D01*
X990518Y611607D01*
X988722Y616796D01*
X988720Y616797D01*
X988721Y616798D01*
X988521Y617298D01*
X988476Y617325D01*
X988498Y617337D01*
X988515Y617373D01*
X988524Y617380D01*
X988524Y617760D01*
X988803Y618038D01*
X989284Y618231D01*
X989750Y618231D01*
X990031Y617857D01*
X991128Y614465D01*
X991139Y614457D01*
X991142Y614444D01*
X991155Y614446D01*
X991177Y614431D01*
X991192Y614453D01*
X991219Y614458D01*
X991419Y614858D01*
X991418Y614864D01*
X991422Y614865D01*
X992317Y617750D01*
X992701Y618038D01*
X993082Y618228D01*
X993547Y618135D01*
X993831Y617757D01*
X994828Y614864D01*
X994833Y614861D01*
X994831Y614858D01*
X995031Y614458D01*
X995043Y614452D01*
X995047Y614440D01*
X995060Y614444D01*
X995084Y614432D01*
X995096Y614456D01*
X995122Y614464D01*
X996122Y617364D01*
X996120Y617369D01*
X996123Y617370D01*
X996221Y617859D01*
X996500Y618231D01*
X996866Y618231D01*
X997643Y617939D01*
X997823Y617670D01*
X997727Y617193D01*
X995930Y611899D01*
X995737Y611515D01*
X995261Y611229D01*
X994791Y611229D01*
X994414Y611512D01*
X994221Y611899D01*
X993222Y614796D01*
X993213Y614802D01*
X993212Y614812D01*
X993199Y614811D01*
X993172Y614829D01*
X993159Y614809D01*
X993134Y614807D01*
X992934Y614507D01*
X992935Y614499D01*
X992929Y614497D01*
X991930Y611800D01*
X991738Y611417D01*
X991363Y611229D01*
X990895Y611229D01*
G37*
%LPD*%
%LPC*%
G36*
X137455Y611229D02*
X137455Y611229D01*
X137078Y611607D01*
X135282Y616796D01*
X135280Y616797D01*
X135281Y616798D01*
X135081Y617298D01*
X135036Y617325D01*
X135058Y617337D01*
X135075Y617373D01*
X135084Y617380D01*
X135084Y617760D01*
X135363Y618038D01*
X135844Y618231D01*
X136310Y618231D01*
X136591Y617857D01*
X137688Y614465D01*
X137699Y614457D01*
X137702Y614444D01*
X137715Y614446D01*
X137737Y614431D01*
X137752Y614453D01*
X137779Y614458D01*
X137979Y614858D01*
X137978Y614864D01*
X137982Y614865D01*
X138877Y617750D01*
X139261Y618038D01*
X139642Y618228D01*
X140107Y618135D01*
X140391Y617757D01*
X141388Y614864D01*
X141393Y614861D01*
X141391Y614858D01*
X141591Y614458D01*
X141603Y614452D01*
X141607Y614440D01*
X141620Y614444D01*
X141644Y614432D01*
X141656Y614456D01*
X141682Y614464D01*
X142682Y617364D01*
X142680Y617369D01*
X142683Y617370D01*
X142781Y617859D01*
X143060Y618231D01*
X143426Y618231D01*
X144203Y617939D01*
X144383Y617670D01*
X144287Y617193D01*
X142490Y611899D01*
X142297Y611515D01*
X141821Y611229D01*
X141351Y611229D01*
X140974Y611512D01*
X140781Y611899D01*
X139782Y614796D01*
X139773Y614802D01*
X139772Y614812D01*
X139759Y614811D01*
X139732Y614829D01*
X139719Y614809D01*
X139694Y614807D01*
X139494Y614507D01*
X139495Y614499D01*
X139489Y614497D01*
X138490Y611800D01*
X138298Y611417D01*
X137923Y611229D01*
X137455Y611229D01*
G37*
%LPD*%
%LPC*%
G36*
X706415Y611229D02*
X706415Y611229D01*
X706038Y611607D01*
X704242Y616796D01*
X704240Y616797D01*
X704241Y616798D01*
X704041Y617298D01*
X703996Y617325D01*
X704018Y617337D01*
X704035Y617373D01*
X704044Y617380D01*
X704044Y617760D01*
X704323Y618038D01*
X704804Y618231D01*
X705270Y618231D01*
X705551Y617857D01*
X706648Y614465D01*
X706659Y614457D01*
X706662Y614444D01*
X706675Y614446D01*
X706697Y614431D01*
X706712Y614453D01*
X706739Y614458D01*
X706939Y614858D01*
X706938Y614864D01*
X706942Y614865D01*
X707837Y617750D01*
X708221Y618038D01*
X708602Y618228D01*
X709067Y618135D01*
X709351Y617757D01*
X710348Y614864D01*
X710353Y614861D01*
X710351Y614858D01*
X710551Y614458D01*
X710563Y614452D01*
X710567Y614440D01*
X710580Y614444D01*
X710604Y614432D01*
X710616Y614456D01*
X710642Y614464D01*
X711642Y617364D01*
X711640Y617369D01*
X711643Y617370D01*
X711741Y617859D01*
X712020Y618231D01*
X712386Y618231D01*
X713163Y617939D01*
X713343Y617670D01*
X713247Y617193D01*
X711450Y611899D01*
X711257Y611515D01*
X710781Y611229D01*
X710311Y611229D01*
X709934Y611512D01*
X709741Y611899D01*
X708742Y614796D01*
X708733Y614802D01*
X708732Y614812D01*
X708719Y614811D01*
X708692Y614829D01*
X708679Y614809D01*
X708654Y614807D01*
X708454Y614507D01*
X708455Y614499D01*
X708449Y614497D01*
X707450Y611800D01*
X707258Y611417D01*
X706883Y611229D01*
X706415Y611229D01*
G37*
%LPD*%
%LPC*%
G36*
X421935Y611229D02*
X421935Y611229D01*
X421558Y611607D01*
X419762Y616796D01*
X419760Y616797D01*
X419761Y616798D01*
X419561Y617298D01*
X419516Y617325D01*
X419538Y617337D01*
X419555Y617373D01*
X419564Y617380D01*
X419564Y617760D01*
X419843Y618038D01*
X420324Y618231D01*
X420790Y618231D01*
X421071Y617857D01*
X422168Y614465D01*
X422179Y614457D01*
X422182Y614444D01*
X422195Y614446D01*
X422217Y614431D01*
X422232Y614453D01*
X422259Y614458D01*
X422459Y614858D01*
X422458Y614864D01*
X422462Y614865D01*
X423357Y617750D01*
X423741Y618038D01*
X424122Y618228D01*
X424587Y618135D01*
X424871Y617757D01*
X425868Y614864D01*
X425873Y614861D01*
X425871Y614858D01*
X426071Y614458D01*
X426083Y614452D01*
X426087Y614440D01*
X426100Y614444D01*
X426124Y614432D01*
X426136Y614456D01*
X426162Y614464D01*
X427162Y617364D01*
X427160Y617369D01*
X427163Y617370D01*
X427261Y617859D01*
X427540Y618231D01*
X427906Y618231D01*
X428683Y617939D01*
X428863Y617670D01*
X428767Y617193D01*
X426970Y611899D01*
X426777Y611515D01*
X426301Y611229D01*
X425831Y611229D01*
X425454Y611512D01*
X425261Y611899D01*
X424262Y614796D01*
X424253Y614802D01*
X424252Y614812D01*
X424239Y614811D01*
X424212Y614829D01*
X424199Y614809D01*
X424174Y614807D01*
X423974Y614507D01*
X423975Y614499D01*
X423969Y614497D01*
X422970Y611800D01*
X422778Y611417D01*
X422403Y611229D01*
X421935Y611229D01*
G37*
%LPD*%
%LPC*%
G36*
X706415Y21949D02*
X706415Y21949D01*
X706038Y22327D01*
X704242Y27516D01*
X704240Y27517D01*
X704241Y27518D01*
X704041Y28018D01*
X703996Y28045D01*
X704018Y28057D01*
X704035Y28093D01*
X704044Y28100D01*
X704044Y28480D01*
X704323Y28758D01*
X704804Y28951D01*
X705270Y28951D01*
X705551Y28577D01*
X706648Y25185D01*
X706659Y25177D01*
X706662Y25164D01*
X706675Y25166D01*
X706697Y25151D01*
X706712Y25173D01*
X706739Y25178D01*
X706939Y25578D01*
X706938Y25584D01*
X706942Y25585D01*
X707837Y28470D01*
X708221Y28758D01*
X708602Y28948D01*
X709067Y28855D01*
X709351Y28477D01*
X710348Y25584D01*
X710353Y25581D01*
X710351Y25578D01*
X710551Y25178D01*
X710563Y25172D01*
X710567Y25160D01*
X710580Y25164D01*
X710604Y25152D01*
X710616Y25176D01*
X710642Y25184D01*
X711642Y28084D01*
X711640Y28089D01*
X711643Y28090D01*
X711741Y28579D01*
X712020Y28951D01*
X712386Y28951D01*
X713163Y28659D01*
X713343Y28390D01*
X713247Y27913D01*
X711450Y22619D01*
X711257Y22235D01*
X710781Y21949D01*
X710311Y21949D01*
X709934Y22232D01*
X709741Y22619D01*
X708742Y25516D01*
X708733Y25522D01*
X708732Y25532D01*
X708719Y25531D01*
X708692Y25549D01*
X708679Y25529D01*
X708654Y25527D01*
X708454Y25227D01*
X708455Y25219D01*
X708449Y25217D01*
X707450Y22520D01*
X707258Y22137D01*
X706883Y21949D01*
X706415Y21949D01*
G37*
%LPD*%
%LPC*%
G36*
X990895Y21949D02*
X990895Y21949D01*
X990518Y22327D01*
X988722Y27516D01*
X988720Y27517D01*
X988721Y27518D01*
X988521Y28018D01*
X988476Y28045D01*
X988498Y28057D01*
X988515Y28093D01*
X988524Y28100D01*
X988524Y28480D01*
X988803Y28758D01*
X989284Y28951D01*
X989750Y28951D01*
X990031Y28577D01*
X991128Y25185D01*
X991139Y25177D01*
X991142Y25164D01*
X991155Y25166D01*
X991177Y25151D01*
X991192Y25173D01*
X991219Y25178D01*
X991419Y25578D01*
X991418Y25584D01*
X991422Y25585D01*
X992317Y28470D01*
X992701Y28758D01*
X993082Y28948D01*
X993547Y28855D01*
X993831Y28477D01*
X994828Y25584D01*
X994833Y25581D01*
X994831Y25578D01*
X995031Y25178D01*
X995043Y25172D01*
X995047Y25160D01*
X995060Y25164D01*
X995084Y25152D01*
X995096Y25176D01*
X995122Y25184D01*
X996122Y28084D01*
X996120Y28089D01*
X996123Y28090D01*
X996221Y28579D01*
X996500Y28951D01*
X996866Y28951D01*
X997643Y28659D01*
X997823Y28390D01*
X997727Y27913D01*
X995930Y22619D01*
X995737Y22235D01*
X995261Y21949D01*
X994791Y21949D01*
X994414Y22232D01*
X994221Y22619D01*
X993222Y25516D01*
X993213Y25522D01*
X993212Y25532D01*
X993199Y25531D01*
X993172Y25549D01*
X993159Y25529D01*
X993134Y25527D01*
X992934Y25227D01*
X992935Y25219D01*
X992929Y25217D01*
X991930Y22520D01*
X991738Y22137D01*
X991363Y21949D01*
X990895Y21949D01*
G37*
%LPD*%
%LPC*%
G36*
X434755Y611411D02*
X434755Y611411D01*
X434260Y612599D01*
X434254Y612603D01*
X434256Y612607D01*
X433856Y613207D01*
X433823Y613219D01*
X433815Y613229D01*
X432815Y613229D01*
X432809Y613225D01*
X432807Y613225D01*
X432803Y613228D01*
X432403Y613128D01*
X432381Y613100D01*
X432368Y613090D01*
X432370Y613087D01*
X432366Y613081D01*
X432367Y613081D01*
X432366Y613080D01*
X432366Y611986D01*
X432271Y611605D01*
X431991Y611326D01*
X431416Y611230D01*
X430948Y611324D01*
X430764Y611692D01*
X430764Y616751D01*
X432366Y616439D01*
X432366Y614980D01*
X432391Y614947D01*
X432393Y614936D01*
X432593Y614836D01*
X432609Y614839D01*
X432615Y614831D01*
X433615Y614831D01*
X433621Y614835D01*
X433625Y614832D01*
X434125Y614932D01*
X434141Y614950D01*
X434154Y614950D01*
X434454Y615350D01*
X434454Y615366D01*
X434463Y615370D01*
X434563Y615870D01*
X434553Y615891D01*
X434559Y615902D01*
X434372Y616276D01*
X435321Y617604D01*
X435576Y617350D01*
X435872Y616857D01*
X436068Y616464D01*
X436166Y615975D01*
X436166Y615385D01*
X436068Y614896D01*
X435873Y614506D01*
X435576Y614110D01*
X435576Y614096D01*
X435567Y614092D01*
X435467Y613692D01*
X435476Y613671D01*
X435470Y613660D01*
X435870Y612760D01*
X435872Y612759D01*
X435871Y612758D01*
X436070Y612360D01*
X436260Y611886D01*
X436080Y611617D01*
X435593Y611324D01*
X435122Y611136D01*
X434755Y611411D01*
G37*
%LPD*%
%LPC*%
G36*
X150275Y611411D02*
X150275Y611411D01*
X149780Y612599D01*
X149774Y612603D01*
X149776Y612607D01*
X149376Y613207D01*
X149343Y613219D01*
X149335Y613229D01*
X148335Y613229D01*
X148329Y613225D01*
X148327Y613225D01*
X148323Y613228D01*
X147923Y613128D01*
X147901Y613100D01*
X147888Y613090D01*
X147890Y613087D01*
X147886Y613081D01*
X147887Y613081D01*
X147886Y613080D01*
X147886Y611986D01*
X147791Y611605D01*
X147511Y611326D01*
X146936Y611230D01*
X146468Y611324D01*
X146284Y611692D01*
X146284Y616751D01*
X147886Y616439D01*
X147886Y614980D01*
X147911Y614947D01*
X147913Y614936D01*
X148113Y614836D01*
X148129Y614839D01*
X148135Y614831D01*
X149135Y614831D01*
X149141Y614835D01*
X149145Y614832D01*
X149645Y614932D01*
X149661Y614950D01*
X149674Y614950D01*
X149974Y615350D01*
X149974Y615366D01*
X149983Y615370D01*
X150083Y615870D01*
X150073Y615891D01*
X150079Y615902D01*
X149892Y616276D01*
X150841Y617604D01*
X151096Y617350D01*
X151392Y616857D01*
X151588Y616464D01*
X151686Y615975D01*
X151686Y615385D01*
X151588Y614896D01*
X151393Y614506D01*
X151096Y614110D01*
X151096Y614096D01*
X151087Y614092D01*
X150987Y613692D01*
X150996Y613671D01*
X150990Y613660D01*
X151390Y612760D01*
X151392Y612759D01*
X151391Y612758D01*
X151590Y612360D01*
X151780Y611886D01*
X151600Y611617D01*
X151113Y611324D01*
X150642Y611136D01*
X150275Y611411D01*
G37*
%LPD*%
%LPC*%
G36*
X1003715Y611411D02*
X1003715Y611411D01*
X1003220Y612599D01*
X1003214Y612603D01*
X1003216Y612607D01*
X1002816Y613207D01*
X1002783Y613219D01*
X1002775Y613229D01*
X1001775Y613229D01*
X1001769Y613225D01*
X1001767Y613225D01*
X1001763Y613228D01*
X1001363Y613128D01*
X1001341Y613100D01*
X1001328Y613090D01*
X1001330Y613087D01*
X1001326Y613081D01*
X1001327Y613081D01*
X1001326Y613080D01*
X1001326Y611986D01*
X1001231Y611605D01*
X1000951Y611326D01*
X1000376Y611230D01*
X999908Y611324D01*
X999724Y611692D01*
X999724Y616751D01*
X1001326Y616439D01*
X1001326Y614980D01*
X1001351Y614947D01*
X1001353Y614936D01*
X1001553Y614836D01*
X1001569Y614839D01*
X1001575Y614831D01*
X1002575Y614831D01*
X1002581Y614835D01*
X1002585Y614832D01*
X1003085Y614932D01*
X1003101Y614950D01*
X1003114Y614950D01*
X1003414Y615350D01*
X1003414Y615366D01*
X1003423Y615370D01*
X1003523Y615870D01*
X1003513Y615891D01*
X1003519Y615902D01*
X1003332Y616276D01*
X1004281Y617604D01*
X1004536Y617350D01*
X1004832Y616857D01*
X1005028Y616464D01*
X1005126Y615975D01*
X1005126Y615385D01*
X1005028Y614896D01*
X1004833Y614506D01*
X1004536Y614110D01*
X1004536Y614096D01*
X1004527Y614092D01*
X1004427Y613692D01*
X1004436Y613671D01*
X1004430Y613660D01*
X1004830Y612760D01*
X1004832Y612759D01*
X1004831Y612758D01*
X1005030Y612360D01*
X1005220Y611886D01*
X1005040Y611617D01*
X1004553Y611324D01*
X1004082Y611136D01*
X1003715Y611411D01*
G37*
%LPD*%
%LPC*%
G36*
X719235Y611411D02*
X719235Y611411D01*
X718740Y612599D01*
X718734Y612603D01*
X718736Y612607D01*
X718336Y613207D01*
X718303Y613219D01*
X718295Y613229D01*
X717295Y613229D01*
X717289Y613225D01*
X717287Y613225D01*
X717283Y613228D01*
X716883Y613128D01*
X716861Y613100D01*
X716848Y613090D01*
X716850Y613087D01*
X716846Y613081D01*
X716847Y613081D01*
X716846Y613080D01*
X716846Y611986D01*
X716751Y611605D01*
X716471Y611326D01*
X715896Y611230D01*
X715428Y611324D01*
X715244Y611692D01*
X715244Y616751D01*
X716846Y616439D01*
X716846Y614980D01*
X716871Y614947D01*
X716873Y614936D01*
X717073Y614836D01*
X717089Y614839D01*
X717095Y614831D01*
X718095Y614831D01*
X718101Y614835D01*
X718105Y614832D01*
X718605Y614932D01*
X718621Y614950D01*
X718634Y614950D01*
X718934Y615350D01*
X718934Y615366D01*
X718943Y615370D01*
X719043Y615870D01*
X719033Y615891D01*
X719039Y615902D01*
X718852Y616276D01*
X719801Y617604D01*
X720056Y617350D01*
X720352Y616857D01*
X720548Y616464D01*
X720646Y615975D01*
X720646Y615385D01*
X720548Y614896D01*
X720353Y614506D01*
X720056Y614110D01*
X720056Y614096D01*
X720047Y614092D01*
X719947Y613692D01*
X719956Y613671D01*
X719950Y613660D01*
X720350Y612760D01*
X720352Y612759D01*
X720351Y612758D01*
X720550Y612360D01*
X720740Y611886D01*
X720560Y611617D01*
X720073Y611324D01*
X719602Y611136D01*
X719235Y611411D01*
G37*
%LPD*%
%LPC*%
G36*
X434755Y22131D02*
X434755Y22131D01*
X434260Y23319D01*
X434254Y23323D01*
X434256Y23327D01*
X433856Y23927D01*
X433823Y23939D01*
X433815Y23949D01*
X432815Y23949D01*
X432809Y23945D01*
X432807Y23945D01*
X432803Y23948D01*
X432403Y23848D01*
X432381Y23820D01*
X432368Y23810D01*
X432370Y23807D01*
X432366Y23801D01*
X432367Y23801D01*
X432366Y23800D01*
X432366Y22706D01*
X432271Y22325D01*
X431991Y22046D01*
X431416Y21950D01*
X430948Y22044D01*
X430764Y22412D01*
X430764Y27471D01*
X432366Y27159D01*
X432366Y25700D01*
X432391Y25667D01*
X432393Y25656D01*
X432593Y25556D01*
X432609Y25559D01*
X432615Y25551D01*
X433615Y25551D01*
X433621Y25555D01*
X433625Y25552D01*
X434125Y25652D01*
X434141Y25670D01*
X434154Y25670D01*
X434454Y26070D01*
X434454Y26086D01*
X434463Y26090D01*
X434563Y26590D01*
X434553Y26611D01*
X434559Y26622D01*
X434372Y26996D01*
X435321Y28324D01*
X435576Y28070D01*
X435872Y27577D01*
X436068Y27184D01*
X436166Y26695D01*
X436166Y26105D01*
X436068Y25616D01*
X435873Y25226D01*
X435576Y24830D01*
X435576Y24816D01*
X435567Y24812D01*
X435467Y24412D01*
X435476Y24391D01*
X435470Y24380D01*
X435870Y23480D01*
X435872Y23479D01*
X435871Y23478D01*
X436070Y23080D01*
X436260Y22606D01*
X436080Y22337D01*
X435593Y22044D01*
X435122Y21856D01*
X434755Y22131D01*
G37*
%LPD*%
%LPC*%
G36*
X150275Y22131D02*
X150275Y22131D01*
X149780Y23319D01*
X149774Y23323D01*
X149776Y23327D01*
X149376Y23927D01*
X149343Y23939D01*
X149335Y23949D01*
X148335Y23949D01*
X148329Y23945D01*
X148327Y23945D01*
X148323Y23948D01*
X147923Y23848D01*
X147901Y23820D01*
X147888Y23810D01*
X147890Y23807D01*
X147886Y23801D01*
X147887Y23801D01*
X147886Y23800D01*
X147886Y22706D01*
X147791Y22325D01*
X147511Y22046D01*
X146936Y21950D01*
X146468Y22044D01*
X146284Y22412D01*
X146284Y27471D01*
X147886Y27159D01*
X147886Y25700D01*
X147911Y25667D01*
X147913Y25656D01*
X148113Y25556D01*
X148129Y25559D01*
X148135Y25551D01*
X149135Y25551D01*
X149141Y25555D01*
X149145Y25552D01*
X149645Y25652D01*
X149661Y25670D01*
X149674Y25670D01*
X149974Y26070D01*
X149974Y26086D01*
X149983Y26090D01*
X150083Y26590D01*
X150073Y26611D01*
X150079Y26622D01*
X149892Y26996D01*
X150841Y28324D01*
X151096Y28070D01*
X151392Y27577D01*
X151588Y27184D01*
X151686Y26695D01*
X151686Y26105D01*
X151588Y25616D01*
X151393Y25226D01*
X151096Y24830D01*
X151096Y24816D01*
X151087Y24812D01*
X150987Y24412D01*
X150996Y24391D01*
X150990Y24380D01*
X151390Y23480D01*
X151392Y23479D01*
X151391Y23478D01*
X151590Y23080D01*
X151780Y22606D01*
X151600Y22337D01*
X151113Y22044D01*
X150642Y21856D01*
X150275Y22131D01*
G37*
%LPD*%
%LPC*%
G36*
X719235Y22131D02*
X719235Y22131D01*
X718740Y23319D01*
X718734Y23323D01*
X718736Y23327D01*
X718336Y23927D01*
X718303Y23939D01*
X718295Y23949D01*
X717295Y23949D01*
X717289Y23945D01*
X717287Y23945D01*
X717283Y23948D01*
X716883Y23848D01*
X716861Y23820D01*
X716848Y23810D01*
X716850Y23807D01*
X716846Y23801D01*
X716847Y23801D01*
X716846Y23800D01*
X716846Y22706D01*
X716751Y22325D01*
X716471Y22046D01*
X715896Y21950D01*
X715428Y22044D01*
X715244Y22412D01*
X715244Y27471D01*
X716846Y27159D01*
X716846Y25700D01*
X716871Y25667D01*
X716873Y25656D01*
X717073Y25556D01*
X717089Y25559D01*
X717095Y25551D01*
X718095Y25551D01*
X718101Y25555D01*
X718105Y25552D01*
X718605Y25652D01*
X718621Y25670D01*
X718634Y25670D01*
X718934Y26070D01*
X718934Y26086D01*
X718943Y26090D01*
X719043Y26590D01*
X719033Y26611D01*
X719039Y26622D01*
X718852Y26996D01*
X719801Y28324D01*
X720056Y28070D01*
X720352Y27577D01*
X720548Y27184D01*
X720646Y26695D01*
X720646Y26105D01*
X720548Y25616D01*
X720353Y25226D01*
X720056Y24830D01*
X720056Y24816D01*
X720047Y24812D01*
X719947Y24412D01*
X719956Y24391D01*
X719950Y24380D01*
X720350Y23480D01*
X720352Y23479D01*
X720351Y23478D01*
X720550Y23080D01*
X720740Y22606D01*
X720560Y22337D01*
X720073Y22044D01*
X719602Y21856D01*
X719235Y22131D01*
G37*
%LPD*%
%LPC*%
G36*
X1003715Y22131D02*
X1003715Y22131D01*
X1003220Y23319D01*
X1003214Y23323D01*
X1003216Y23327D01*
X1002816Y23927D01*
X1002783Y23939D01*
X1002775Y23949D01*
X1001775Y23949D01*
X1001769Y23945D01*
X1001767Y23945D01*
X1001763Y23948D01*
X1001363Y23848D01*
X1001341Y23820D01*
X1001328Y23810D01*
X1001330Y23807D01*
X1001326Y23801D01*
X1001327Y23801D01*
X1001326Y23800D01*
X1001326Y22706D01*
X1001231Y22325D01*
X1000951Y22046D01*
X1000376Y21950D01*
X999908Y22044D01*
X999724Y22412D01*
X999724Y27471D01*
X1001326Y27159D01*
X1001326Y25700D01*
X1001351Y25667D01*
X1001353Y25656D01*
X1001553Y25556D01*
X1001569Y25559D01*
X1001575Y25551D01*
X1002575Y25551D01*
X1002581Y25555D01*
X1002585Y25552D01*
X1003085Y25652D01*
X1003101Y25670D01*
X1003114Y25670D01*
X1003414Y26070D01*
X1003414Y26086D01*
X1003423Y26090D01*
X1003523Y26590D01*
X1003513Y26611D01*
X1003519Y26622D01*
X1003332Y26996D01*
X1004281Y28324D01*
X1004536Y28070D01*
X1004832Y27577D01*
X1005028Y27184D01*
X1005126Y26695D01*
X1005126Y26105D01*
X1005028Y25616D01*
X1004833Y25226D01*
X1004536Y24830D01*
X1004536Y24816D01*
X1004527Y24812D01*
X1004427Y24412D01*
X1004436Y24391D01*
X1004430Y24380D01*
X1004830Y23480D01*
X1004832Y23479D01*
X1004831Y23478D01*
X1005030Y23080D01*
X1005220Y22606D01*
X1005040Y22337D01*
X1004553Y22044D01*
X1004082Y21856D01*
X1003715Y22131D01*
G37*
%LPD*%
%LPC*%
G36*
X697515Y21949D02*
X697515Y21949D01*
X697239Y22225D01*
X697144Y22606D01*
X697144Y28195D01*
X697240Y28676D01*
X697515Y28951D01*
X697669Y28951D01*
X698846Y27185D01*
X698846Y25700D01*
X698878Y25657D01*
X698879Y25653D01*
X699179Y25553D01*
X699190Y25557D01*
X699195Y25551D01*
X700295Y25551D01*
X700308Y25560D01*
X700317Y25556D01*
X700476Y25636D01*
X701323Y24224D01*
X700880Y24047D01*
X700484Y23948D01*
X699990Y23849D01*
X698995Y23849D01*
X698948Y23813D01*
X698948Y23812D01*
X698947Y23812D01*
X698847Y23412D01*
X698851Y23404D01*
X698846Y23400D01*
X698846Y22905D01*
X698747Y22411D01*
X698655Y22042D01*
X698190Y21949D01*
X697515Y21949D01*
G37*
%LPD*%
%LPC*%
G36*
X981995Y611229D02*
X981995Y611229D01*
X981719Y611505D01*
X981624Y611886D01*
X981624Y617475D01*
X981720Y617956D01*
X981995Y618231D01*
X982149Y618231D01*
X983326Y616465D01*
X983326Y614980D01*
X983358Y614937D01*
X983359Y614933D01*
X983659Y614833D01*
X983670Y614837D01*
X983675Y614831D01*
X984775Y614831D01*
X984788Y614840D01*
X984797Y614836D01*
X984956Y614916D01*
X985803Y613504D01*
X985360Y613327D01*
X984964Y613228D01*
X984470Y613129D01*
X983475Y613129D01*
X983428Y613093D01*
X983428Y613092D01*
X983427Y613092D01*
X983327Y612692D01*
X983331Y612684D01*
X983326Y612680D01*
X983326Y612185D01*
X983227Y611691D01*
X983135Y611322D01*
X982670Y611229D01*
X981995Y611229D01*
G37*
%LPD*%
%LPC*%
G36*
X413035Y611229D02*
X413035Y611229D01*
X412759Y611505D01*
X412664Y611886D01*
X412664Y617475D01*
X412760Y617956D01*
X413035Y618231D01*
X413189Y618231D01*
X414366Y616465D01*
X414366Y614980D01*
X414398Y614937D01*
X414399Y614933D01*
X414699Y614833D01*
X414710Y614837D01*
X414715Y614831D01*
X415815Y614831D01*
X415828Y614840D01*
X415837Y614836D01*
X415996Y614916D01*
X416843Y613504D01*
X416400Y613327D01*
X416004Y613228D01*
X415510Y613129D01*
X414515Y613129D01*
X414468Y613093D01*
X414468Y613092D01*
X414467Y613092D01*
X414367Y612692D01*
X414371Y612684D01*
X414366Y612680D01*
X414366Y612185D01*
X414267Y611691D01*
X414175Y611322D01*
X413710Y611229D01*
X413035Y611229D01*
G37*
%LPD*%
%LPC*%
G36*
X128555Y611229D02*
X128555Y611229D01*
X128279Y611505D01*
X128184Y611886D01*
X128184Y617475D01*
X128280Y617956D01*
X128555Y618231D01*
X128709Y618231D01*
X129886Y616465D01*
X129886Y614980D01*
X129918Y614937D01*
X129919Y614933D01*
X130219Y614833D01*
X130230Y614837D01*
X130235Y614831D01*
X131335Y614831D01*
X131348Y614840D01*
X131357Y614836D01*
X131516Y614916D01*
X132363Y613504D01*
X131920Y613327D01*
X131524Y613228D01*
X131030Y613129D01*
X130035Y613129D01*
X129988Y613093D01*
X129988Y613092D01*
X129987Y613092D01*
X129887Y612692D01*
X129891Y612684D01*
X129886Y612680D01*
X129886Y612185D01*
X129787Y611691D01*
X129695Y611322D01*
X129230Y611229D01*
X128555Y611229D01*
G37*
%LPD*%
%LPC*%
G36*
X697515Y611229D02*
X697515Y611229D01*
X697239Y611505D01*
X697144Y611886D01*
X697144Y617475D01*
X697240Y617956D01*
X697515Y618231D01*
X697669Y618231D01*
X698846Y616465D01*
X698846Y614980D01*
X698878Y614937D01*
X698879Y614933D01*
X699179Y614833D01*
X699190Y614837D01*
X699195Y614831D01*
X700295Y614831D01*
X700308Y614840D01*
X700317Y614836D01*
X700476Y614916D01*
X701323Y613504D01*
X700880Y613327D01*
X700484Y613228D01*
X699990Y613129D01*
X698995Y613129D01*
X698948Y613093D01*
X698948Y613092D01*
X698947Y613092D01*
X698847Y612692D01*
X698851Y612684D01*
X698846Y612680D01*
X698846Y612185D01*
X698747Y611691D01*
X698655Y611322D01*
X698190Y611229D01*
X697515Y611229D01*
G37*
%LPD*%
%LPC*%
G36*
X981995Y21949D02*
X981995Y21949D01*
X981719Y22225D01*
X981624Y22606D01*
X981624Y28195D01*
X981720Y28676D01*
X981995Y28951D01*
X982149Y28951D01*
X983326Y27185D01*
X983326Y25700D01*
X983358Y25657D01*
X983359Y25653D01*
X983659Y25553D01*
X983670Y25557D01*
X983675Y25551D01*
X984775Y25551D01*
X984788Y25560D01*
X984797Y25556D01*
X984956Y25636D01*
X985803Y24224D01*
X985360Y24047D01*
X984964Y23948D01*
X984470Y23849D01*
X983475Y23849D01*
X983428Y23813D01*
X983428Y23812D01*
X983427Y23812D01*
X983327Y23412D01*
X983331Y23404D01*
X983326Y23400D01*
X983326Y22905D01*
X983227Y22411D01*
X983135Y22042D01*
X982670Y21949D01*
X981995Y21949D01*
G37*
%LPD*%
%LPC*%
G36*
X413035Y21949D02*
X413035Y21949D01*
X412759Y22225D01*
X412664Y22606D01*
X412664Y28195D01*
X412760Y28676D01*
X413035Y28951D01*
X413189Y28951D01*
X414366Y27185D01*
X414366Y25700D01*
X414398Y25657D01*
X414399Y25653D01*
X414699Y25553D01*
X414710Y25557D01*
X414715Y25551D01*
X415815Y25551D01*
X415828Y25560D01*
X415837Y25556D01*
X415996Y25636D01*
X416843Y24224D01*
X416400Y24047D01*
X416004Y23948D01*
X415510Y23849D01*
X414515Y23849D01*
X414468Y23813D01*
X414468Y23812D01*
X414467Y23812D01*
X414367Y23412D01*
X414371Y23404D01*
X414366Y23400D01*
X414366Y22905D01*
X414267Y22411D01*
X414175Y22042D01*
X413710Y21949D01*
X413035Y21949D01*
G37*
%LPD*%
%LPC*%
G36*
X128555Y21949D02*
X128555Y21949D01*
X128279Y22225D01*
X128184Y22606D01*
X128184Y28195D01*
X128280Y28676D01*
X128555Y28951D01*
X128709Y28951D01*
X129886Y27185D01*
X129886Y25700D01*
X129918Y25657D01*
X129919Y25653D01*
X130219Y25553D01*
X130230Y25557D01*
X130235Y25551D01*
X131335Y25551D01*
X131348Y25560D01*
X131357Y25556D01*
X131516Y25636D01*
X132363Y24224D01*
X131920Y24047D01*
X131524Y23948D01*
X131030Y23849D01*
X130035Y23849D01*
X129988Y23813D01*
X129988Y23812D01*
X129987Y23812D01*
X129887Y23412D01*
X129891Y23404D01*
X129886Y23400D01*
X129886Y22905D01*
X129787Y22411D01*
X129695Y22042D01*
X129230Y21949D01*
X128555Y21949D01*
G37*
%LPD*%
%LPC*%
G36*
X131600Y614967D02*
X131600Y614967D01*
X131965Y615241D01*
X131974Y615272D01*
X131984Y615280D01*
X131984Y615780D01*
X131976Y615791D01*
X131981Y615798D01*
X131781Y616298D01*
X131759Y616311D01*
X131757Y616324D01*
X131357Y616524D01*
X131348Y616522D01*
X131345Y616528D01*
X130845Y616628D01*
X130838Y616625D01*
X130835Y616629D01*
X130335Y616629D01*
X130328Y616624D01*
X130323Y616628D01*
X129957Y616536D01*
X128827Y618231D01*
X131229Y618231D01*
X131623Y618132D01*
X131625Y618133D01*
X131625Y618132D01*
X132117Y618033D01*
X132607Y617739D01*
X133000Y617445D01*
X133292Y617056D01*
X133489Y616562D01*
X133686Y616071D01*
X133686Y615585D01*
X133588Y615094D01*
X133390Y614600D01*
X133194Y614209D01*
X132803Y613817D01*
X132449Y613552D01*
X131600Y614967D01*
G37*
%LPD*%
%LPC*%
G36*
X985040Y614967D02*
X985040Y614967D01*
X985405Y615241D01*
X985414Y615272D01*
X985424Y615280D01*
X985424Y615780D01*
X985416Y615791D01*
X985421Y615798D01*
X985221Y616298D01*
X985199Y616311D01*
X985197Y616324D01*
X984797Y616524D01*
X984788Y616522D01*
X984785Y616528D01*
X984285Y616628D01*
X984278Y616625D01*
X984275Y616629D01*
X983775Y616629D01*
X983768Y616624D01*
X983763Y616628D01*
X983397Y616536D01*
X982267Y618231D01*
X984669Y618231D01*
X985063Y618132D01*
X985065Y618133D01*
X985065Y618132D01*
X985557Y618033D01*
X986047Y617739D01*
X986440Y617445D01*
X986732Y617056D01*
X986929Y616562D01*
X987126Y616071D01*
X987126Y615585D01*
X987028Y615094D01*
X986830Y614600D01*
X986634Y614209D01*
X986243Y613817D01*
X985889Y613552D01*
X985040Y614967D01*
G37*
%LPD*%
%LPC*%
G36*
X416080Y614967D02*
X416080Y614967D01*
X416445Y615241D01*
X416454Y615272D01*
X416464Y615280D01*
X416464Y615780D01*
X416456Y615791D01*
X416461Y615798D01*
X416261Y616298D01*
X416239Y616311D01*
X416237Y616324D01*
X415837Y616524D01*
X415828Y616522D01*
X415825Y616528D01*
X415325Y616628D01*
X415318Y616625D01*
X415315Y616629D01*
X414815Y616629D01*
X414808Y616624D01*
X414803Y616628D01*
X414437Y616536D01*
X413307Y618231D01*
X415709Y618231D01*
X416103Y618132D01*
X416105Y618133D01*
X416105Y618132D01*
X416597Y618033D01*
X417087Y617739D01*
X417480Y617445D01*
X417772Y617056D01*
X417969Y616562D01*
X418166Y616071D01*
X418166Y615585D01*
X418068Y615094D01*
X417870Y614600D01*
X417674Y614209D01*
X417283Y613817D01*
X416929Y613552D01*
X416080Y614967D01*
G37*
%LPD*%
%LPC*%
G36*
X700560Y614967D02*
X700560Y614967D01*
X700925Y615241D01*
X700934Y615272D01*
X700944Y615280D01*
X700944Y615780D01*
X700936Y615791D01*
X700941Y615798D01*
X700741Y616298D01*
X700719Y616311D01*
X700717Y616324D01*
X700317Y616524D01*
X700308Y616522D01*
X700305Y616528D01*
X699805Y616628D01*
X699798Y616625D01*
X699795Y616629D01*
X699295Y616629D01*
X699288Y616624D01*
X699283Y616628D01*
X698917Y616536D01*
X697787Y618231D01*
X700189Y618231D01*
X700583Y618132D01*
X700585Y618133D01*
X700585Y618132D01*
X701077Y618033D01*
X701567Y617739D01*
X701960Y617445D01*
X702252Y617056D01*
X702449Y616562D01*
X702646Y616071D01*
X702646Y615585D01*
X702548Y615094D01*
X702350Y614600D01*
X702154Y614209D01*
X701763Y613817D01*
X701409Y613552D01*
X700560Y614967D01*
G37*
%LPD*%
%LPC*%
G36*
X700560Y25687D02*
X700560Y25687D01*
X700925Y25961D01*
X700934Y25992D01*
X700944Y26000D01*
X700944Y26500D01*
X700936Y26511D01*
X700941Y26518D01*
X700741Y27018D01*
X700719Y27031D01*
X700717Y27044D01*
X700317Y27244D01*
X700308Y27242D01*
X700305Y27248D01*
X699805Y27348D01*
X699798Y27345D01*
X699795Y27349D01*
X699295Y27349D01*
X699288Y27344D01*
X699283Y27348D01*
X698917Y27256D01*
X697787Y28951D01*
X700189Y28951D01*
X700583Y28852D01*
X700585Y28853D01*
X700585Y28852D01*
X701077Y28753D01*
X701567Y28459D01*
X701960Y28165D01*
X702252Y27776D01*
X702449Y27282D01*
X702646Y26791D01*
X702646Y26305D01*
X702548Y25814D01*
X702350Y25320D01*
X702154Y24929D01*
X701763Y24537D01*
X701409Y24272D01*
X700560Y25687D01*
G37*
%LPD*%
%LPC*%
G36*
X131600Y25687D02*
X131600Y25687D01*
X131965Y25961D01*
X131974Y25992D01*
X131984Y26000D01*
X131984Y26500D01*
X131976Y26511D01*
X131981Y26518D01*
X131781Y27018D01*
X131759Y27031D01*
X131757Y27044D01*
X131357Y27244D01*
X131348Y27242D01*
X131345Y27248D01*
X130845Y27348D01*
X130838Y27345D01*
X130835Y27349D01*
X130335Y27349D01*
X130328Y27344D01*
X130323Y27348D01*
X129957Y27256D01*
X128827Y28951D01*
X131229Y28951D01*
X131623Y28852D01*
X131625Y28853D01*
X131625Y28852D01*
X132117Y28753D01*
X132607Y28459D01*
X133000Y28165D01*
X133292Y27776D01*
X133489Y27282D01*
X133686Y26791D01*
X133686Y26305D01*
X133588Y25814D01*
X133390Y25320D01*
X133194Y24929D01*
X132803Y24537D01*
X132449Y24272D01*
X131600Y25687D01*
G37*
%LPD*%
%LPC*%
G36*
X416080Y25687D02*
X416080Y25687D01*
X416445Y25961D01*
X416454Y25992D01*
X416464Y26000D01*
X416464Y26500D01*
X416456Y26511D01*
X416461Y26518D01*
X416261Y27018D01*
X416239Y27031D01*
X416237Y27044D01*
X415837Y27244D01*
X415828Y27242D01*
X415825Y27248D01*
X415325Y27348D01*
X415318Y27345D01*
X415315Y27349D01*
X414815Y27349D01*
X414808Y27344D01*
X414803Y27348D01*
X414437Y27256D01*
X413307Y28951D01*
X415709Y28951D01*
X416103Y28852D01*
X416105Y28853D01*
X416105Y28852D01*
X416597Y28753D01*
X417087Y28459D01*
X417480Y28165D01*
X417772Y27776D01*
X417969Y27282D01*
X418166Y26791D01*
X418166Y26305D01*
X418068Y25814D01*
X417870Y25320D01*
X417674Y24929D01*
X417283Y24537D01*
X416929Y24272D01*
X416080Y25687D01*
G37*
%LPD*%
%LPC*%
G36*
X985040Y25687D02*
X985040Y25687D01*
X985405Y25961D01*
X985414Y25992D01*
X985424Y26000D01*
X985424Y26500D01*
X985416Y26511D01*
X985421Y26518D01*
X985221Y27018D01*
X985199Y27031D01*
X985197Y27044D01*
X984797Y27244D01*
X984788Y27242D01*
X984785Y27248D01*
X984285Y27348D01*
X984278Y27345D01*
X984275Y27349D01*
X983775Y27349D01*
X983768Y27344D01*
X983763Y27348D01*
X983397Y27256D01*
X982267Y28951D01*
X984669Y28951D01*
X985063Y28852D01*
X985065Y28853D01*
X985065Y28852D01*
X985557Y28753D01*
X986047Y28459D01*
X986440Y28165D01*
X986732Y27776D01*
X986929Y27282D01*
X987126Y26791D01*
X987126Y26305D01*
X987028Y25814D01*
X986830Y25320D01*
X986634Y24929D01*
X986243Y24537D01*
X985889Y24272D01*
X985040Y25687D01*
G37*
%LPD*%
%LPC*%
G36*
X718320Y616622D02*
X718320Y616622D01*
X718307Y616621D01*
X718306Y616623D01*
X718300Y616623D01*
X718295Y616629D01*
X716899Y616629D01*
X715244Y616905D01*
X715244Y617774D01*
X715335Y618138D01*
X715801Y618231D01*
X717891Y618331D01*
X718385Y618232D01*
X718879Y618133D01*
X719272Y617937D01*
X719724Y617665D01*
X718781Y616346D01*
X718320Y616622D01*
G37*
%LPD*%
%LPC*%
G36*
X1002800Y616622D02*
X1002800Y616622D01*
X1002787Y616621D01*
X1002786Y616623D01*
X1002780Y616623D01*
X1002775Y616629D01*
X1001379Y616629D01*
X999724Y616905D01*
X999724Y617774D01*
X999815Y618138D01*
X1000281Y618231D01*
X1002371Y618331D01*
X1002865Y618232D01*
X1003359Y618133D01*
X1003752Y617937D01*
X1004204Y617665D01*
X1003261Y616346D01*
X1002800Y616622D01*
G37*
%LPD*%
%LPC*%
G36*
X433840Y616622D02*
X433840Y616622D01*
X433827Y616621D01*
X433826Y616623D01*
X433820Y616623D01*
X433815Y616629D01*
X432419Y616629D01*
X430764Y616905D01*
X430764Y617774D01*
X430855Y618138D01*
X431321Y618231D01*
X433411Y618331D01*
X433905Y618232D01*
X434399Y618133D01*
X434792Y617937D01*
X435244Y617665D01*
X434301Y616346D01*
X433840Y616622D01*
G37*
%LPD*%
%LPC*%
G36*
X433840Y27342D02*
X433840Y27342D01*
X433827Y27341D01*
X433826Y27343D01*
X433820Y27343D01*
X433815Y27349D01*
X432419Y27349D01*
X430764Y27625D01*
X430764Y28494D01*
X430855Y28858D01*
X431321Y28951D01*
X433411Y29051D01*
X433905Y28952D01*
X434399Y28853D01*
X434792Y28657D01*
X435244Y28385D01*
X434301Y27066D01*
X433840Y27342D01*
G37*
%LPD*%
%LPC*%
G36*
X718320Y27342D02*
X718320Y27342D01*
X718307Y27341D01*
X718306Y27343D01*
X718300Y27343D01*
X718295Y27349D01*
X716899Y27349D01*
X715244Y27625D01*
X715244Y28494D01*
X715335Y28858D01*
X715801Y28951D01*
X717891Y29051D01*
X718385Y28952D01*
X718879Y28853D01*
X719272Y28657D01*
X719724Y28385D01*
X718781Y27066D01*
X718320Y27342D01*
G37*
%LPD*%
%LPC*%
G36*
X1002800Y27342D02*
X1002800Y27342D01*
X1002787Y27341D01*
X1002786Y27343D01*
X1002780Y27343D01*
X1002775Y27349D01*
X1001379Y27349D01*
X999724Y27625D01*
X999724Y28494D01*
X999815Y28858D01*
X1000281Y28951D01*
X1002371Y29051D01*
X1002865Y28952D01*
X1003359Y28853D01*
X1003752Y28657D01*
X1004204Y28385D01*
X1003261Y27066D01*
X1002800Y27342D01*
G37*
%LPD*%
%LPC*%
G36*
X149360Y616622D02*
X149360Y616622D01*
X149347Y616621D01*
X149346Y616623D01*
X149340Y616623D01*
X149335Y616629D01*
X147939Y616629D01*
X146284Y616905D01*
X146284Y617774D01*
X146375Y618138D01*
X146841Y618231D01*
X148931Y618331D01*
X149425Y618232D01*
X149919Y618133D01*
X150312Y617937D01*
X150764Y617665D01*
X149821Y616346D01*
X149360Y616622D01*
G37*
%LPD*%
%LPC*%
G36*
X149360Y27342D02*
X149360Y27342D01*
X149347Y27341D01*
X149346Y27343D01*
X149340Y27343D01*
X149335Y27349D01*
X147939Y27349D01*
X146284Y27625D01*
X146284Y28494D01*
X146375Y28858D01*
X146841Y28951D01*
X148931Y29051D01*
X149425Y28952D01*
X149919Y28853D01*
X150312Y28657D01*
X150764Y28385D01*
X149821Y27066D01*
X149360Y27342D01*
G37*
%LPD*%
D10*
X123825Y7938D02*
X123825Y17463D01*
D11*
X38100Y393700D02*
X38100Y406400D01*
X241300Y406400D01*
X241300Y393700D01*
X241300Y88900D02*
X241300Y76200D01*
X38100Y76200D01*
X38100Y88900D01*
D12*
X22860Y400050D02*
X22862Y400150D01*
X22868Y400251D01*
X22878Y400350D01*
X22892Y400450D01*
X22909Y400549D01*
X22931Y400647D01*
X22957Y400744D01*
X22986Y400840D01*
X23019Y400934D01*
X23056Y401028D01*
X23096Y401120D01*
X23140Y401210D01*
X23188Y401298D01*
X23239Y401385D01*
X23293Y401469D01*
X23351Y401551D01*
X23412Y401631D01*
X23476Y401708D01*
X23543Y401783D01*
X23613Y401855D01*
X23686Y401924D01*
X23761Y401990D01*
X23839Y402054D01*
X23919Y402114D01*
X24002Y402171D01*
X24087Y402224D01*
X24174Y402274D01*
X24263Y402321D01*
X24353Y402364D01*
X24445Y402404D01*
X24539Y402440D01*
X24634Y402472D01*
X24730Y402500D01*
X24828Y402525D01*
X24926Y402545D01*
X25025Y402562D01*
X25125Y402575D01*
X25224Y402584D01*
X25325Y402589D01*
X25425Y402590D01*
X25525Y402587D01*
X25626Y402580D01*
X25725Y402569D01*
X25825Y402554D01*
X25923Y402536D01*
X26021Y402513D01*
X26118Y402486D01*
X26213Y402456D01*
X26308Y402422D01*
X26401Y402384D01*
X26492Y402343D01*
X26582Y402298D01*
X26670Y402250D01*
X26756Y402198D01*
X26840Y402143D01*
X26921Y402084D01*
X27000Y402022D01*
X27077Y401958D01*
X27151Y401890D01*
X27222Y401819D01*
X27291Y401746D01*
X27356Y401670D01*
X27419Y401591D01*
X27478Y401510D01*
X27534Y401427D01*
X27587Y401342D01*
X27636Y401254D01*
X27682Y401165D01*
X27724Y401074D01*
X27763Y400981D01*
X27798Y400887D01*
X27829Y400792D01*
X27857Y400695D01*
X27880Y400598D01*
X27900Y400499D01*
X27916Y400400D01*
X27928Y400301D01*
X27936Y400200D01*
X27940Y400100D01*
X27940Y400000D01*
X27936Y399900D01*
X27928Y399799D01*
X27916Y399700D01*
X27900Y399601D01*
X27880Y399502D01*
X27857Y399405D01*
X27829Y399308D01*
X27798Y399213D01*
X27763Y399119D01*
X27724Y399026D01*
X27682Y398935D01*
X27636Y398846D01*
X27587Y398758D01*
X27534Y398673D01*
X27478Y398590D01*
X27419Y398509D01*
X27356Y398430D01*
X27291Y398354D01*
X27222Y398281D01*
X27151Y398210D01*
X27077Y398142D01*
X27000Y398078D01*
X26921Y398016D01*
X26840Y397957D01*
X26756Y397902D01*
X26670Y397850D01*
X26582Y397802D01*
X26492Y397757D01*
X26401Y397716D01*
X26308Y397678D01*
X26213Y397644D01*
X26118Y397614D01*
X26021Y397587D01*
X25923Y397564D01*
X25825Y397546D01*
X25725Y397531D01*
X25626Y397520D01*
X25525Y397513D01*
X25425Y397510D01*
X25325Y397511D01*
X25224Y397516D01*
X25125Y397525D01*
X25025Y397538D01*
X24926Y397555D01*
X24828Y397575D01*
X24730Y397600D01*
X24634Y397628D01*
X24539Y397660D01*
X24445Y397696D01*
X24353Y397736D01*
X24263Y397779D01*
X24174Y397826D01*
X24087Y397876D01*
X24002Y397929D01*
X23919Y397986D01*
X23839Y398046D01*
X23761Y398110D01*
X23686Y398176D01*
X23613Y398245D01*
X23543Y398317D01*
X23476Y398392D01*
X23412Y398469D01*
X23351Y398549D01*
X23293Y398631D01*
X23239Y398715D01*
X23188Y398802D01*
X23140Y398890D01*
X23096Y398980D01*
X23056Y399072D01*
X23019Y399166D01*
X22986Y399260D01*
X22957Y399356D01*
X22931Y399453D01*
X22909Y399551D01*
X22892Y399650D01*
X22878Y399750D01*
X22868Y399849D01*
X22862Y399950D01*
X22860Y400050D01*
D13*
X156210Y64262D03*
D10*
X162076Y35560D02*
X170664Y35560D01*
X170664Y60960D02*
X162076Y60960D01*
X173458Y50944D02*
X173458Y45576D01*
X128170Y65960D02*
X115670Y65960D01*
X128170Y57260D02*
X128170Y39260D01*
X115670Y39260D02*
X115670Y57260D01*
X85710Y40260D02*
X85710Y34260D01*
X93710Y34260D01*
X85710Y56260D02*
X85710Y62260D01*
X93710Y62260D01*
X408305Y17463D02*
X408305Y7938D01*
D11*
X322580Y393700D02*
X322580Y406400D01*
X525780Y406400D01*
X525780Y393700D01*
X525780Y88900D02*
X525780Y76200D01*
X322580Y76200D01*
X322580Y88900D01*
D12*
X307340Y400050D02*
X307342Y400150D01*
X307348Y400251D01*
X307358Y400350D01*
X307372Y400450D01*
X307389Y400549D01*
X307411Y400647D01*
X307437Y400744D01*
X307466Y400840D01*
X307499Y400934D01*
X307536Y401028D01*
X307576Y401120D01*
X307620Y401210D01*
X307668Y401298D01*
X307719Y401385D01*
X307773Y401469D01*
X307831Y401551D01*
X307892Y401631D01*
X307956Y401708D01*
X308023Y401783D01*
X308093Y401855D01*
X308166Y401924D01*
X308241Y401990D01*
X308319Y402054D01*
X308399Y402114D01*
X308482Y402171D01*
X308567Y402224D01*
X308654Y402274D01*
X308743Y402321D01*
X308833Y402364D01*
X308925Y402404D01*
X309019Y402440D01*
X309114Y402472D01*
X309210Y402500D01*
X309308Y402525D01*
X309406Y402545D01*
X309505Y402562D01*
X309605Y402575D01*
X309704Y402584D01*
X309805Y402589D01*
X309905Y402590D01*
X310005Y402587D01*
X310106Y402580D01*
X310205Y402569D01*
X310305Y402554D01*
X310403Y402536D01*
X310501Y402513D01*
X310598Y402486D01*
X310693Y402456D01*
X310788Y402422D01*
X310881Y402384D01*
X310972Y402343D01*
X311062Y402298D01*
X311150Y402250D01*
X311236Y402198D01*
X311320Y402143D01*
X311401Y402084D01*
X311480Y402022D01*
X311557Y401958D01*
X311631Y401890D01*
X311702Y401819D01*
X311771Y401746D01*
X311836Y401670D01*
X311899Y401591D01*
X311958Y401510D01*
X312014Y401427D01*
X312067Y401342D01*
X312116Y401254D01*
X312162Y401165D01*
X312204Y401074D01*
X312243Y400981D01*
X312278Y400887D01*
X312309Y400792D01*
X312337Y400695D01*
X312360Y400598D01*
X312380Y400499D01*
X312396Y400400D01*
X312408Y400301D01*
X312416Y400200D01*
X312420Y400100D01*
X312420Y400000D01*
X312416Y399900D01*
X312408Y399799D01*
X312396Y399700D01*
X312380Y399601D01*
X312360Y399502D01*
X312337Y399405D01*
X312309Y399308D01*
X312278Y399213D01*
X312243Y399119D01*
X312204Y399026D01*
X312162Y398935D01*
X312116Y398846D01*
X312067Y398758D01*
X312014Y398673D01*
X311958Y398590D01*
X311899Y398509D01*
X311836Y398430D01*
X311771Y398354D01*
X311702Y398281D01*
X311631Y398210D01*
X311557Y398142D01*
X311480Y398078D01*
X311401Y398016D01*
X311320Y397957D01*
X311236Y397902D01*
X311150Y397850D01*
X311062Y397802D01*
X310972Y397757D01*
X310881Y397716D01*
X310788Y397678D01*
X310693Y397644D01*
X310598Y397614D01*
X310501Y397587D01*
X310403Y397564D01*
X310305Y397546D01*
X310205Y397531D01*
X310106Y397520D01*
X310005Y397513D01*
X309905Y397510D01*
X309805Y397511D01*
X309704Y397516D01*
X309605Y397525D01*
X309505Y397538D01*
X309406Y397555D01*
X309308Y397575D01*
X309210Y397600D01*
X309114Y397628D01*
X309019Y397660D01*
X308925Y397696D01*
X308833Y397736D01*
X308743Y397779D01*
X308654Y397826D01*
X308567Y397876D01*
X308482Y397929D01*
X308399Y397986D01*
X308319Y398046D01*
X308241Y398110D01*
X308166Y398176D01*
X308093Y398245D01*
X308023Y398317D01*
X307956Y398392D01*
X307892Y398469D01*
X307831Y398549D01*
X307773Y398631D01*
X307719Y398715D01*
X307668Y398802D01*
X307620Y398890D01*
X307576Y398980D01*
X307536Y399072D01*
X307499Y399166D01*
X307466Y399260D01*
X307437Y399356D01*
X307411Y399453D01*
X307389Y399551D01*
X307372Y399650D01*
X307358Y399750D01*
X307348Y399849D01*
X307342Y399950D01*
X307340Y400050D01*
D13*
X440690Y64262D03*
D10*
X446556Y35560D02*
X455144Y35560D01*
X455144Y60960D02*
X446556Y60960D01*
X457938Y50944D02*
X457938Y45576D01*
X412650Y65960D02*
X400150Y65960D01*
X412650Y57260D02*
X412650Y39260D01*
X400150Y39260D02*
X400150Y57260D01*
X370190Y40260D02*
X370190Y34260D01*
X378190Y34260D01*
X370190Y56260D02*
X370190Y62260D01*
X378190Y62260D01*
X692785Y17463D02*
X692785Y7938D01*
D11*
X607060Y393700D02*
X607060Y406400D01*
X810260Y406400D01*
X810260Y393700D01*
X810260Y88900D02*
X810260Y76200D01*
X607060Y76200D01*
X607060Y88900D01*
D12*
X591820Y400050D02*
X591822Y400150D01*
X591828Y400251D01*
X591838Y400350D01*
X591852Y400450D01*
X591869Y400549D01*
X591891Y400647D01*
X591917Y400744D01*
X591946Y400840D01*
X591979Y400934D01*
X592016Y401028D01*
X592056Y401120D01*
X592100Y401210D01*
X592148Y401298D01*
X592199Y401385D01*
X592253Y401469D01*
X592311Y401551D01*
X592372Y401631D01*
X592436Y401708D01*
X592503Y401783D01*
X592573Y401855D01*
X592646Y401924D01*
X592721Y401990D01*
X592799Y402054D01*
X592879Y402114D01*
X592962Y402171D01*
X593047Y402224D01*
X593134Y402274D01*
X593223Y402321D01*
X593313Y402364D01*
X593405Y402404D01*
X593499Y402440D01*
X593594Y402472D01*
X593690Y402500D01*
X593788Y402525D01*
X593886Y402545D01*
X593985Y402562D01*
X594085Y402575D01*
X594184Y402584D01*
X594285Y402589D01*
X594385Y402590D01*
X594485Y402587D01*
X594586Y402580D01*
X594685Y402569D01*
X594785Y402554D01*
X594883Y402536D01*
X594981Y402513D01*
X595078Y402486D01*
X595173Y402456D01*
X595268Y402422D01*
X595361Y402384D01*
X595452Y402343D01*
X595542Y402298D01*
X595630Y402250D01*
X595716Y402198D01*
X595800Y402143D01*
X595881Y402084D01*
X595960Y402022D01*
X596037Y401958D01*
X596111Y401890D01*
X596182Y401819D01*
X596251Y401746D01*
X596316Y401670D01*
X596379Y401591D01*
X596438Y401510D01*
X596494Y401427D01*
X596547Y401342D01*
X596596Y401254D01*
X596642Y401165D01*
X596684Y401074D01*
X596723Y400981D01*
X596758Y400887D01*
X596789Y400792D01*
X596817Y400695D01*
X596840Y400598D01*
X596860Y400499D01*
X596876Y400400D01*
X596888Y400301D01*
X596896Y400200D01*
X596900Y400100D01*
X596900Y400000D01*
X596896Y399900D01*
X596888Y399799D01*
X596876Y399700D01*
X596860Y399601D01*
X596840Y399502D01*
X596817Y399405D01*
X596789Y399308D01*
X596758Y399213D01*
X596723Y399119D01*
X596684Y399026D01*
X596642Y398935D01*
X596596Y398846D01*
X596547Y398758D01*
X596494Y398673D01*
X596438Y398590D01*
X596379Y398509D01*
X596316Y398430D01*
X596251Y398354D01*
X596182Y398281D01*
X596111Y398210D01*
X596037Y398142D01*
X595960Y398078D01*
X595881Y398016D01*
X595800Y397957D01*
X595716Y397902D01*
X595630Y397850D01*
X595542Y397802D01*
X595452Y397757D01*
X595361Y397716D01*
X595268Y397678D01*
X595173Y397644D01*
X595078Y397614D01*
X594981Y397587D01*
X594883Y397564D01*
X594785Y397546D01*
X594685Y397531D01*
X594586Y397520D01*
X594485Y397513D01*
X594385Y397510D01*
X594285Y397511D01*
X594184Y397516D01*
X594085Y397525D01*
X593985Y397538D01*
X593886Y397555D01*
X593788Y397575D01*
X593690Y397600D01*
X593594Y397628D01*
X593499Y397660D01*
X593405Y397696D01*
X593313Y397736D01*
X593223Y397779D01*
X593134Y397826D01*
X593047Y397876D01*
X592962Y397929D01*
X592879Y397986D01*
X592799Y398046D01*
X592721Y398110D01*
X592646Y398176D01*
X592573Y398245D01*
X592503Y398317D01*
X592436Y398392D01*
X592372Y398469D01*
X592311Y398549D01*
X592253Y398631D01*
X592199Y398715D01*
X592148Y398802D01*
X592100Y398890D01*
X592056Y398980D01*
X592016Y399072D01*
X591979Y399166D01*
X591946Y399260D01*
X591917Y399356D01*
X591891Y399453D01*
X591869Y399551D01*
X591852Y399650D01*
X591838Y399750D01*
X591828Y399849D01*
X591822Y399950D01*
X591820Y400050D01*
D13*
X725170Y64262D03*
D10*
X731036Y35560D02*
X739624Y35560D01*
X739624Y60960D02*
X731036Y60960D01*
X742418Y50944D02*
X742418Y45576D01*
X697130Y65960D02*
X684630Y65960D01*
X697130Y57260D02*
X697130Y39260D01*
X684630Y39260D02*
X684630Y57260D01*
X654670Y40260D02*
X654670Y34260D01*
X662670Y34260D01*
X654670Y56260D02*
X654670Y62260D01*
X662670Y62260D01*
X977265Y17463D02*
X977265Y7938D01*
D11*
X891540Y393700D02*
X891540Y406400D01*
X1094740Y406400D01*
X1094740Y393700D01*
X1094740Y88900D02*
X1094740Y76200D01*
X891540Y76200D01*
X891540Y88900D01*
D12*
X876300Y400050D02*
X876302Y400150D01*
X876308Y400251D01*
X876318Y400350D01*
X876332Y400450D01*
X876349Y400549D01*
X876371Y400647D01*
X876397Y400744D01*
X876426Y400840D01*
X876459Y400934D01*
X876496Y401028D01*
X876536Y401120D01*
X876580Y401210D01*
X876628Y401298D01*
X876679Y401385D01*
X876733Y401469D01*
X876791Y401551D01*
X876852Y401631D01*
X876916Y401708D01*
X876983Y401783D01*
X877053Y401855D01*
X877126Y401924D01*
X877201Y401990D01*
X877279Y402054D01*
X877359Y402114D01*
X877442Y402171D01*
X877527Y402224D01*
X877614Y402274D01*
X877703Y402321D01*
X877793Y402364D01*
X877885Y402404D01*
X877979Y402440D01*
X878074Y402472D01*
X878170Y402500D01*
X878268Y402525D01*
X878366Y402545D01*
X878465Y402562D01*
X878565Y402575D01*
X878664Y402584D01*
X878765Y402589D01*
X878865Y402590D01*
X878965Y402587D01*
X879066Y402580D01*
X879165Y402569D01*
X879265Y402554D01*
X879363Y402536D01*
X879461Y402513D01*
X879558Y402486D01*
X879653Y402456D01*
X879748Y402422D01*
X879841Y402384D01*
X879932Y402343D01*
X880022Y402298D01*
X880110Y402250D01*
X880196Y402198D01*
X880280Y402143D01*
X880361Y402084D01*
X880440Y402022D01*
X880517Y401958D01*
X880591Y401890D01*
X880662Y401819D01*
X880731Y401746D01*
X880796Y401670D01*
X880859Y401591D01*
X880918Y401510D01*
X880974Y401427D01*
X881027Y401342D01*
X881076Y401254D01*
X881122Y401165D01*
X881164Y401074D01*
X881203Y400981D01*
X881238Y400887D01*
X881269Y400792D01*
X881297Y400695D01*
X881320Y400598D01*
X881340Y400499D01*
X881356Y400400D01*
X881368Y400301D01*
X881376Y400200D01*
X881380Y400100D01*
X881380Y400000D01*
X881376Y399900D01*
X881368Y399799D01*
X881356Y399700D01*
X881340Y399601D01*
X881320Y399502D01*
X881297Y399405D01*
X881269Y399308D01*
X881238Y399213D01*
X881203Y399119D01*
X881164Y399026D01*
X881122Y398935D01*
X881076Y398846D01*
X881027Y398758D01*
X880974Y398673D01*
X880918Y398590D01*
X880859Y398509D01*
X880796Y398430D01*
X880731Y398354D01*
X880662Y398281D01*
X880591Y398210D01*
X880517Y398142D01*
X880440Y398078D01*
X880361Y398016D01*
X880280Y397957D01*
X880196Y397902D01*
X880110Y397850D01*
X880022Y397802D01*
X879932Y397757D01*
X879841Y397716D01*
X879748Y397678D01*
X879653Y397644D01*
X879558Y397614D01*
X879461Y397587D01*
X879363Y397564D01*
X879265Y397546D01*
X879165Y397531D01*
X879066Y397520D01*
X878965Y397513D01*
X878865Y397510D01*
X878765Y397511D01*
X878664Y397516D01*
X878565Y397525D01*
X878465Y397538D01*
X878366Y397555D01*
X878268Y397575D01*
X878170Y397600D01*
X878074Y397628D01*
X877979Y397660D01*
X877885Y397696D01*
X877793Y397736D01*
X877703Y397779D01*
X877614Y397826D01*
X877527Y397876D01*
X877442Y397929D01*
X877359Y397986D01*
X877279Y398046D01*
X877201Y398110D01*
X877126Y398176D01*
X877053Y398245D01*
X876983Y398317D01*
X876916Y398392D01*
X876852Y398469D01*
X876791Y398549D01*
X876733Y398631D01*
X876679Y398715D01*
X876628Y398802D01*
X876580Y398890D01*
X876536Y398980D01*
X876496Y399072D01*
X876459Y399166D01*
X876426Y399260D01*
X876397Y399356D01*
X876371Y399453D01*
X876349Y399551D01*
X876332Y399650D01*
X876318Y399750D01*
X876308Y399849D01*
X876302Y399950D01*
X876300Y400050D01*
D13*
X1009650Y64262D03*
D10*
X1015516Y35560D02*
X1024104Y35560D01*
X1024104Y60960D02*
X1015516Y60960D01*
X1026898Y50944D02*
X1026898Y45576D01*
X981610Y65960D02*
X969110Y65960D01*
X981610Y57260D02*
X981610Y39260D01*
X969110Y39260D02*
X969110Y57260D01*
X939150Y40260D02*
X939150Y34260D01*
X947150Y34260D01*
X939150Y56260D02*
X939150Y62260D01*
X947150Y62260D01*
X123825Y597218D02*
X123825Y606743D01*
D11*
X38100Y982980D02*
X38100Y995680D01*
X241300Y995680D01*
X241300Y982980D01*
X241300Y678180D02*
X241300Y665480D01*
X38100Y665480D01*
X38100Y678180D01*
D12*
X22860Y989330D02*
X22862Y989430D01*
X22868Y989531D01*
X22878Y989630D01*
X22892Y989730D01*
X22909Y989829D01*
X22931Y989927D01*
X22957Y990024D01*
X22986Y990120D01*
X23019Y990214D01*
X23056Y990308D01*
X23096Y990400D01*
X23140Y990490D01*
X23188Y990578D01*
X23239Y990665D01*
X23293Y990749D01*
X23351Y990831D01*
X23412Y990911D01*
X23476Y990988D01*
X23543Y991063D01*
X23613Y991135D01*
X23686Y991204D01*
X23761Y991270D01*
X23839Y991334D01*
X23919Y991394D01*
X24002Y991451D01*
X24087Y991504D01*
X24174Y991554D01*
X24263Y991601D01*
X24353Y991644D01*
X24445Y991684D01*
X24539Y991720D01*
X24634Y991752D01*
X24730Y991780D01*
X24828Y991805D01*
X24926Y991825D01*
X25025Y991842D01*
X25125Y991855D01*
X25224Y991864D01*
X25325Y991869D01*
X25425Y991870D01*
X25525Y991867D01*
X25626Y991860D01*
X25725Y991849D01*
X25825Y991834D01*
X25923Y991816D01*
X26021Y991793D01*
X26118Y991766D01*
X26213Y991736D01*
X26308Y991702D01*
X26401Y991664D01*
X26492Y991623D01*
X26582Y991578D01*
X26670Y991530D01*
X26756Y991478D01*
X26840Y991423D01*
X26921Y991364D01*
X27000Y991302D01*
X27077Y991238D01*
X27151Y991170D01*
X27222Y991099D01*
X27291Y991026D01*
X27356Y990950D01*
X27419Y990871D01*
X27478Y990790D01*
X27534Y990707D01*
X27587Y990622D01*
X27636Y990534D01*
X27682Y990445D01*
X27724Y990354D01*
X27763Y990261D01*
X27798Y990167D01*
X27829Y990072D01*
X27857Y989975D01*
X27880Y989878D01*
X27900Y989779D01*
X27916Y989680D01*
X27928Y989581D01*
X27936Y989480D01*
X27940Y989380D01*
X27940Y989280D01*
X27936Y989180D01*
X27928Y989079D01*
X27916Y988980D01*
X27900Y988881D01*
X27880Y988782D01*
X27857Y988685D01*
X27829Y988588D01*
X27798Y988493D01*
X27763Y988399D01*
X27724Y988306D01*
X27682Y988215D01*
X27636Y988126D01*
X27587Y988038D01*
X27534Y987953D01*
X27478Y987870D01*
X27419Y987789D01*
X27356Y987710D01*
X27291Y987634D01*
X27222Y987561D01*
X27151Y987490D01*
X27077Y987422D01*
X27000Y987358D01*
X26921Y987296D01*
X26840Y987237D01*
X26756Y987182D01*
X26670Y987130D01*
X26582Y987082D01*
X26492Y987037D01*
X26401Y986996D01*
X26308Y986958D01*
X26213Y986924D01*
X26118Y986894D01*
X26021Y986867D01*
X25923Y986844D01*
X25825Y986826D01*
X25725Y986811D01*
X25626Y986800D01*
X25525Y986793D01*
X25425Y986790D01*
X25325Y986791D01*
X25224Y986796D01*
X25125Y986805D01*
X25025Y986818D01*
X24926Y986835D01*
X24828Y986855D01*
X24730Y986880D01*
X24634Y986908D01*
X24539Y986940D01*
X24445Y986976D01*
X24353Y987016D01*
X24263Y987059D01*
X24174Y987106D01*
X24087Y987156D01*
X24002Y987209D01*
X23919Y987266D01*
X23839Y987326D01*
X23761Y987390D01*
X23686Y987456D01*
X23613Y987525D01*
X23543Y987597D01*
X23476Y987672D01*
X23412Y987749D01*
X23351Y987829D01*
X23293Y987911D01*
X23239Y987995D01*
X23188Y988082D01*
X23140Y988170D01*
X23096Y988260D01*
X23056Y988352D01*
X23019Y988446D01*
X22986Y988540D01*
X22957Y988636D01*
X22931Y988733D01*
X22909Y988831D01*
X22892Y988930D01*
X22878Y989030D01*
X22868Y989129D01*
X22862Y989230D01*
X22860Y989330D01*
D13*
X156210Y653542D03*
D10*
X162076Y624840D02*
X170664Y624840D01*
X170664Y650240D02*
X162076Y650240D01*
X173458Y640224D02*
X173458Y634856D01*
X128170Y655240D02*
X115670Y655240D01*
X128170Y646540D02*
X128170Y628540D01*
X115670Y628540D02*
X115670Y646540D01*
X85710Y629540D02*
X85710Y623540D01*
X93710Y623540D01*
X85710Y645540D02*
X85710Y651540D01*
X93710Y651540D01*
X408305Y606743D02*
X408305Y597218D01*
D11*
X322580Y982980D02*
X322580Y995680D01*
X525780Y995680D01*
X525780Y982980D01*
X525780Y678180D02*
X525780Y665480D01*
X322580Y665480D01*
X322580Y678180D01*
D12*
X307340Y989330D02*
X307342Y989430D01*
X307348Y989531D01*
X307358Y989630D01*
X307372Y989730D01*
X307389Y989829D01*
X307411Y989927D01*
X307437Y990024D01*
X307466Y990120D01*
X307499Y990214D01*
X307536Y990308D01*
X307576Y990400D01*
X307620Y990490D01*
X307668Y990578D01*
X307719Y990665D01*
X307773Y990749D01*
X307831Y990831D01*
X307892Y990911D01*
X307956Y990988D01*
X308023Y991063D01*
X308093Y991135D01*
X308166Y991204D01*
X308241Y991270D01*
X308319Y991334D01*
X308399Y991394D01*
X308482Y991451D01*
X308567Y991504D01*
X308654Y991554D01*
X308743Y991601D01*
X308833Y991644D01*
X308925Y991684D01*
X309019Y991720D01*
X309114Y991752D01*
X309210Y991780D01*
X309308Y991805D01*
X309406Y991825D01*
X309505Y991842D01*
X309605Y991855D01*
X309704Y991864D01*
X309805Y991869D01*
X309905Y991870D01*
X310005Y991867D01*
X310106Y991860D01*
X310205Y991849D01*
X310305Y991834D01*
X310403Y991816D01*
X310501Y991793D01*
X310598Y991766D01*
X310693Y991736D01*
X310788Y991702D01*
X310881Y991664D01*
X310972Y991623D01*
X311062Y991578D01*
X311150Y991530D01*
X311236Y991478D01*
X311320Y991423D01*
X311401Y991364D01*
X311480Y991302D01*
X311557Y991238D01*
X311631Y991170D01*
X311702Y991099D01*
X311771Y991026D01*
X311836Y990950D01*
X311899Y990871D01*
X311958Y990790D01*
X312014Y990707D01*
X312067Y990622D01*
X312116Y990534D01*
X312162Y990445D01*
X312204Y990354D01*
X312243Y990261D01*
X312278Y990167D01*
X312309Y990072D01*
X312337Y989975D01*
X312360Y989878D01*
X312380Y989779D01*
X312396Y989680D01*
X312408Y989581D01*
X312416Y989480D01*
X312420Y989380D01*
X312420Y989280D01*
X312416Y989180D01*
X312408Y989079D01*
X312396Y988980D01*
X312380Y988881D01*
X312360Y988782D01*
X312337Y988685D01*
X312309Y988588D01*
X312278Y988493D01*
X312243Y988399D01*
X312204Y988306D01*
X312162Y988215D01*
X312116Y988126D01*
X312067Y988038D01*
X312014Y987953D01*
X311958Y987870D01*
X311899Y987789D01*
X311836Y987710D01*
X311771Y987634D01*
X311702Y987561D01*
X311631Y987490D01*
X311557Y987422D01*
X311480Y987358D01*
X311401Y987296D01*
X311320Y987237D01*
X311236Y987182D01*
X311150Y987130D01*
X311062Y987082D01*
X310972Y987037D01*
X310881Y986996D01*
X310788Y986958D01*
X310693Y986924D01*
X310598Y986894D01*
X310501Y986867D01*
X310403Y986844D01*
X310305Y986826D01*
X310205Y986811D01*
X310106Y986800D01*
X310005Y986793D01*
X309905Y986790D01*
X309805Y986791D01*
X309704Y986796D01*
X309605Y986805D01*
X309505Y986818D01*
X309406Y986835D01*
X309308Y986855D01*
X309210Y986880D01*
X309114Y986908D01*
X309019Y986940D01*
X308925Y986976D01*
X308833Y987016D01*
X308743Y987059D01*
X308654Y987106D01*
X308567Y987156D01*
X308482Y987209D01*
X308399Y987266D01*
X308319Y987326D01*
X308241Y987390D01*
X308166Y987456D01*
X308093Y987525D01*
X308023Y987597D01*
X307956Y987672D01*
X307892Y987749D01*
X307831Y987829D01*
X307773Y987911D01*
X307719Y987995D01*
X307668Y988082D01*
X307620Y988170D01*
X307576Y988260D01*
X307536Y988352D01*
X307499Y988446D01*
X307466Y988540D01*
X307437Y988636D01*
X307411Y988733D01*
X307389Y988831D01*
X307372Y988930D01*
X307358Y989030D01*
X307348Y989129D01*
X307342Y989230D01*
X307340Y989330D01*
D13*
X440690Y653542D03*
D10*
X446556Y624840D02*
X455144Y624840D01*
X455144Y650240D02*
X446556Y650240D01*
X457938Y640224D02*
X457938Y634856D01*
X412650Y655240D02*
X400150Y655240D01*
X412650Y646540D02*
X412650Y628540D01*
X400150Y628540D02*
X400150Y646540D01*
X370190Y629540D02*
X370190Y623540D01*
X378190Y623540D01*
X370190Y645540D02*
X370190Y651540D01*
X378190Y651540D01*
X692785Y606743D02*
X692785Y597218D01*
D11*
X607060Y982980D02*
X607060Y995680D01*
X810260Y995680D01*
X810260Y982980D01*
X810260Y678180D02*
X810260Y665480D01*
X607060Y665480D01*
X607060Y678180D01*
D12*
X591820Y989330D02*
X591822Y989430D01*
X591828Y989531D01*
X591838Y989630D01*
X591852Y989730D01*
X591869Y989829D01*
X591891Y989927D01*
X591917Y990024D01*
X591946Y990120D01*
X591979Y990214D01*
X592016Y990308D01*
X592056Y990400D01*
X592100Y990490D01*
X592148Y990578D01*
X592199Y990665D01*
X592253Y990749D01*
X592311Y990831D01*
X592372Y990911D01*
X592436Y990988D01*
X592503Y991063D01*
X592573Y991135D01*
X592646Y991204D01*
X592721Y991270D01*
X592799Y991334D01*
X592879Y991394D01*
X592962Y991451D01*
X593047Y991504D01*
X593134Y991554D01*
X593223Y991601D01*
X593313Y991644D01*
X593405Y991684D01*
X593499Y991720D01*
X593594Y991752D01*
X593690Y991780D01*
X593788Y991805D01*
X593886Y991825D01*
X593985Y991842D01*
X594085Y991855D01*
X594184Y991864D01*
X594285Y991869D01*
X594385Y991870D01*
X594485Y991867D01*
X594586Y991860D01*
X594685Y991849D01*
X594785Y991834D01*
X594883Y991816D01*
X594981Y991793D01*
X595078Y991766D01*
X595173Y991736D01*
X595268Y991702D01*
X595361Y991664D01*
X595452Y991623D01*
X595542Y991578D01*
X595630Y991530D01*
X595716Y991478D01*
X595800Y991423D01*
X595881Y991364D01*
X595960Y991302D01*
X596037Y991238D01*
X596111Y991170D01*
X596182Y991099D01*
X596251Y991026D01*
X596316Y990950D01*
X596379Y990871D01*
X596438Y990790D01*
X596494Y990707D01*
X596547Y990622D01*
X596596Y990534D01*
X596642Y990445D01*
X596684Y990354D01*
X596723Y990261D01*
X596758Y990167D01*
X596789Y990072D01*
X596817Y989975D01*
X596840Y989878D01*
X596860Y989779D01*
X596876Y989680D01*
X596888Y989581D01*
X596896Y989480D01*
X596900Y989380D01*
X596900Y989280D01*
X596896Y989180D01*
X596888Y989079D01*
X596876Y988980D01*
X596860Y988881D01*
X596840Y988782D01*
X596817Y988685D01*
X596789Y988588D01*
X596758Y988493D01*
X596723Y988399D01*
X596684Y988306D01*
X596642Y988215D01*
X596596Y988126D01*
X596547Y988038D01*
X596494Y987953D01*
X596438Y987870D01*
X596379Y987789D01*
X596316Y987710D01*
X596251Y987634D01*
X596182Y987561D01*
X596111Y987490D01*
X596037Y987422D01*
X595960Y987358D01*
X595881Y987296D01*
X595800Y987237D01*
X595716Y987182D01*
X595630Y987130D01*
X595542Y987082D01*
X595452Y987037D01*
X595361Y986996D01*
X595268Y986958D01*
X595173Y986924D01*
X595078Y986894D01*
X594981Y986867D01*
X594883Y986844D01*
X594785Y986826D01*
X594685Y986811D01*
X594586Y986800D01*
X594485Y986793D01*
X594385Y986790D01*
X594285Y986791D01*
X594184Y986796D01*
X594085Y986805D01*
X593985Y986818D01*
X593886Y986835D01*
X593788Y986855D01*
X593690Y986880D01*
X593594Y986908D01*
X593499Y986940D01*
X593405Y986976D01*
X593313Y987016D01*
X593223Y987059D01*
X593134Y987106D01*
X593047Y987156D01*
X592962Y987209D01*
X592879Y987266D01*
X592799Y987326D01*
X592721Y987390D01*
X592646Y987456D01*
X592573Y987525D01*
X592503Y987597D01*
X592436Y987672D01*
X592372Y987749D01*
X592311Y987829D01*
X592253Y987911D01*
X592199Y987995D01*
X592148Y988082D01*
X592100Y988170D01*
X592056Y988260D01*
X592016Y988352D01*
X591979Y988446D01*
X591946Y988540D01*
X591917Y988636D01*
X591891Y988733D01*
X591869Y988831D01*
X591852Y988930D01*
X591838Y989030D01*
X591828Y989129D01*
X591822Y989230D01*
X591820Y989330D01*
D13*
X725170Y653542D03*
D10*
X731036Y624840D02*
X739624Y624840D01*
X739624Y650240D02*
X731036Y650240D01*
X742418Y640224D02*
X742418Y634856D01*
X697130Y655240D02*
X684630Y655240D01*
X697130Y646540D02*
X697130Y628540D01*
X684630Y628540D02*
X684630Y646540D01*
X654670Y629540D02*
X654670Y623540D01*
X662670Y623540D01*
X654670Y645540D02*
X654670Y651540D01*
X662670Y651540D01*
X977265Y606743D02*
X977265Y597218D01*
D11*
X891540Y982980D02*
X891540Y995680D01*
X1094740Y995680D01*
X1094740Y982980D01*
X1094740Y678180D02*
X1094740Y665480D01*
X891540Y665480D01*
X891540Y678180D01*
D12*
X876300Y989330D02*
X876302Y989430D01*
X876308Y989531D01*
X876318Y989630D01*
X876332Y989730D01*
X876349Y989829D01*
X876371Y989927D01*
X876397Y990024D01*
X876426Y990120D01*
X876459Y990214D01*
X876496Y990308D01*
X876536Y990400D01*
X876580Y990490D01*
X876628Y990578D01*
X876679Y990665D01*
X876733Y990749D01*
X876791Y990831D01*
X876852Y990911D01*
X876916Y990988D01*
X876983Y991063D01*
X877053Y991135D01*
X877126Y991204D01*
X877201Y991270D01*
X877279Y991334D01*
X877359Y991394D01*
X877442Y991451D01*
X877527Y991504D01*
X877614Y991554D01*
X877703Y991601D01*
X877793Y991644D01*
X877885Y991684D01*
X877979Y991720D01*
X878074Y991752D01*
X878170Y991780D01*
X878268Y991805D01*
X878366Y991825D01*
X878465Y991842D01*
X878565Y991855D01*
X878664Y991864D01*
X878765Y991869D01*
X878865Y991870D01*
X878965Y991867D01*
X879066Y991860D01*
X879165Y991849D01*
X879265Y991834D01*
X879363Y991816D01*
X879461Y991793D01*
X879558Y991766D01*
X879653Y991736D01*
X879748Y991702D01*
X879841Y991664D01*
X879932Y991623D01*
X880022Y991578D01*
X880110Y991530D01*
X880196Y991478D01*
X880280Y991423D01*
X880361Y991364D01*
X880440Y991302D01*
X880517Y991238D01*
X880591Y991170D01*
X880662Y991099D01*
X880731Y991026D01*
X880796Y990950D01*
X880859Y990871D01*
X880918Y990790D01*
X880974Y990707D01*
X881027Y990622D01*
X881076Y990534D01*
X881122Y990445D01*
X881164Y990354D01*
X881203Y990261D01*
X881238Y990167D01*
X881269Y990072D01*
X881297Y989975D01*
X881320Y989878D01*
X881340Y989779D01*
X881356Y989680D01*
X881368Y989581D01*
X881376Y989480D01*
X881380Y989380D01*
X881380Y989280D01*
X881376Y989180D01*
X881368Y989079D01*
X881356Y988980D01*
X881340Y988881D01*
X881320Y988782D01*
X881297Y988685D01*
X881269Y988588D01*
X881238Y988493D01*
X881203Y988399D01*
X881164Y988306D01*
X881122Y988215D01*
X881076Y988126D01*
X881027Y988038D01*
X880974Y987953D01*
X880918Y987870D01*
X880859Y987789D01*
X880796Y987710D01*
X880731Y987634D01*
X880662Y987561D01*
X880591Y987490D01*
X880517Y987422D01*
X880440Y987358D01*
X880361Y987296D01*
X880280Y987237D01*
X880196Y987182D01*
X880110Y987130D01*
X880022Y987082D01*
X879932Y987037D01*
X879841Y986996D01*
X879748Y986958D01*
X879653Y986924D01*
X879558Y986894D01*
X879461Y986867D01*
X879363Y986844D01*
X879265Y986826D01*
X879165Y986811D01*
X879066Y986800D01*
X878965Y986793D01*
X878865Y986790D01*
X878765Y986791D01*
X878664Y986796D01*
X878565Y986805D01*
X878465Y986818D01*
X878366Y986835D01*
X878268Y986855D01*
X878170Y986880D01*
X878074Y986908D01*
X877979Y986940D01*
X877885Y986976D01*
X877793Y987016D01*
X877703Y987059D01*
X877614Y987106D01*
X877527Y987156D01*
X877442Y987209D01*
X877359Y987266D01*
X877279Y987326D01*
X877201Y987390D01*
X877126Y987456D01*
X877053Y987525D01*
X876983Y987597D01*
X876916Y987672D01*
X876852Y987749D01*
X876791Y987829D01*
X876733Y987911D01*
X876679Y987995D01*
X876628Y988082D01*
X876580Y988170D01*
X876536Y988260D01*
X876496Y988352D01*
X876459Y988446D01*
X876426Y988540D01*
X876397Y988636D01*
X876371Y988733D01*
X876349Y988831D01*
X876332Y988930D01*
X876318Y989030D01*
X876308Y989129D01*
X876302Y989230D01*
X876300Y989330D01*
D13*
X1009650Y653542D03*
D10*
X1015516Y624840D02*
X1024104Y624840D01*
X1024104Y650240D02*
X1015516Y650240D01*
X1026898Y640224D02*
X1026898Y634856D01*
X981610Y655240D02*
X969110Y655240D01*
X981610Y646540D02*
X981610Y628540D01*
X969110Y628540D02*
X969110Y646540D01*
X939150Y629540D02*
X939150Y623540D01*
X947150Y623540D01*
X939150Y645540D02*
X939150Y651540D01*
X947150Y651540D01*
M02*
