M48
;GenerationSoftware,Autodesk,EAGLE,9.6.2*%
;CreationDate,2021-01-12T14:49:45Z*%
FMAT,2
ICI,OFF
METRIC,TZ,000.000
T2C0.300
T1C3.302
%
G90
M71
T1
X90424Y107188
X5080Y2540
X22860Y2540
X22860Y48260
X5080Y48260
X33528Y2540
X51308Y2540
X51308Y48260
X33528Y48260
X61976Y2540
X79756Y2540
X79756Y48260
X61976Y48260
X90424Y2540
X108204Y2540
X108204Y48260
X90424Y48260
X5080Y61468
X22860Y61468
X22860Y107188
X5080Y107188
X33528Y61468
X51308Y61468
X51308Y107188
X33528Y107188
X61976Y61468
X79756Y61468
X79756Y107188
X61976Y107188
X90424Y61468
X108204Y61468
X108204Y107188
T2
X8255Y2540
X12065Y1270
X19431Y3683
X13970Y4826
X11430Y29210
X17780Y25400
X15240Y21590
X12700Y19050
X7874Y24765
X16510Y10160
X12700Y10160
X5080Y6350
X12700Y15240
X16510Y15240
X19050Y13970
X21590Y15240
X15240Y31750
X16510Y33020
X17780Y30480
X26924Y35560
X26924Y30480
X13970Y29210
X5588Y27940
X2159Y30480
X5588Y33020
X2159Y35560
X2159Y38100
X22098Y12700
X21085Y12700
X9144Y6985
X10287Y2159
X10287Y2921
X7874Y6096
X7874Y6858
X21590Y20320
X21590Y17780
X16510Y12446
X17780Y12446
X50800Y33020
X54356Y33020
X50800Y10160
X54356Y10160
X50800Y38100
X54356Y38100
X54356Y35560
X50800Y40640
X43688Y38100
X46228Y36830
X48768Y41910
X47498Y40640
X44958Y40640
X41148Y38100
X39878Y40640
X48768Y44450
X48768Y46990
X48768Y49530
X36068Y49530
X36068Y46990
X36068Y44450
X36068Y41910
X37338Y40640
X41783Y35560
X43688Y34290
X46228Y34290
X48768Y34290
X48768Y36830
X30480Y10160
X34290Y10160
X54356Y12700
X54356Y15240
X36703Y2540
X40513Y1270
X47879Y3683
X42418Y4826
X39878Y29210
X46228Y25400
X43688Y21590
X41148Y19050
X36322Y24765
X44958Y10160
X41148Y10160
X33528Y6350
X41148Y15240
X44958Y15240
X47498Y13970
X50038Y15240
X43688Y31750
X44958Y33020
X46228Y30480
X55372Y35560
X55372Y30480
X42418Y29210
X34036Y27940
X30607Y30480
X34036Y33020
X30607Y35560
X30607Y38100
X50546Y12700
X49533Y12700
X37592Y6985
X38735Y2159
X38735Y2921
X36322Y6096
X36322Y6858
X50038Y20320
X50038Y17780
X44958Y12446
X46228Y12446
X79248Y33020
X82804Y33020
X79248Y10160
X82804Y10160
X79248Y38100
X82804Y38100
X82804Y35560
X79248Y40640
X72136Y38100
X74676Y36830
X77216Y41910
X75946Y40640
X73406Y40640
X69596Y38100
X68326Y40640
X77216Y44450
X77216Y46990
X77216Y49530
X64516Y49530
X64516Y46990
X64516Y44450
X64516Y41910
X65786Y40640
X70231Y35560
X72136Y34290
X74676Y34290
X77216Y34290
X77216Y36830
X58928Y10160
X62738Y10160
X82804Y12700
X82804Y15240
X65151Y2540
X68961Y1270
X76327Y3683
X70866Y4826
X68326Y29210
X74676Y25400
X72136Y21590
X69596Y19050
X64770Y24765
X73406Y10160
X69596Y10160
X61976Y6350
X69596Y15240
X73406Y15240
X75946Y13970
X78486Y15240
X72136Y31750
X73406Y33020
X74676Y30480
X83820Y35560
X83820Y30480
X70866Y29210
X62484Y27940
X59055Y30480
X62484Y33020
X59055Y35560
X59055Y38100
X78994Y12700
X77981Y12700
X66040Y6985
X67183Y2159
X67183Y2921
X64770Y6096
X64770Y6858
X78486Y20320
X78486Y17780
X73406Y12446
X74676Y12446
X107696Y33020
X111252Y33020
X107696Y10160
X111252Y10160
X107696Y38100
X111252Y38100
X111252Y35560
X107696Y40640
X100584Y38100
X103124Y36830
X105664Y41910
X104394Y40640
X101854Y40640
X98044Y38100
X96774Y40640
X105664Y44450
X105664Y46990
X105664Y49530
X92964Y49530
X92964Y46990
X92964Y44450
X92964Y41910
X94234Y40640
X98679Y35560
X100584Y34290
X103124Y34290
X105664Y34290
X105664Y36830
X87376Y10160
X91186Y10160
X111252Y12700
X111252Y15240
X93599Y2540
X97409Y1270
X104775Y3683
X99314Y4826
X96774Y29210
X103124Y25400
X100584Y21590
X98044Y19050
X93218Y24765
X101854Y10160
X98044Y10160
X90424Y6350
X98044Y15240
X101854Y15240
X104394Y13970
X106934Y15240
X100584Y31750
X101854Y33020
X103124Y30480
X112268Y35560
X112268Y30480
X99314Y29210
X90932Y27940
X87503Y30480
X90932Y33020
X87503Y35560
X87503Y38100
X107442Y12700
X106429Y12700
X94488Y6985
X95631Y2159
X95631Y2921
X93218Y6096
X93218Y6858
X106934Y20320
X106934Y17780
X101854Y12446
X103124Y12446
X22352Y91948
X25908Y91948
X22352Y69088
X25908Y69088
X22352Y97028
X25908Y97028
X25908Y94488
X22352Y99568
X15240Y97028
X17780Y95758
X20320Y100838
X19050Y99568
X16510Y99568
X12700Y97028
X11430Y99568
X20320Y103378
X20320Y105918
X20320Y108458
X7620Y108458
X7620Y105918
X7620Y103378
X7620Y100838
X8890Y99568
X13335Y94488
X15240Y93218
X17780Y93218
X20320Y93218
X20320Y95758
X2032Y69088
X5842Y69088
X25908Y71628
X25908Y74168
X8255Y61468
X12065Y60198
X19431Y62611
X13970Y63754
X11430Y88138
X17780Y84328
X15240Y80518
X12700Y77978
X7874Y83693
X16510Y69088
X12700Y69088
X5080Y65278
X12700Y74168
X16510Y74168
X19050Y72898
X21590Y74168
X15240Y90678
X16510Y91948
X17780Y89408
X26924Y94488
X26924Y89408
X13970Y88138
X5588Y86868
X2159Y89408
X5588Y91948
X2159Y94488
X2159Y97028
X22098Y71628
X21085Y71628
X9144Y65913
X10287Y61087
X10287Y61849
X7874Y65024
X7874Y65786
X21590Y79248
X21590Y76708
X16510Y71374
X17780Y71374
X50800Y91948
X54356Y91948
X50800Y69088
X54356Y69088
X50800Y97028
X54356Y97028
X54356Y94488
X50800Y99568
X43688Y97028
X46228Y95758
X48768Y100838
X47498Y99568
X44958Y99568
X41148Y97028
X39878Y99568
X48768Y103378
X48768Y105918
X48768Y108458
X36068Y108458
X36068Y105918
X36068Y103378
X36068Y100838
X37338Y99568
X41783Y94488
X43688Y93218
X46228Y93218
X48768Y93218
X48768Y95758
X30480Y69088
X34290Y69088
X54356Y71628
X54356Y74168
X36703Y61468
X40513Y60198
X47879Y62611
X42418Y63754
X39878Y88138
X46228Y84328
X43688Y80518
X41148Y77978
X36322Y83693
X44958Y69088
X41148Y69088
X33528Y65278
X41148Y74168
X44958Y74168
X47498Y72898
X50038Y74168
X43688Y90678
X44958Y91948
X46228Y89408
X55372Y94488
X55372Y89408
X42418Y88138
X34036Y86868
X30607Y89408
X34036Y91948
X30607Y94488
X30607Y97028
X50546Y71628
X49533Y71628
X37592Y65913
X38735Y61087
X38735Y61849
X36322Y65024
X36322Y65786
X50038Y79248
X50038Y76708
X44958Y71374
X46228Y71374
X79248Y91948
X82804Y91948
X79248Y69088
X82804Y69088
X79248Y97028
X82804Y97028
X82804Y94488
X79248Y99568
X72136Y97028
X74676Y95758
X77216Y100838
X75946Y99568
X73406Y99568
X69596Y97028
X68326Y99568
X77216Y103378
X77216Y105918
X77216Y108458
X64516Y108458
X64516Y105918
X64516Y103378
X64516Y100838
X65786Y99568
X22352Y33020
X72136Y93218
X74676Y93218
X77216Y93218
X77216Y95758
X58928Y69088
X62738Y69088
X82804Y71628
X82804Y74168
X65151Y61468
X68961Y60198
X76327Y62611
X70866Y63754
X68326Y88138
X74676Y84328
X72136Y80518
X69596Y77978
X64770Y83693
X73406Y69088
X69596Y69088
X61976Y65278
X69596Y74168
X73406Y74168
X75946Y72898
X78486Y74168
X72136Y90678
X73406Y91948
X74676Y89408
X83820Y94488
X83820Y89408
X70866Y88138
X62484Y86868
X59055Y89408
X62484Y91948
X59055Y94488
X59055Y97028
X78994Y71628
X77981Y71628
X66040Y65913
X67183Y61087
X67183Y61849
X64770Y65024
X64770Y65786
X78486Y79248
X78486Y76708
X73406Y71374
X74676Y71374
X107696Y91948
X111252Y91948
X107696Y69088
X111252Y69088
X107696Y97028
X111252Y97028
X111252Y94488
X107696Y99568
X100584Y97028
X103124Y95758
X105664Y100838
X104394Y99568
X101854Y99568
X98044Y97028
X96774Y99568
X105664Y103378
X105664Y105918
X105664Y108458
X92964Y108458
X92964Y105918
X92964Y103378
X92964Y100838
X94234Y99568
X98679Y94488
X100584Y93218
X103124Y93218
X105664Y93218
X70231Y94488
X87376Y69088
X91186Y69088
X111252Y71628
X111252Y74168
X93599Y61468
X97409Y60198
X104775Y62611
X99314Y63754
X96774Y88138
X103124Y84328
X100584Y80518
X98044Y77978
X93218Y83693
X101854Y69088
X98044Y69088
X90424Y65278
X98044Y74168
X101854Y74168
X104394Y72898
X106934Y74168
X100584Y90678
X101854Y91948
X103124Y89408
X112268Y94488
X112268Y89408
X99314Y88138
X90932Y86868
X87503Y89408
X90932Y91948
X87503Y94488
X87503Y97028
X107442Y71628
X106429Y71628
X94488Y65913
X95631Y61087
X95631Y61849
X93218Y65024
X93218Y65786
X106934Y79248
X106934Y76708
X101854Y71374
X103124Y71374
X25908Y33020
X22352Y10160
X25908Y10160
X22352Y38100
X25908Y38100
X25908Y35560
X22352Y40640
X15240Y38100
X17780Y36830
X20320Y41910
X19050Y40640
X16510Y40640
X12700Y38100
X11430Y40640
X20320Y44450
X20320Y46990
X20320Y49530
X7620Y49530
X7620Y46990
X7620Y44450
X7620Y41910
X8890Y40640
X13335Y35560
X15240Y34290
X17780Y34290
X20320Y34290
X20320Y36830
X2032Y10160
X5842Y10160
X25908Y12700
X25908Y15240
X105664Y95758
M30