G04 EAGLE Gerber RS-274X export*
G75*
%MOMM*%
%FSLAX34Y34*%
%LPD*%
%INSolderpaste Bottom*%
%IPPOS*%
%AMOC8*
5,1,8,0,0,1.08239X$1,22.5*%
G01*
%ADD10R,6.000000X1.020000*%


D10*
X241300Y444500D03*
X241300Y419100D03*
X241300Y393700D03*
X241300Y368300D03*
X241300Y342900D03*
X241300Y317500D03*
X241300Y292100D03*
X241300Y266700D03*
X241300Y241300D03*
X241300Y215900D03*
X241300Y190500D03*
X241300Y165100D03*
X241300Y139700D03*
X241300Y114300D03*
X241300Y88900D03*
X241300Y63500D03*
X38100Y292100D03*
X38100Y266700D03*
X38100Y241300D03*
X38100Y215900D03*
X38100Y190500D03*
X38100Y165100D03*
X38100Y444500D03*
X38100Y419100D03*
X38100Y393700D03*
X38100Y368300D03*
X38100Y342900D03*
X38100Y317500D03*
X525780Y444500D03*
X525780Y419100D03*
X525780Y393700D03*
X525780Y368300D03*
X525780Y342900D03*
X525780Y317500D03*
X525780Y292100D03*
X525780Y266700D03*
X525780Y241300D03*
X525780Y215900D03*
X525780Y190500D03*
X525780Y165100D03*
X525780Y139700D03*
X525780Y114300D03*
X525780Y88900D03*
X525780Y63500D03*
X322580Y292100D03*
X322580Y266700D03*
X322580Y241300D03*
X322580Y215900D03*
X322580Y190500D03*
X322580Y165100D03*
X322580Y444500D03*
X322580Y419100D03*
X322580Y393700D03*
X322580Y368300D03*
X322580Y342900D03*
X322580Y317500D03*
X810260Y444500D03*
X810260Y419100D03*
X810260Y393700D03*
X810260Y368300D03*
X810260Y342900D03*
X810260Y317500D03*
X810260Y292100D03*
X810260Y266700D03*
X810260Y241300D03*
X810260Y215900D03*
X810260Y190500D03*
X810260Y165100D03*
X810260Y139700D03*
X810260Y114300D03*
X810260Y88900D03*
X810260Y63500D03*
X607060Y292100D03*
X607060Y266700D03*
X607060Y241300D03*
X607060Y215900D03*
X607060Y190500D03*
X607060Y165100D03*
X607060Y444500D03*
X607060Y419100D03*
X607060Y393700D03*
X607060Y368300D03*
X607060Y342900D03*
X607060Y317500D03*
X1094740Y444500D03*
X1094740Y419100D03*
X1094740Y393700D03*
X1094740Y368300D03*
X1094740Y342900D03*
X1094740Y317500D03*
X1094740Y292100D03*
X1094740Y266700D03*
X1094740Y241300D03*
X1094740Y215900D03*
X1094740Y190500D03*
X1094740Y165100D03*
X1094740Y139700D03*
X1094740Y114300D03*
X1094740Y88900D03*
X1094740Y63500D03*
X891540Y292100D03*
X891540Y266700D03*
X891540Y241300D03*
X891540Y215900D03*
X891540Y190500D03*
X891540Y165100D03*
X891540Y444500D03*
X891540Y419100D03*
X891540Y393700D03*
X891540Y368300D03*
X891540Y342900D03*
X891540Y317500D03*
X241300Y1033780D03*
X241300Y1008380D03*
X241300Y982980D03*
X241300Y957580D03*
X241300Y932180D03*
X241300Y906780D03*
X241300Y881380D03*
X241300Y855980D03*
X241300Y830580D03*
X241300Y805180D03*
X241300Y779780D03*
X241300Y754380D03*
X241300Y728980D03*
X241300Y703580D03*
X241300Y678180D03*
X241300Y652780D03*
X38100Y881380D03*
X38100Y855980D03*
X38100Y830580D03*
X38100Y805180D03*
X38100Y779780D03*
X38100Y754380D03*
X38100Y1033780D03*
X38100Y1008380D03*
X38100Y982980D03*
X38100Y957580D03*
X38100Y932180D03*
X38100Y906780D03*
X525780Y1033780D03*
X525780Y1008380D03*
X525780Y982980D03*
X525780Y957580D03*
X525780Y932180D03*
X525780Y906780D03*
X525780Y881380D03*
X525780Y855980D03*
X525780Y830580D03*
X525780Y805180D03*
X525780Y779780D03*
X525780Y754380D03*
X525780Y728980D03*
X525780Y703580D03*
X525780Y678180D03*
X525780Y652780D03*
X322580Y881380D03*
X322580Y855980D03*
X322580Y830580D03*
X322580Y805180D03*
X322580Y779780D03*
X322580Y754380D03*
X322580Y1033780D03*
X322580Y1008380D03*
X322580Y982980D03*
X322580Y957580D03*
X322580Y932180D03*
X322580Y906780D03*
X810260Y1033780D03*
X810260Y1008380D03*
X810260Y982980D03*
X810260Y957580D03*
X810260Y932180D03*
X810260Y906780D03*
X810260Y881380D03*
X810260Y855980D03*
X810260Y830580D03*
X810260Y805180D03*
X810260Y779780D03*
X810260Y754380D03*
X810260Y728980D03*
X810260Y703580D03*
X810260Y678180D03*
X810260Y652780D03*
X607060Y881380D03*
X607060Y855980D03*
X607060Y830580D03*
X607060Y805180D03*
X607060Y779780D03*
X607060Y754380D03*
X607060Y1033780D03*
X607060Y1008380D03*
X607060Y982980D03*
X607060Y957580D03*
X607060Y932180D03*
X607060Y906780D03*
X1094740Y1033780D03*
X1094740Y1008380D03*
X1094740Y982980D03*
X1094740Y957580D03*
X1094740Y932180D03*
X1094740Y906780D03*
X1094740Y881380D03*
X1094740Y855980D03*
X1094740Y830580D03*
X1094740Y805180D03*
X1094740Y779780D03*
X1094740Y754380D03*
X1094740Y728980D03*
X1094740Y703580D03*
X1094740Y678180D03*
X1094740Y652780D03*
X891540Y881380D03*
X891540Y855980D03*
X891540Y830580D03*
X891540Y805180D03*
X891540Y779780D03*
X891540Y754380D03*
X891540Y1033780D03*
X891540Y1008380D03*
X891540Y982980D03*
X891540Y957580D03*
X891540Y932180D03*
X891540Y906780D03*
M02*
