G04 EAGLE Gerber RS-274X export*
G75*
%MOMM*%
%FSLAX34Y34*%
%LPD*%
%INSoldermask Bottom*%
%IPPOS*%
%AMOC8*
5,1,8,0,0,1.08239X$1,22.5*%
G01*
%ADD10C,3.402000*%
%ADD11C,1.100000*%
%ADD12R,6.100000X1.120000*%
%ADD13R,1.370000X0.760400*%
%ADD14C,1.270000*%
%ADD15C,1.600000*%

G36*
X476315Y777252D02*
X476315Y777252D01*
X476381Y777254D01*
X476424Y777272D01*
X476471Y777280D01*
X476528Y777314D01*
X476588Y777339D01*
X476623Y777370D01*
X476664Y777395D01*
X476706Y777446D01*
X476754Y777490D01*
X476776Y777532D01*
X476805Y777569D01*
X476826Y777631D01*
X476857Y777690D01*
X476865Y777744D01*
X476877Y777781D01*
X476876Y777821D01*
X476884Y777875D01*
X476884Y781685D01*
X476873Y781750D01*
X476871Y781816D01*
X476853Y781859D01*
X476845Y781906D01*
X476811Y781963D01*
X476786Y782023D01*
X476755Y782058D01*
X476730Y782099D01*
X476679Y782141D01*
X476635Y782189D01*
X476593Y782211D01*
X476556Y782240D01*
X476494Y782261D01*
X476435Y782292D01*
X476381Y782300D01*
X476344Y782312D01*
X476304Y782311D01*
X476250Y782319D01*
X473710Y782319D01*
X473645Y782308D01*
X473579Y782306D01*
X473536Y782288D01*
X473489Y782280D01*
X473432Y782246D01*
X473372Y782221D01*
X473337Y782190D01*
X473296Y782165D01*
X473255Y782114D01*
X473206Y782070D01*
X473184Y782028D01*
X473155Y781991D01*
X473134Y781929D01*
X473103Y781870D01*
X473095Y781816D01*
X473083Y781779D01*
X473083Y781775D01*
X473083Y781774D01*
X473084Y781739D01*
X473076Y781685D01*
X473076Y777875D01*
X473087Y777810D01*
X473089Y777744D01*
X473107Y777701D01*
X473115Y777654D01*
X473149Y777597D01*
X473174Y777537D01*
X473205Y777502D01*
X473230Y777461D01*
X473281Y777420D01*
X473325Y777371D01*
X473367Y777349D01*
X473404Y777320D01*
X473466Y777299D01*
X473525Y777268D01*
X473579Y777260D01*
X473616Y777248D01*
X473656Y777249D01*
X473710Y777241D01*
X476250Y777241D01*
X476315Y777252D01*
G37*
G36*
X191835Y777252D02*
X191835Y777252D01*
X191901Y777254D01*
X191944Y777272D01*
X191991Y777280D01*
X192048Y777314D01*
X192108Y777339D01*
X192143Y777370D01*
X192184Y777395D01*
X192226Y777446D01*
X192274Y777490D01*
X192296Y777532D01*
X192325Y777569D01*
X192346Y777631D01*
X192377Y777690D01*
X192385Y777744D01*
X192397Y777781D01*
X192396Y777821D01*
X192404Y777875D01*
X192404Y781685D01*
X192393Y781750D01*
X192391Y781816D01*
X192373Y781859D01*
X192365Y781906D01*
X192331Y781963D01*
X192306Y782023D01*
X192275Y782058D01*
X192250Y782099D01*
X192199Y782141D01*
X192155Y782189D01*
X192113Y782211D01*
X192076Y782240D01*
X192014Y782261D01*
X191955Y782292D01*
X191901Y782300D01*
X191864Y782312D01*
X191824Y782311D01*
X191770Y782319D01*
X189230Y782319D01*
X189165Y782308D01*
X189099Y782306D01*
X189056Y782288D01*
X189009Y782280D01*
X188952Y782246D01*
X188892Y782221D01*
X188857Y782190D01*
X188816Y782165D01*
X188775Y782114D01*
X188726Y782070D01*
X188704Y782028D01*
X188675Y781991D01*
X188654Y781929D01*
X188623Y781870D01*
X188615Y781816D01*
X188603Y781779D01*
X188603Y781775D01*
X188603Y781774D01*
X188604Y781739D01*
X188596Y781685D01*
X188596Y777875D01*
X188607Y777810D01*
X188609Y777744D01*
X188627Y777701D01*
X188635Y777654D01*
X188669Y777597D01*
X188694Y777537D01*
X188725Y777502D01*
X188750Y777461D01*
X188801Y777420D01*
X188845Y777371D01*
X188887Y777349D01*
X188924Y777320D01*
X188986Y777299D01*
X189045Y777268D01*
X189099Y777260D01*
X189136Y777248D01*
X189176Y777249D01*
X189230Y777241D01*
X191770Y777241D01*
X191835Y777252D01*
G37*
G36*
X1045275Y777252D02*
X1045275Y777252D01*
X1045341Y777254D01*
X1045384Y777272D01*
X1045431Y777280D01*
X1045488Y777314D01*
X1045548Y777339D01*
X1045583Y777370D01*
X1045624Y777395D01*
X1045666Y777446D01*
X1045714Y777490D01*
X1045736Y777532D01*
X1045765Y777569D01*
X1045786Y777631D01*
X1045817Y777690D01*
X1045825Y777744D01*
X1045837Y777781D01*
X1045836Y777821D01*
X1045844Y777875D01*
X1045844Y781685D01*
X1045833Y781750D01*
X1045831Y781816D01*
X1045813Y781859D01*
X1045805Y781906D01*
X1045771Y781963D01*
X1045746Y782023D01*
X1045715Y782058D01*
X1045690Y782099D01*
X1045639Y782141D01*
X1045595Y782189D01*
X1045553Y782211D01*
X1045516Y782240D01*
X1045454Y782261D01*
X1045395Y782292D01*
X1045341Y782300D01*
X1045304Y782312D01*
X1045264Y782311D01*
X1045210Y782319D01*
X1042670Y782319D01*
X1042605Y782308D01*
X1042539Y782306D01*
X1042496Y782288D01*
X1042449Y782280D01*
X1042392Y782246D01*
X1042332Y782221D01*
X1042297Y782190D01*
X1042256Y782165D01*
X1042215Y782114D01*
X1042166Y782070D01*
X1042144Y782028D01*
X1042115Y781991D01*
X1042094Y781929D01*
X1042063Y781870D01*
X1042055Y781816D01*
X1042043Y781779D01*
X1042043Y781775D01*
X1042043Y781774D01*
X1042044Y781739D01*
X1042036Y781685D01*
X1042036Y777875D01*
X1042047Y777810D01*
X1042049Y777744D01*
X1042067Y777701D01*
X1042075Y777654D01*
X1042109Y777597D01*
X1042134Y777537D01*
X1042165Y777502D01*
X1042190Y777461D01*
X1042241Y777420D01*
X1042285Y777371D01*
X1042327Y777349D01*
X1042364Y777320D01*
X1042426Y777299D01*
X1042485Y777268D01*
X1042539Y777260D01*
X1042576Y777248D01*
X1042616Y777249D01*
X1042670Y777241D01*
X1045210Y777241D01*
X1045275Y777252D01*
G37*
G36*
X760795Y777252D02*
X760795Y777252D01*
X760861Y777254D01*
X760904Y777272D01*
X760951Y777280D01*
X761008Y777314D01*
X761068Y777339D01*
X761103Y777370D01*
X761144Y777395D01*
X761186Y777446D01*
X761234Y777490D01*
X761256Y777532D01*
X761285Y777569D01*
X761306Y777631D01*
X761337Y777690D01*
X761345Y777744D01*
X761357Y777781D01*
X761356Y777821D01*
X761364Y777875D01*
X761364Y781685D01*
X761353Y781750D01*
X761351Y781816D01*
X761333Y781859D01*
X761325Y781906D01*
X761291Y781963D01*
X761266Y782023D01*
X761235Y782058D01*
X761210Y782099D01*
X761159Y782141D01*
X761115Y782189D01*
X761073Y782211D01*
X761036Y782240D01*
X760974Y782261D01*
X760915Y782292D01*
X760861Y782300D01*
X760824Y782312D01*
X760784Y782311D01*
X760730Y782319D01*
X758190Y782319D01*
X758125Y782308D01*
X758059Y782306D01*
X758016Y782288D01*
X757969Y782280D01*
X757912Y782246D01*
X757852Y782221D01*
X757817Y782190D01*
X757776Y782165D01*
X757735Y782114D01*
X757686Y782070D01*
X757664Y782028D01*
X757635Y781991D01*
X757614Y781929D01*
X757583Y781870D01*
X757575Y781816D01*
X757563Y781779D01*
X757563Y781775D01*
X757563Y781774D01*
X757564Y781739D01*
X757556Y781685D01*
X757556Y777875D01*
X757567Y777810D01*
X757569Y777744D01*
X757587Y777701D01*
X757595Y777654D01*
X757629Y777597D01*
X757654Y777537D01*
X757685Y777502D01*
X757710Y777461D01*
X757761Y777420D01*
X757805Y777371D01*
X757847Y777349D01*
X757884Y777320D01*
X757946Y777299D01*
X758005Y777268D01*
X758059Y777260D01*
X758096Y777248D01*
X758136Y777249D01*
X758190Y777241D01*
X760730Y777241D01*
X760795Y777252D01*
G37*
G36*
X1045275Y706132D02*
X1045275Y706132D01*
X1045341Y706134D01*
X1045384Y706152D01*
X1045431Y706160D01*
X1045488Y706194D01*
X1045548Y706219D01*
X1045583Y706250D01*
X1045624Y706275D01*
X1045666Y706326D01*
X1045714Y706370D01*
X1045736Y706412D01*
X1045765Y706449D01*
X1045786Y706511D01*
X1045817Y706570D01*
X1045825Y706624D01*
X1045837Y706661D01*
X1045836Y706701D01*
X1045844Y706755D01*
X1045844Y710565D01*
X1045833Y710630D01*
X1045831Y710696D01*
X1045813Y710739D01*
X1045805Y710786D01*
X1045771Y710843D01*
X1045746Y710903D01*
X1045715Y710938D01*
X1045690Y710979D01*
X1045639Y711021D01*
X1045595Y711069D01*
X1045553Y711091D01*
X1045516Y711120D01*
X1045454Y711141D01*
X1045395Y711172D01*
X1045341Y711180D01*
X1045304Y711192D01*
X1045264Y711191D01*
X1045210Y711199D01*
X1042670Y711199D01*
X1042605Y711188D01*
X1042539Y711186D01*
X1042496Y711168D01*
X1042449Y711160D01*
X1042392Y711126D01*
X1042332Y711101D01*
X1042297Y711070D01*
X1042256Y711045D01*
X1042215Y710994D01*
X1042166Y710950D01*
X1042144Y710908D01*
X1042115Y710871D01*
X1042094Y710809D01*
X1042063Y710750D01*
X1042055Y710696D01*
X1042043Y710659D01*
X1042043Y710655D01*
X1042043Y710654D01*
X1042044Y710619D01*
X1042036Y710565D01*
X1042036Y706755D01*
X1042047Y706690D01*
X1042049Y706624D01*
X1042067Y706581D01*
X1042075Y706534D01*
X1042109Y706477D01*
X1042134Y706417D01*
X1042165Y706382D01*
X1042190Y706341D01*
X1042241Y706300D01*
X1042285Y706251D01*
X1042327Y706229D01*
X1042364Y706200D01*
X1042426Y706179D01*
X1042485Y706148D01*
X1042539Y706140D01*
X1042576Y706128D01*
X1042616Y706129D01*
X1042670Y706121D01*
X1045210Y706121D01*
X1045275Y706132D01*
G37*
G36*
X760795Y706132D02*
X760795Y706132D01*
X760861Y706134D01*
X760904Y706152D01*
X760951Y706160D01*
X761008Y706194D01*
X761068Y706219D01*
X761103Y706250D01*
X761144Y706275D01*
X761186Y706326D01*
X761234Y706370D01*
X761256Y706412D01*
X761285Y706449D01*
X761306Y706511D01*
X761337Y706570D01*
X761345Y706624D01*
X761357Y706661D01*
X761356Y706701D01*
X761364Y706755D01*
X761364Y710565D01*
X761353Y710630D01*
X761351Y710696D01*
X761333Y710739D01*
X761325Y710786D01*
X761291Y710843D01*
X761266Y710903D01*
X761235Y710938D01*
X761210Y710979D01*
X761159Y711021D01*
X761115Y711069D01*
X761073Y711091D01*
X761036Y711120D01*
X760974Y711141D01*
X760915Y711172D01*
X760861Y711180D01*
X760824Y711192D01*
X760784Y711191D01*
X760730Y711199D01*
X758190Y711199D01*
X758125Y711188D01*
X758059Y711186D01*
X758016Y711168D01*
X757969Y711160D01*
X757912Y711126D01*
X757852Y711101D01*
X757817Y711070D01*
X757776Y711045D01*
X757735Y710994D01*
X757686Y710950D01*
X757664Y710908D01*
X757635Y710871D01*
X757614Y710809D01*
X757583Y710750D01*
X757575Y710696D01*
X757563Y710659D01*
X757563Y710655D01*
X757563Y710654D01*
X757564Y710619D01*
X757556Y710565D01*
X757556Y706755D01*
X757567Y706690D01*
X757569Y706624D01*
X757587Y706581D01*
X757595Y706534D01*
X757629Y706477D01*
X757654Y706417D01*
X757685Y706382D01*
X757710Y706341D01*
X757761Y706300D01*
X757805Y706251D01*
X757847Y706229D01*
X757884Y706200D01*
X757946Y706179D01*
X758005Y706148D01*
X758059Y706140D01*
X758096Y706128D01*
X758136Y706129D01*
X758190Y706121D01*
X760730Y706121D01*
X760795Y706132D01*
G37*
G36*
X476315Y706132D02*
X476315Y706132D01*
X476381Y706134D01*
X476424Y706152D01*
X476471Y706160D01*
X476528Y706194D01*
X476588Y706219D01*
X476623Y706250D01*
X476664Y706275D01*
X476706Y706326D01*
X476754Y706370D01*
X476776Y706412D01*
X476805Y706449D01*
X476826Y706511D01*
X476857Y706570D01*
X476865Y706624D01*
X476877Y706661D01*
X476876Y706701D01*
X476884Y706755D01*
X476884Y710565D01*
X476873Y710630D01*
X476871Y710696D01*
X476853Y710739D01*
X476845Y710786D01*
X476811Y710843D01*
X476786Y710903D01*
X476755Y710938D01*
X476730Y710979D01*
X476679Y711021D01*
X476635Y711069D01*
X476593Y711091D01*
X476556Y711120D01*
X476494Y711141D01*
X476435Y711172D01*
X476381Y711180D01*
X476344Y711192D01*
X476304Y711191D01*
X476250Y711199D01*
X473710Y711199D01*
X473645Y711188D01*
X473579Y711186D01*
X473536Y711168D01*
X473489Y711160D01*
X473432Y711126D01*
X473372Y711101D01*
X473337Y711070D01*
X473296Y711045D01*
X473255Y710994D01*
X473206Y710950D01*
X473184Y710908D01*
X473155Y710871D01*
X473134Y710809D01*
X473103Y710750D01*
X473095Y710696D01*
X473083Y710659D01*
X473083Y710655D01*
X473083Y710654D01*
X473084Y710619D01*
X473076Y710565D01*
X473076Y706755D01*
X473087Y706690D01*
X473089Y706624D01*
X473107Y706581D01*
X473115Y706534D01*
X473149Y706477D01*
X473174Y706417D01*
X473205Y706382D01*
X473230Y706341D01*
X473281Y706300D01*
X473325Y706251D01*
X473367Y706229D01*
X473404Y706200D01*
X473466Y706179D01*
X473525Y706148D01*
X473579Y706140D01*
X473616Y706128D01*
X473656Y706129D01*
X473710Y706121D01*
X476250Y706121D01*
X476315Y706132D01*
G37*
G36*
X191835Y706132D02*
X191835Y706132D01*
X191901Y706134D01*
X191944Y706152D01*
X191991Y706160D01*
X192048Y706194D01*
X192108Y706219D01*
X192143Y706250D01*
X192184Y706275D01*
X192226Y706326D01*
X192274Y706370D01*
X192296Y706412D01*
X192325Y706449D01*
X192346Y706511D01*
X192377Y706570D01*
X192385Y706624D01*
X192397Y706661D01*
X192396Y706701D01*
X192404Y706755D01*
X192404Y710565D01*
X192393Y710630D01*
X192391Y710696D01*
X192373Y710739D01*
X192365Y710786D01*
X192331Y710843D01*
X192306Y710903D01*
X192275Y710938D01*
X192250Y710979D01*
X192199Y711021D01*
X192155Y711069D01*
X192113Y711091D01*
X192076Y711120D01*
X192014Y711141D01*
X191955Y711172D01*
X191901Y711180D01*
X191864Y711192D01*
X191824Y711191D01*
X191770Y711199D01*
X189230Y711199D01*
X189165Y711188D01*
X189099Y711186D01*
X189056Y711168D01*
X189009Y711160D01*
X188952Y711126D01*
X188892Y711101D01*
X188857Y711070D01*
X188816Y711045D01*
X188775Y710994D01*
X188726Y710950D01*
X188704Y710908D01*
X188675Y710871D01*
X188654Y710809D01*
X188623Y710750D01*
X188615Y710696D01*
X188603Y710659D01*
X188603Y710655D01*
X188603Y710654D01*
X188604Y710619D01*
X188596Y710565D01*
X188596Y706755D01*
X188607Y706690D01*
X188609Y706624D01*
X188627Y706581D01*
X188635Y706534D01*
X188669Y706477D01*
X188694Y706417D01*
X188725Y706382D01*
X188750Y706341D01*
X188801Y706300D01*
X188845Y706251D01*
X188887Y706229D01*
X188924Y706200D01*
X188986Y706179D01*
X189045Y706148D01*
X189099Y706140D01*
X189136Y706128D01*
X189176Y706129D01*
X189230Y706121D01*
X191770Y706121D01*
X191835Y706132D01*
G37*
G36*
X1045275Y187972D02*
X1045275Y187972D01*
X1045341Y187974D01*
X1045384Y187992D01*
X1045431Y188000D01*
X1045488Y188034D01*
X1045548Y188059D01*
X1045583Y188090D01*
X1045624Y188115D01*
X1045666Y188166D01*
X1045714Y188210D01*
X1045736Y188252D01*
X1045765Y188289D01*
X1045786Y188351D01*
X1045817Y188410D01*
X1045825Y188464D01*
X1045837Y188501D01*
X1045836Y188541D01*
X1045844Y188595D01*
X1045844Y192405D01*
X1045833Y192470D01*
X1045831Y192536D01*
X1045813Y192579D01*
X1045805Y192626D01*
X1045771Y192683D01*
X1045746Y192743D01*
X1045715Y192778D01*
X1045690Y192819D01*
X1045639Y192861D01*
X1045595Y192909D01*
X1045553Y192931D01*
X1045516Y192960D01*
X1045454Y192981D01*
X1045395Y193012D01*
X1045341Y193020D01*
X1045304Y193032D01*
X1045264Y193031D01*
X1045210Y193039D01*
X1042670Y193039D01*
X1042605Y193028D01*
X1042539Y193026D01*
X1042496Y193008D01*
X1042449Y193000D01*
X1042392Y192966D01*
X1042332Y192941D01*
X1042297Y192910D01*
X1042256Y192885D01*
X1042215Y192834D01*
X1042166Y192790D01*
X1042144Y192748D01*
X1042115Y192711D01*
X1042094Y192649D01*
X1042063Y192590D01*
X1042055Y192536D01*
X1042043Y192499D01*
X1042043Y192495D01*
X1042043Y192494D01*
X1042044Y192459D01*
X1042036Y192405D01*
X1042036Y188595D01*
X1042047Y188530D01*
X1042049Y188464D01*
X1042067Y188421D01*
X1042075Y188374D01*
X1042109Y188317D01*
X1042134Y188257D01*
X1042165Y188222D01*
X1042190Y188181D01*
X1042241Y188140D01*
X1042285Y188091D01*
X1042327Y188069D01*
X1042364Y188040D01*
X1042426Y188019D01*
X1042485Y187988D01*
X1042539Y187980D01*
X1042576Y187968D01*
X1042616Y187969D01*
X1042670Y187961D01*
X1045210Y187961D01*
X1045275Y187972D01*
G37*
G36*
X760795Y187972D02*
X760795Y187972D01*
X760861Y187974D01*
X760904Y187992D01*
X760951Y188000D01*
X761008Y188034D01*
X761068Y188059D01*
X761103Y188090D01*
X761144Y188115D01*
X761186Y188166D01*
X761234Y188210D01*
X761256Y188252D01*
X761285Y188289D01*
X761306Y188351D01*
X761337Y188410D01*
X761345Y188464D01*
X761357Y188501D01*
X761356Y188541D01*
X761364Y188595D01*
X761364Y192405D01*
X761353Y192470D01*
X761351Y192536D01*
X761333Y192579D01*
X761325Y192626D01*
X761291Y192683D01*
X761266Y192743D01*
X761235Y192778D01*
X761210Y192819D01*
X761159Y192861D01*
X761115Y192909D01*
X761073Y192931D01*
X761036Y192960D01*
X760974Y192981D01*
X760915Y193012D01*
X760861Y193020D01*
X760824Y193032D01*
X760784Y193031D01*
X760730Y193039D01*
X758190Y193039D01*
X758125Y193028D01*
X758059Y193026D01*
X758016Y193008D01*
X757969Y193000D01*
X757912Y192966D01*
X757852Y192941D01*
X757817Y192910D01*
X757776Y192885D01*
X757735Y192834D01*
X757686Y192790D01*
X757664Y192748D01*
X757635Y192711D01*
X757614Y192649D01*
X757583Y192590D01*
X757575Y192536D01*
X757563Y192499D01*
X757563Y192495D01*
X757563Y192494D01*
X757564Y192459D01*
X757556Y192405D01*
X757556Y188595D01*
X757567Y188530D01*
X757569Y188464D01*
X757587Y188421D01*
X757595Y188374D01*
X757629Y188317D01*
X757654Y188257D01*
X757685Y188222D01*
X757710Y188181D01*
X757761Y188140D01*
X757805Y188091D01*
X757847Y188069D01*
X757884Y188040D01*
X757946Y188019D01*
X758005Y187988D01*
X758059Y187980D01*
X758096Y187968D01*
X758136Y187969D01*
X758190Y187961D01*
X760730Y187961D01*
X760795Y187972D01*
G37*
G36*
X476315Y187972D02*
X476315Y187972D01*
X476381Y187974D01*
X476424Y187992D01*
X476471Y188000D01*
X476528Y188034D01*
X476588Y188059D01*
X476623Y188090D01*
X476664Y188115D01*
X476706Y188166D01*
X476754Y188210D01*
X476776Y188252D01*
X476805Y188289D01*
X476826Y188351D01*
X476857Y188410D01*
X476865Y188464D01*
X476877Y188501D01*
X476876Y188541D01*
X476884Y188595D01*
X476884Y192405D01*
X476873Y192470D01*
X476871Y192536D01*
X476853Y192579D01*
X476845Y192626D01*
X476811Y192683D01*
X476786Y192743D01*
X476755Y192778D01*
X476730Y192819D01*
X476679Y192861D01*
X476635Y192909D01*
X476593Y192931D01*
X476556Y192960D01*
X476494Y192981D01*
X476435Y193012D01*
X476381Y193020D01*
X476344Y193032D01*
X476304Y193031D01*
X476250Y193039D01*
X473710Y193039D01*
X473645Y193028D01*
X473579Y193026D01*
X473536Y193008D01*
X473489Y193000D01*
X473432Y192966D01*
X473372Y192941D01*
X473337Y192910D01*
X473296Y192885D01*
X473255Y192834D01*
X473206Y192790D01*
X473184Y192748D01*
X473155Y192711D01*
X473134Y192649D01*
X473103Y192590D01*
X473095Y192536D01*
X473083Y192499D01*
X473083Y192495D01*
X473083Y192494D01*
X473084Y192459D01*
X473076Y192405D01*
X473076Y188595D01*
X473087Y188530D01*
X473089Y188464D01*
X473107Y188421D01*
X473115Y188374D01*
X473149Y188317D01*
X473174Y188257D01*
X473205Y188222D01*
X473230Y188181D01*
X473281Y188140D01*
X473325Y188091D01*
X473367Y188069D01*
X473404Y188040D01*
X473466Y188019D01*
X473525Y187988D01*
X473579Y187980D01*
X473616Y187968D01*
X473656Y187969D01*
X473710Y187961D01*
X476250Y187961D01*
X476315Y187972D01*
G37*
G36*
X191835Y187972D02*
X191835Y187972D01*
X191901Y187974D01*
X191944Y187992D01*
X191991Y188000D01*
X192048Y188034D01*
X192108Y188059D01*
X192143Y188090D01*
X192184Y188115D01*
X192226Y188166D01*
X192274Y188210D01*
X192296Y188252D01*
X192325Y188289D01*
X192346Y188351D01*
X192377Y188410D01*
X192385Y188464D01*
X192397Y188501D01*
X192396Y188541D01*
X192404Y188595D01*
X192404Y192405D01*
X192393Y192470D01*
X192391Y192536D01*
X192373Y192579D01*
X192365Y192626D01*
X192331Y192683D01*
X192306Y192743D01*
X192275Y192778D01*
X192250Y192819D01*
X192199Y192861D01*
X192155Y192909D01*
X192113Y192931D01*
X192076Y192960D01*
X192014Y192981D01*
X191955Y193012D01*
X191901Y193020D01*
X191864Y193032D01*
X191824Y193031D01*
X191770Y193039D01*
X189230Y193039D01*
X189165Y193028D01*
X189099Y193026D01*
X189056Y193008D01*
X189009Y193000D01*
X188952Y192966D01*
X188892Y192941D01*
X188857Y192910D01*
X188816Y192885D01*
X188775Y192834D01*
X188726Y192790D01*
X188704Y192748D01*
X188675Y192711D01*
X188654Y192649D01*
X188623Y192590D01*
X188615Y192536D01*
X188603Y192499D01*
X188603Y192495D01*
X188603Y192494D01*
X188604Y192459D01*
X188596Y192405D01*
X188596Y188595D01*
X188607Y188530D01*
X188609Y188464D01*
X188627Y188421D01*
X188635Y188374D01*
X188669Y188317D01*
X188694Y188257D01*
X188725Y188222D01*
X188750Y188181D01*
X188801Y188140D01*
X188845Y188091D01*
X188887Y188069D01*
X188924Y188040D01*
X188986Y188019D01*
X189045Y187988D01*
X189099Y187980D01*
X189136Y187968D01*
X189176Y187969D01*
X189230Y187961D01*
X191770Y187961D01*
X191835Y187972D01*
G37*
G36*
X760795Y116852D02*
X760795Y116852D01*
X760861Y116854D01*
X760904Y116872D01*
X760951Y116880D01*
X761008Y116914D01*
X761068Y116939D01*
X761103Y116970D01*
X761144Y116995D01*
X761186Y117046D01*
X761234Y117090D01*
X761256Y117132D01*
X761285Y117169D01*
X761306Y117231D01*
X761337Y117290D01*
X761345Y117344D01*
X761357Y117381D01*
X761356Y117421D01*
X761364Y117475D01*
X761364Y121285D01*
X761353Y121350D01*
X761351Y121416D01*
X761333Y121459D01*
X761325Y121506D01*
X761291Y121563D01*
X761266Y121623D01*
X761235Y121658D01*
X761210Y121699D01*
X761159Y121741D01*
X761115Y121789D01*
X761073Y121811D01*
X761036Y121840D01*
X760974Y121861D01*
X760915Y121892D01*
X760861Y121900D01*
X760824Y121912D01*
X760784Y121911D01*
X760730Y121919D01*
X758190Y121919D01*
X758125Y121908D01*
X758059Y121906D01*
X758016Y121888D01*
X757969Y121880D01*
X757912Y121846D01*
X757852Y121821D01*
X757817Y121790D01*
X757776Y121765D01*
X757735Y121714D01*
X757686Y121670D01*
X757664Y121628D01*
X757635Y121591D01*
X757614Y121529D01*
X757583Y121470D01*
X757575Y121416D01*
X757563Y121379D01*
X757563Y121375D01*
X757563Y121374D01*
X757564Y121339D01*
X757556Y121285D01*
X757556Y117475D01*
X757567Y117410D01*
X757569Y117344D01*
X757587Y117301D01*
X757595Y117254D01*
X757629Y117197D01*
X757654Y117137D01*
X757685Y117102D01*
X757710Y117061D01*
X757761Y117020D01*
X757805Y116971D01*
X757847Y116949D01*
X757884Y116920D01*
X757946Y116899D01*
X758005Y116868D01*
X758059Y116860D01*
X758096Y116848D01*
X758136Y116849D01*
X758190Y116841D01*
X760730Y116841D01*
X760795Y116852D01*
G37*
G36*
X1045275Y116852D02*
X1045275Y116852D01*
X1045341Y116854D01*
X1045384Y116872D01*
X1045431Y116880D01*
X1045488Y116914D01*
X1045548Y116939D01*
X1045583Y116970D01*
X1045624Y116995D01*
X1045666Y117046D01*
X1045714Y117090D01*
X1045736Y117132D01*
X1045765Y117169D01*
X1045786Y117231D01*
X1045817Y117290D01*
X1045825Y117344D01*
X1045837Y117381D01*
X1045836Y117421D01*
X1045844Y117475D01*
X1045844Y121285D01*
X1045833Y121350D01*
X1045831Y121416D01*
X1045813Y121459D01*
X1045805Y121506D01*
X1045771Y121563D01*
X1045746Y121623D01*
X1045715Y121658D01*
X1045690Y121699D01*
X1045639Y121741D01*
X1045595Y121789D01*
X1045553Y121811D01*
X1045516Y121840D01*
X1045454Y121861D01*
X1045395Y121892D01*
X1045341Y121900D01*
X1045304Y121912D01*
X1045264Y121911D01*
X1045210Y121919D01*
X1042670Y121919D01*
X1042605Y121908D01*
X1042539Y121906D01*
X1042496Y121888D01*
X1042449Y121880D01*
X1042392Y121846D01*
X1042332Y121821D01*
X1042297Y121790D01*
X1042256Y121765D01*
X1042215Y121714D01*
X1042166Y121670D01*
X1042144Y121628D01*
X1042115Y121591D01*
X1042094Y121529D01*
X1042063Y121470D01*
X1042055Y121416D01*
X1042043Y121379D01*
X1042043Y121375D01*
X1042043Y121374D01*
X1042044Y121339D01*
X1042036Y121285D01*
X1042036Y117475D01*
X1042047Y117410D01*
X1042049Y117344D01*
X1042067Y117301D01*
X1042075Y117254D01*
X1042109Y117197D01*
X1042134Y117137D01*
X1042165Y117102D01*
X1042190Y117061D01*
X1042241Y117020D01*
X1042285Y116971D01*
X1042327Y116949D01*
X1042364Y116920D01*
X1042426Y116899D01*
X1042485Y116868D01*
X1042539Y116860D01*
X1042576Y116848D01*
X1042616Y116849D01*
X1042670Y116841D01*
X1045210Y116841D01*
X1045275Y116852D01*
G37*
G36*
X476315Y116852D02*
X476315Y116852D01*
X476381Y116854D01*
X476424Y116872D01*
X476471Y116880D01*
X476528Y116914D01*
X476588Y116939D01*
X476623Y116970D01*
X476664Y116995D01*
X476706Y117046D01*
X476754Y117090D01*
X476776Y117132D01*
X476805Y117169D01*
X476826Y117231D01*
X476857Y117290D01*
X476865Y117344D01*
X476877Y117381D01*
X476876Y117421D01*
X476884Y117475D01*
X476884Y121285D01*
X476873Y121350D01*
X476871Y121416D01*
X476853Y121459D01*
X476845Y121506D01*
X476811Y121563D01*
X476786Y121623D01*
X476755Y121658D01*
X476730Y121699D01*
X476679Y121741D01*
X476635Y121789D01*
X476593Y121811D01*
X476556Y121840D01*
X476494Y121861D01*
X476435Y121892D01*
X476381Y121900D01*
X476344Y121912D01*
X476304Y121911D01*
X476250Y121919D01*
X473710Y121919D01*
X473645Y121908D01*
X473579Y121906D01*
X473536Y121888D01*
X473489Y121880D01*
X473432Y121846D01*
X473372Y121821D01*
X473337Y121790D01*
X473296Y121765D01*
X473255Y121714D01*
X473206Y121670D01*
X473184Y121628D01*
X473155Y121591D01*
X473134Y121529D01*
X473103Y121470D01*
X473095Y121416D01*
X473083Y121379D01*
X473083Y121375D01*
X473083Y121374D01*
X473084Y121339D01*
X473076Y121285D01*
X473076Y117475D01*
X473087Y117410D01*
X473089Y117344D01*
X473107Y117301D01*
X473115Y117254D01*
X473149Y117197D01*
X473174Y117137D01*
X473205Y117102D01*
X473230Y117061D01*
X473281Y117020D01*
X473325Y116971D01*
X473367Y116949D01*
X473404Y116920D01*
X473466Y116899D01*
X473525Y116868D01*
X473579Y116860D01*
X473616Y116848D01*
X473656Y116849D01*
X473710Y116841D01*
X476250Y116841D01*
X476315Y116852D01*
G37*
G36*
X191835Y116852D02*
X191835Y116852D01*
X191901Y116854D01*
X191944Y116872D01*
X191991Y116880D01*
X192048Y116914D01*
X192108Y116939D01*
X192143Y116970D01*
X192184Y116995D01*
X192226Y117046D01*
X192274Y117090D01*
X192296Y117132D01*
X192325Y117169D01*
X192346Y117231D01*
X192377Y117290D01*
X192385Y117344D01*
X192397Y117381D01*
X192396Y117421D01*
X192404Y117475D01*
X192404Y121285D01*
X192393Y121350D01*
X192391Y121416D01*
X192373Y121459D01*
X192365Y121506D01*
X192331Y121563D01*
X192306Y121623D01*
X192275Y121658D01*
X192250Y121699D01*
X192199Y121741D01*
X192155Y121789D01*
X192113Y121811D01*
X192076Y121840D01*
X192014Y121861D01*
X191955Y121892D01*
X191901Y121900D01*
X191864Y121912D01*
X191824Y121911D01*
X191770Y121919D01*
X189230Y121919D01*
X189165Y121908D01*
X189099Y121906D01*
X189056Y121888D01*
X189009Y121880D01*
X188952Y121846D01*
X188892Y121821D01*
X188857Y121790D01*
X188816Y121765D01*
X188775Y121714D01*
X188726Y121670D01*
X188704Y121628D01*
X188675Y121591D01*
X188654Y121529D01*
X188623Y121470D01*
X188615Y121416D01*
X188603Y121379D01*
X188603Y121375D01*
X188603Y121374D01*
X188604Y121339D01*
X188596Y121285D01*
X188596Y117475D01*
X188607Y117410D01*
X188609Y117344D01*
X188627Y117301D01*
X188635Y117254D01*
X188669Y117197D01*
X188694Y117137D01*
X188725Y117102D01*
X188750Y117061D01*
X188801Y117020D01*
X188845Y116971D01*
X188887Y116949D01*
X188924Y116920D01*
X188986Y116899D01*
X189045Y116868D01*
X189099Y116860D01*
X189136Y116848D01*
X189176Y116849D01*
X189230Y116841D01*
X191770Y116841D01*
X191835Y116852D01*
G37*
D10*
X50800Y25400D03*
X228600Y25400D03*
X228600Y482600D03*
X50800Y482600D03*
X335280Y25400D03*
X513080Y25400D03*
X513080Y482600D03*
X335280Y482600D03*
X619760Y25400D03*
X797560Y25400D03*
X797560Y482600D03*
X619760Y482600D03*
X904240Y25400D03*
X1082040Y25400D03*
X1082040Y482600D03*
X904240Y482600D03*
X50800Y614680D03*
X228600Y614680D03*
X228600Y1071880D03*
X50800Y1071880D03*
X335280Y614680D03*
X513080Y614680D03*
X513080Y1071880D03*
X335280Y1071880D03*
X619760Y614680D03*
X797560Y614680D03*
X797560Y1071880D03*
X619760Y1071880D03*
X904240Y614680D03*
X1082040Y614680D03*
X1082040Y1071880D03*
X904240Y1071880D03*
D11*
X254000Y495300D03*
X25400Y12700D03*
D12*
X241300Y444500D03*
X241300Y419100D03*
X241300Y393700D03*
X241300Y368300D03*
X241300Y342900D03*
X241300Y317500D03*
X241300Y292100D03*
X241300Y266700D03*
X241300Y241300D03*
X241300Y215900D03*
X241300Y190500D03*
X241300Y165100D03*
X241300Y139700D03*
X241300Y114300D03*
X241300Y88900D03*
X241300Y63500D03*
D13*
X190500Y195707D03*
X190500Y185293D03*
D12*
X38100Y292100D03*
X38100Y266700D03*
X38100Y241300D03*
X38100Y215900D03*
X38100Y190500D03*
X38100Y165100D03*
X38100Y444500D03*
X38100Y419100D03*
X38100Y393700D03*
X38100Y368300D03*
X38100Y342900D03*
X38100Y317500D03*
D13*
X190500Y103886D03*
X190500Y114300D03*
X190500Y124714D03*
D11*
X538480Y495300D03*
X309880Y12700D03*
D12*
X525780Y444500D03*
X525780Y419100D03*
X525780Y393700D03*
X525780Y368300D03*
X525780Y342900D03*
X525780Y317500D03*
X525780Y292100D03*
X525780Y266700D03*
X525780Y241300D03*
X525780Y215900D03*
X525780Y190500D03*
X525780Y165100D03*
X525780Y139700D03*
X525780Y114300D03*
X525780Y88900D03*
X525780Y63500D03*
D13*
X474980Y195707D03*
X474980Y185293D03*
D12*
X322580Y292100D03*
X322580Y266700D03*
X322580Y241300D03*
X322580Y215900D03*
X322580Y190500D03*
X322580Y165100D03*
X322580Y444500D03*
X322580Y419100D03*
X322580Y393700D03*
X322580Y368300D03*
X322580Y342900D03*
X322580Y317500D03*
D13*
X474980Y103886D03*
X474980Y114300D03*
X474980Y124714D03*
D11*
X822960Y495300D03*
X594360Y12700D03*
D12*
X810260Y444500D03*
X810260Y419100D03*
X810260Y393700D03*
X810260Y368300D03*
X810260Y342900D03*
X810260Y317500D03*
X810260Y292100D03*
X810260Y266700D03*
X810260Y241300D03*
X810260Y215900D03*
X810260Y190500D03*
X810260Y165100D03*
X810260Y139700D03*
X810260Y114300D03*
X810260Y88900D03*
X810260Y63500D03*
D13*
X759460Y195707D03*
X759460Y185293D03*
D12*
X607060Y292100D03*
X607060Y266700D03*
X607060Y241300D03*
X607060Y215900D03*
X607060Y190500D03*
X607060Y165100D03*
X607060Y444500D03*
X607060Y419100D03*
X607060Y393700D03*
X607060Y368300D03*
X607060Y342900D03*
X607060Y317500D03*
D13*
X759460Y103886D03*
X759460Y114300D03*
X759460Y124714D03*
D11*
X1107440Y495300D03*
X878840Y12700D03*
D12*
X1094740Y444500D03*
X1094740Y419100D03*
X1094740Y393700D03*
X1094740Y368300D03*
X1094740Y342900D03*
X1094740Y317500D03*
X1094740Y292100D03*
X1094740Y266700D03*
X1094740Y241300D03*
X1094740Y215900D03*
X1094740Y190500D03*
X1094740Y165100D03*
X1094740Y139700D03*
X1094740Y114300D03*
X1094740Y88900D03*
X1094740Y63500D03*
D13*
X1043940Y195707D03*
X1043940Y185293D03*
D12*
X891540Y292100D03*
X891540Y266700D03*
X891540Y241300D03*
X891540Y215900D03*
X891540Y190500D03*
X891540Y165100D03*
X891540Y444500D03*
X891540Y419100D03*
X891540Y393700D03*
X891540Y368300D03*
X891540Y342900D03*
X891540Y317500D03*
D13*
X1043940Y103886D03*
X1043940Y114300D03*
X1043940Y124714D03*
D11*
X254000Y1084580D03*
X25400Y601980D03*
D12*
X241300Y1033780D03*
X241300Y1008380D03*
X241300Y982980D03*
X241300Y957580D03*
X241300Y932180D03*
X241300Y906780D03*
X241300Y881380D03*
X241300Y855980D03*
X241300Y830580D03*
X241300Y805180D03*
X241300Y779780D03*
X241300Y754380D03*
X241300Y728980D03*
X241300Y703580D03*
X241300Y678180D03*
X241300Y652780D03*
D13*
X190500Y784987D03*
X190500Y774573D03*
D12*
X38100Y881380D03*
X38100Y855980D03*
X38100Y830580D03*
X38100Y805180D03*
X38100Y779780D03*
X38100Y754380D03*
X38100Y1033780D03*
X38100Y1008380D03*
X38100Y982980D03*
X38100Y957580D03*
X38100Y932180D03*
X38100Y906780D03*
D13*
X190500Y693166D03*
X190500Y703580D03*
X190500Y713994D03*
D11*
X538480Y1084580D03*
X309880Y601980D03*
D12*
X525780Y1033780D03*
X525780Y1008380D03*
X525780Y982980D03*
X525780Y957580D03*
X525780Y932180D03*
X525780Y906780D03*
X525780Y881380D03*
X525780Y855980D03*
X525780Y830580D03*
X525780Y805180D03*
X525780Y779780D03*
X525780Y754380D03*
X525780Y728980D03*
X525780Y703580D03*
X525780Y678180D03*
X525780Y652780D03*
D13*
X474980Y784987D03*
X474980Y774573D03*
D12*
X322580Y881380D03*
X322580Y855980D03*
X322580Y830580D03*
X322580Y805180D03*
X322580Y779780D03*
X322580Y754380D03*
X322580Y1033780D03*
X322580Y1008380D03*
X322580Y982980D03*
X322580Y957580D03*
X322580Y932180D03*
X322580Y906780D03*
D13*
X474980Y693166D03*
X474980Y703580D03*
X474980Y713994D03*
D11*
X822960Y1084580D03*
X594360Y601980D03*
D12*
X810260Y1033780D03*
X810260Y1008380D03*
X810260Y982980D03*
X810260Y957580D03*
X810260Y932180D03*
X810260Y906780D03*
X810260Y881380D03*
X810260Y855980D03*
X810260Y830580D03*
X810260Y805180D03*
X810260Y779780D03*
X810260Y754380D03*
X810260Y728980D03*
X810260Y703580D03*
X810260Y678180D03*
X810260Y652780D03*
D13*
X759460Y784987D03*
X759460Y774573D03*
D12*
X607060Y881380D03*
X607060Y855980D03*
X607060Y830580D03*
X607060Y805180D03*
X607060Y779780D03*
X607060Y754380D03*
X607060Y1033780D03*
X607060Y1008380D03*
X607060Y982980D03*
X607060Y957580D03*
X607060Y932180D03*
X607060Y906780D03*
D13*
X759460Y693166D03*
X759460Y703580D03*
X759460Y713994D03*
D11*
X1107440Y1084580D03*
X878840Y601980D03*
D12*
X1094740Y1033780D03*
X1094740Y1008380D03*
X1094740Y982980D03*
X1094740Y957580D03*
X1094740Y932180D03*
X1094740Y906780D03*
X1094740Y881380D03*
X1094740Y855980D03*
X1094740Y830580D03*
X1094740Y805180D03*
X1094740Y779780D03*
X1094740Y754380D03*
X1094740Y728980D03*
X1094740Y703580D03*
X1094740Y678180D03*
X1094740Y652780D03*
D13*
X1043940Y784987D03*
X1043940Y774573D03*
D12*
X891540Y881380D03*
X891540Y855980D03*
X891540Y830580D03*
X891540Y805180D03*
X891540Y779780D03*
X891540Y754380D03*
X891540Y1033780D03*
X891540Y1008380D03*
X891540Y982980D03*
X891540Y957580D03*
X891540Y932180D03*
X891540Y906780D03*
D13*
X1043940Y693166D03*
X1043940Y703580D03*
X1043940Y713994D03*
D11*
X-26238Y1146810D03*
X1159078Y1146810D03*
D14*
X-35293Y63500D02*
X-35290Y63722D01*
X-35282Y63944D01*
X-35268Y64166D01*
X-35249Y64388D01*
X-35225Y64608D01*
X-35195Y64829D01*
X-35160Y65048D01*
X-35119Y65267D01*
X-35073Y65484D01*
X-35022Y65700D01*
X-34965Y65915D01*
X-34903Y66129D01*
X-34836Y66340D01*
X-34764Y66551D01*
X-34686Y66759D01*
X-34604Y66965D01*
X-34516Y67169D01*
X-34424Y67372D01*
X-34326Y67571D01*
X-34224Y67768D01*
X-34117Y67963D01*
X-34005Y68155D01*
X-33888Y68344D01*
X-33767Y68531D01*
X-33641Y68714D01*
X-33511Y68894D01*
X-33376Y69071D01*
X-33238Y69244D01*
X-33095Y69414D01*
X-32947Y69581D01*
X-32796Y69744D01*
X-32641Y69903D01*
X-32482Y70058D01*
X-32319Y70209D01*
X-32152Y70357D01*
X-31982Y70500D01*
X-31809Y70638D01*
X-31632Y70773D01*
X-31452Y70903D01*
X-31269Y71029D01*
X-31082Y71150D01*
X-30893Y71267D01*
X-30701Y71379D01*
X-30506Y71486D01*
X-30309Y71588D01*
X-30110Y71686D01*
X-29907Y71778D01*
X-29703Y71866D01*
X-29497Y71948D01*
X-29289Y72026D01*
X-29078Y72098D01*
X-28867Y72165D01*
X-28653Y72227D01*
X-28438Y72284D01*
X-28222Y72335D01*
X-28005Y72381D01*
X-27786Y72422D01*
X-27567Y72457D01*
X-27346Y72487D01*
X-27126Y72511D01*
X-26904Y72530D01*
X-26682Y72544D01*
X-26460Y72552D01*
X-26238Y72555D01*
X-26016Y72552D01*
X-25794Y72544D01*
X-25572Y72530D01*
X-25350Y72511D01*
X-25130Y72487D01*
X-24909Y72457D01*
X-24690Y72422D01*
X-24471Y72381D01*
X-24254Y72335D01*
X-24038Y72284D01*
X-23823Y72227D01*
X-23609Y72165D01*
X-23398Y72098D01*
X-23187Y72026D01*
X-22979Y71948D01*
X-22773Y71866D01*
X-22569Y71778D01*
X-22366Y71686D01*
X-22167Y71588D01*
X-21970Y71486D01*
X-21775Y71379D01*
X-21583Y71267D01*
X-21394Y71150D01*
X-21207Y71029D01*
X-21024Y70903D01*
X-20844Y70773D01*
X-20667Y70638D01*
X-20494Y70500D01*
X-20324Y70357D01*
X-20157Y70209D01*
X-19994Y70058D01*
X-19835Y69903D01*
X-19680Y69744D01*
X-19529Y69581D01*
X-19381Y69414D01*
X-19238Y69244D01*
X-19100Y69071D01*
X-18965Y68894D01*
X-18835Y68714D01*
X-18709Y68531D01*
X-18588Y68344D01*
X-18471Y68155D01*
X-18359Y67963D01*
X-18252Y67768D01*
X-18150Y67571D01*
X-18052Y67372D01*
X-17960Y67169D01*
X-17872Y66965D01*
X-17790Y66759D01*
X-17712Y66551D01*
X-17640Y66340D01*
X-17573Y66129D01*
X-17511Y65915D01*
X-17454Y65700D01*
X-17403Y65484D01*
X-17357Y65267D01*
X-17316Y65048D01*
X-17281Y64829D01*
X-17251Y64608D01*
X-17227Y64388D01*
X-17208Y64166D01*
X-17194Y63944D01*
X-17186Y63722D01*
X-17183Y63500D01*
X-17186Y63278D01*
X-17194Y63056D01*
X-17208Y62834D01*
X-17227Y62612D01*
X-17251Y62392D01*
X-17281Y62171D01*
X-17316Y61952D01*
X-17357Y61733D01*
X-17403Y61516D01*
X-17454Y61300D01*
X-17511Y61085D01*
X-17573Y60871D01*
X-17640Y60660D01*
X-17712Y60449D01*
X-17790Y60241D01*
X-17872Y60035D01*
X-17960Y59831D01*
X-18052Y59628D01*
X-18150Y59429D01*
X-18252Y59232D01*
X-18359Y59037D01*
X-18471Y58845D01*
X-18588Y58656D01*
X-18709Y58469D01*
X-18835Y58286D01*
X-18965Y58106D01*
X-19100Y57929D01*
X-19238Y57756D01*
X-19381Y57586D01*
X-19529Y57419D01*
X-19680Y57256D01*
X-19835Y57097D01*
X-19994Y56942D01*
X-20157Y56791D01*
X-20324Y56643D01*
X-20494Y56500D01*
X-20667Y56362D01*
X-20844Y56227D01*
X-21024Y56097D01*
X-21207Y55971D01*
X-21394Y55850D01*
X-21583Y55733D01*
X-21775Y55621D01*
X-21970Y55514D01*
X-22167Y55412D01*
X-22366Y55314D01*
X-22569Y55222D01*
X-22773Y55134D01*
X-22979Y55052D01*
X-23187Y54974D01*
X-23398Y54902D01*
X-23609Y54835D01*
X-23823Y54773D01*
X-24038Y54716D01*
X-24254Y54665D01*
X-24471Y54619D01*
X-24690Y54578D01*
X-24909Y54543D01*
X-25130Y54513D01*
X-25350Y54489D01*
X-25572Y54470D01*
X-25794Y54456D01*
X-26016Y54448D01*
X-26238Y54445D01*
X-26460Y54448D01*
X-26682Y54456D01*
X-26904Y54470D01*
X-27126Y54489D01*
X-27346Y54513D01*
X-27567Y54543D01*
X-27786Y54578D01*
X-28005Y54619D01*
X-28222Y54665D01*
X-28438Y54716D01*
X-28653Y54773D01*
X-28867Y54835D01*
X-29078Y54902D01*
X-29289Y54974D01*
X-29497Y55052D01*
X-29703Y55134D01*
X-29907Y55222D01*
X-30110Y55314D01*
X-30309Y55412D01*
X-30506Y55514D01*
X-30701Y55621D01*
X-30893Y55733D01*
X-31082Y55850D01*
X-31269Y55971D01*
X-31452Y56097D01*
X-31632Y56227D01*
X-31809Y56362D01*
X-31982Y56500D01*
X-32152Y56643D01*
X-32319Y56791D01*
X-32482Y56942D01*
X-32641Y57097D01*
X-32796Y57256D01*
X-32947Y57419D01*
X-33095Y57586D01*
X-33238Y57756D01*
X-33376Y57929D01*
X-33511Y58106D01*
X-33641Y58286D01*
X-33767Y58469D01*
X-33888Y58656D01*
X-34005Y58845D01*
X-34117Y59037D01*
X-34224Y59232D01*
X-34326Y59429D01*
X-34424Y59628D01*
X-34516Y59831D01*
X-34604Y60035D01*
X-34686Y60241D01*
X-34764Y60449D01*
X-34836Y60660D01*
X-34903Y60871D01*
X-34965Y61085D01*
X-35022Y61300D01*
X-35073Y61516D01*
X-35119Y61733D01*
X-35160Y61952D01*
X-35195Y62171D01*
X-35225Y62392D01*
X-35249Y62612D01*
X-35268Y62834D01*
X-35282Y63056D01*
X-35290Y63278D01*
X-35293Y63500D01*
D15*
X-26238Y63500D03*
M02*
