M48
;GenerationSoftware,Autodesk,EAGLE,9.6.2*%
;CreationDate,2020-12-17T10:11:49Z*%
FMAT,2
ICI,OFF
METRIC,TZ,000.000
T2C0.300
T1C3.302
%
G90
M71
T1
X90424Y107188
X5080Y2540
X22860Y2540
X22860Y48260
X5080Y48260
X33528Y2540
X51308Y2540
X51308Y48260
X33528Y48260
X61976Y2540
X79756Y2540
X79756Y48260
X61976Y48260
X90424Y2540
X108204Y2540
X108204Y48260
X90424Y48260
X5080Y61468
X22860Y61468
X22860Y107188
X5080Y107188
X33528Y61468
X51308Y61468
X51308Y107188
X33528Y107188
X61976Y61468
X79756Y61468
X79756Y107188
X61976Y107188
X90424Y61468
X108204Y61468
X108204Y107188
T2
X13335Y35560
X15240Y34290
X17780Y34290
X20320Y34290
X20320Y36830
X16510Y10160
X17780Y25400
X17780Y6731
X7620Y6350
X15240Y31750
X16510Y33020
X17780Y30480
X13970Y29210
X5588Y27940
X2159Y30480
X5588Y33020
X2159Y35560
X8128Y4445
X19868Y5715
X2159Y38100
X19812Y12700
X19812Y15240
X38354Y1905
X34163Y10160
X50800Y33020
X54356Y33020
X50800Y17780
X54356Y17780
X50800Y38100
X54356Y38100
X54356Y35560
X50800Y40640
X43688Y38100
X46228Y36830
X48768Y41910
X47498Y40640
X44958Y40640
X41148Y38100
X39878Y40640
X48768Y44450
X48768Y46990
X48768Y49530
X36068Y49530
X36068Y46990
X36068Y44450
X36068Y41910
X37338Y40640
X43307Y2794
X41529Y2794
X40386Y7112
X44958Y7112
X38608Y7112
X44958Y12700
X47498Y16510
X41783Y35560
X43688Y34290
X46228Y34290
X48768Y34290
X48768Y36830
X44958Y10160
X46228Y25400
X46228Y6731
X36068Y6350
X43688Y31750
X44958Y33020
X46228Y30480
X42418Y29210
X34036Y27940
X30607Y30480
X34036Y33020
X30607Y35560
X36576Y4445
X48315Y5715
X30607Y38100
X48260Y12700
X48260Y15240
X66802Y1905
X62611Y10160
X79248Y33020
X82804Y33020
X79248Y17780
X82804Y17780
X79248Y38100
X82804Y38100
X82804Y35560
X79248Y40640
X72136Y38100
X74676Y36830
X77216Y41910
X75946Y40640
X73406Y40640
X69596Y38100
X68326Y40640
X77216Y44450
X77216Y46990
X77216Y49530
X64516Y49530
X64516Y46990
X64516Y44450
X64516Y41910
X65786Y40640
X71755Y2794
X69977Y2794
X68834Y7112
X73406Y7112
X67056Y7112
X73406Y12700
X75946Y16510
X70231Y35560
X72136Y34290
X74676Y34290
X77216Y34290
X77216Y36830
X73406Y10160
X74676Y25400
X74676Y6731
X64516Y6350
X72136Y31750
X73406Y33020
X74676Y30480
X70866Y29210
X62484Y27940
X59055Y30480
X62484Y33020
X59055Y35560
X65024Y4445
X76764Y5715
X59055Y38100
X76708Y12700
X76708Y15240
X95250Y1905
X91059Y10160
X107696Y33020
X111252Y33020
X107696Y17780
X111252Y17780
X107696Y38100
X111252Y38100
X111252Y35560
X107696Y40640
X100584Y38100
X103124Y36830
X105664Y41910
X104394Y40640
X101854Y40640
X98044Y38100
X96774Y40640
X105664Y44450
X105664Y46990
X105664Y49530
X92964Y49530
X92964Y46990
X92964Y44450
X92964Y41910
X94234Y40640
X100203Y2794
X98425Y2794
X97282Y7112
X101854Y7112
X95504Y7112
X101854Y12700
X104394Y16510
X98679Y35560
X100584Y34290
X103124Y34290
X105664Y34290
X105664Y36830
X101854Y10160
X103124Y25400
X103124Y6731
X92964Y6350
X100584Y31750
X101854Y33020
X103124Y30480
X99314Y29210
X90932Y27940
X87503Y30480
X90932Y33020
X87503Y35560
X93472Y4445
X105211Y5715
X87503Y38100
X105156Y12700
X105156Y15240
X9906Y60833
X5715Y69088
X22352Y91948
X25908Y91948
X22352Y76708
X25908Y76708
X22352Y97028
X25908Y97028
X25908Y94488
X22352Y99568
X15240Y97028
X17780Y95758
X20320Y100838
X19050Y99568
X16510Y99568
X12700Y97028
X11430Y99568
X20320Y103378
X20320Y105918
X20320Y108458
X7620Y108458
X7620Y105918
X7620Y103378
X7620Y100838
X8890Y99568
X14859Y61722
X13081Y61722
X11938Y66040
X16510Y66040
X10160Y66040
X16510Y71628
X19050Y75438
X13335Y94488
X15240Y93218
X17780Y93218
X20320Y93218
X20320Y95758
X16510Y69088
X17780Y84328
X17780Y65659
X7620Y65278
X15240Y90678
X16510Y91948
X17780Y89408
X13970Y88138
X5588Y86868
X2159Y89408
X5588Y91948
X2159Y94488
X8128Y63373
X19868Y64643
X2159Y97028
X19812Y71628
X19812Y74168
X38354Y60833
X34163Y69088
X50800Y91948
X54356Y91948
X50800Y76708
X54356Y76708
X50800Y97028
X54356Y97028
X54356Y94488
X50800Y99568
X43688Y97028
X46228Y95758
X48768Y100838
X47498Y99568
X44958Y99568
X41148Y97028
X39878Y99568
X48768Y103378
X48768Y105918
X48768Y108458
X36068Y108458
X36068Y105918
X36068Y103378
X36068Y100838
X37338Y99568
X43307Y61722
X41529Y61722
X40386Y66040
X44958Y66040
X38608Y66040
X44958Y71628
X47498Y75438
X41783Y94488
X43688Y93218
X46228Y93218
X48768Y93218
X48768Y95758
X44958Y69088
X46228Y84328
X46228Y65659
X36068Y65278
X43688Y90678
X44958Y91948
X46228Y89408
X42418Y88138
X34036Y86868
X30607Y89408
X34036Y91948
X30607Y94488
X36576Y63373
X48315Y64643
X30607Y97028
X48260Y71628
X48260Y74168
X66802Y60833
X62611Y69088
X79248Y91948
X82804Y91948
X79248Y76708
X82804Y76708
X79248Y97028
X82804Y97028
X82804Y94488
X79248Y99568
X72136Y97028
X74676Y95758
X77216Y100838
X75946Y99568
X73406Y99568
X69596Y97028
X68326Y99568
X77216Y103378
X77216Y105918
X77216Y108458
X64516Y108458
X64516Y105918
X64516Y103378
X9906Y1905
X65786Y99568
X71755Y61722
X69977Y61722
X68834Y66040
X73406Y66040
X67056Y66040
X73406Y71628
X75946Y75438
X70231Y94488
X72136Y93218
X74676Y93218
X77216Y93218
X77216Y95758
X73406Y69088
X74676Y84328
X74676Y65659
X64516Y65278
X72136Y90678
X73406Y91948
X74676Y89408
X70866Y88138
X62484Y86868
X59055Y89408
X62484Y91948
X59055Y94488
X65024Y63373
X76764Y64643
X59055Y97028
X76708Y71628
X76708Y74168
X95250Y60833
X91059Y69088
X107696Y91948
X111252Y91948
X107696Y76708
X111252Y76708
X107696Y97028
X111252Y97028
X111252Y94488
X107696Y99568
X100584Y97028
X103124Y95758
X105664Y100838
X104394Y99568
X101854Y99568
X98044Y97028
X96774Y99568
X105664Y103378
X105664Y105918
X105664Y108458
X92964Y108458
X92964Y105918
X92964Y103378
X92964Y100838
X94234Y99568
X100203Y61722
X98425Y61722
X64516Y100838
X101854Y66040
X95504Y66040
X101854Y71628
X104394Y75438
X98679Y94488
X100584Y93218
X103124Y93218
X105664Y93218
X105664Y95758
X101854Y69088
X103124Y84328
X103124Y65659
X92964Y65278
X100584Y90678
X101854Y91948
X103124Y89408
X99314Y88138
X90932Y86868
X87503Y89408
X90932Y91948
X87503Y94488
X93472Y63373
X105211Y64643
X87503Y97028
X105156Y71628
X105156Y74168
X5715Y10160
X22352Y33020
X25908Y33020
X22352Y17780
X25908Y17780
X22352Y38100
X25908Y38100
X25908Y35560
X22352Y40640
X15240Y38100
X17780Y36830
X20320Y41910
X19050Y40640
X16510Y40640
X12700Y38100
X11430Y40640
X20320Y44450
X20320Y46990
X20320Y49530
X7620Y49530
X7620Y46990
X7620Y44450
X7620Y41910
X8890Y40640
X14859Y2794
X13081Y2794
X11938Y7112
X16510Y7112
X10160Y7112
X16510Y12700
X19050Y16510
X97282Y66040
M30