G04 EAGLE Gerber RS-274X export*
G75*
%MOMM*%
%FSLAX34Y34*%
%LPD*%
%INSolderpaste Top*%
%IPPOS*%
%AMOC8*
5,1,8,0,0,1.08239X$1,22.5*%
G01*
%ADD10R,0.600000X0.600000*%
%ADD11R,1.200000X0.600000*%
%ADD12C,0.300000*%
%ADD13R,1.778000X1.778000*%
%ADD14R,1.100000X2.400000*%
%ADD15R,1.250000X7.000000*%


D10*
X198675Y66675D03*
X188675Y66675D03*
X188595Y29765D03*
X188595Y19765D03*
X198755Y29765D03*
X198755Y19765D03*
X188675Y45085D03*
X198675Y45085D03*
X91360Y32385D03*
X81360Y32385D03*
D11*
X111700Y57150D03*
X111700Y44450D03*
X111700Y31750D03*
X111700Y19050D03*
X167700Y19050D03*
X167700Y31750D03*
X167700Y44450D03*
X167700Y57150D03*
D10*
X52150Y63500D03*
X62150Y63500D03*
D12*
X20130Y67000D02*
X20130Y60000D01*
X13130Y60000D01*
X13130Y67000D01*
X20130Y67000D01*
X20130Y62850D02*
X13130Y62850D01*
X13130Y65700D02*
X20130Y65700D01*
X37670Y67000D02*
X37670Y60000D01*
X30670Y60000D01*
X30670Y67000D01*
X37670Y67000D01*
X37670Y62850D02*
X30670Y62850D01*
X30670Y65700D02*
X37670Y65700D01*
D13*
X38100Y381000D03*
X38100Y355600D03*
X38100Y330200D03*
X38100Y304800D03*
X38100Y279400D03*
X38100Y254000D03*
X38100Y228600D03*
X38100Y203200D03*
X38100Y177800D03*
X38100Y152400D03*
X38100Y127000D03*
X38100Y101600D03*
X241300Y101600D03*
X241300Y127000D03*
X241300Y152400D03*
X241300Y177800D03*
X241300Y203200D03*
X241300Y228600D03*
X241300Y254000D03*
X241300Y279400D03*
X241300Y304800D03*
X241300Y330200D03*
X241300Y355600D03*
X241300Y381000D03*
D14*
X139700Y426100D03*
D15*
X96650Y473000D03*
X182750Y473000D03*
D10*
X483155Y66675D03*
X473155Y66675D03*
X473075Y29765D03*
X473075Y19765D03*
X483235Y29765D03*
X483235Y19765D03*
X473155Y45085D03*
X483155Y45085D03*
X375840Y32385D03*
X365840Y32385D03*
D11*
X396180Y57150D03*
X396180Y44450D03*
X396180Y31750D03*
X396180Y19050D03*
X452180Y19050D03*
X452180Y31750D03*
X452180Y44450D03*
X452180Y57150D03*
D10*
X336630Y63500D03*
X346630Y63500D03*
D12*
X304610Y67000D02*
X304610Y60000D01*
X297610Y60000D01*
X297610Y67000D01*
X304610Y67000D01*
X304610Y62850D02*
X297610Y62850D01*
X297610Y65700D02*
X304610Y65700D01*
X322150Y67000D02*
X322150Y60000D01*
X315150Y60000D01*
X315150Y67000D01*
X322150Y67000D01*
X322150Y62850D02*
X315150Y62850D01*
X315150Y65700D02*
X322150Y65700D01*
D13*
X322580Y381000D03*
X322580Y355600D03*
X322580Y330200D03*
X322580Y304800D03*
X322580Y279400D03*
X322580Y254000D03*
X322580Y228600D03*
X322580Y203200D03*
X322580Y177800D03*
X322580Y152400D03*
X322580Y127000D03*
X322580Y101600D03*
X525780Y101600D03*
X525780Y127000D03*
X525780Y152400D03*
X525780Y177800D03*
X525780Y203200D03*
X525780Y228600D03*
X525780Y254000D03*
X525780Y279400D03*
X525780Y304800D03*
X525780Y330200D03*
X525780Y355600D03*
X525780Y381000D03*
D14*
X424180Y426100D03*
D15*
X381130Y473000D03*
X467230Y473000D03*
D10*
X767635Y66675D03*
X757635Y66675D03*
X757555Y29765D03*
X757555Y19765D03*
X767715Y29765D03*
X767715Y19765D03*
X757635Y45085D03*
X767635Y45085D03*
X660320Y32385D03*
X650320Y32385D03*
D11*
X680660Y57150D03*
X680660Y44450D03*
X680660Y31750D03*
X680660Y19050D03*
X736660Y19050D03*
X736660Y31750D03*
X736660Y44450D03*
X736660Y57150D03*
D10*
X621110Y63500D03*
X631110Y63500D03*
D12*
X589090Y67000D02*
X589090Y60000D01*
X582090Y60000D01*
X582090Y67000D01*
X589090Y67000D01*
X589090Y62850D02*
X582090Y62850D01*
X582090Y65700D02*
X589090Y65700D01*
X606630Y67000D02*
X606630Y60000D01*
X599630Y60000D01*
X599630Y67000D01*
X606630Y67000D01*
X606630Y62850D02*
X599630Y62850D01*
X599630Y65700D02*
X606630Y65700D01*
D13*
X607060Y381000D03*
X607060Y355600D03*
X607060Y330200D03*
X607060Y304800D03*
X607060Y279400D03*
X607060Y254000D03*
X607060Y228600D03*
X607060Y203200D03*
X607060Y177800D03*
X607060Y152400D03*
X607060Y127000D03*
X607060Y101600D03*
X810260Y101600D03*
X810260Y127000D03*
X810260Y152400D03*
X810260Y177800D03*
X810260Y203200D03*
X810260Y228600D03*
X810260Y254000D03*
X810260Y279400D03*
X810260Y304800D03*
X810260Y330200D03*
X810260Y355600D03*
X810260Y381000D03*
D14*
X708660Y426100D03*
D15*
X665610Y473000D03*
X751710Y473000D03*
D10*
X1052115Y66675D03*
X1042115Y66675D03*
X1042035Y29765D03*
X1042035Y19765D03*
X1052195Y29765D03*
X1052195Y19765D03*
X1042115Y45085D03*
X1052115Y45085D03*
X944800Y32385D03*
X934800Y32385D03*
D11*
X965140Y57150D03*
X965140Y44450D03*
X965140Y31750D03*
X965140Y19050D03*
X1021140Y19050D03*
X1021140Y31750D03*
X1021140Y44450D03*
X1021140Y57150D03*
D10*
X905590Y63500D03*
X915590Y63500D03*
D12*
X873570Y67000D02*
X873570Y60000D01*
X866570Y60000D01*
X866570Y67000D01*
X873570Y67000D01*
X873570Y62850D02*
X866570Y62850D01*
X866570Y65700D02*
X873570Y65700D01*
X891110Y67000D02*
X891110Y60000D01*
X884110Y60000D01*
X884110Y67000D01*
X891110Y67000D01*
X891110Y62850D02*
X884110Y62850D01*
X884110Y65700D02*
X891110Y65700D01*
D13*
X891540Y381000D03*
X891540Y355600D03*
X891540Y330200D03*
X891540Y304800D03*
X891540Y279400D03*
X891540Y254000D03*
X891540Y228600D03*
X891540Y203200D03*
X891540Y177800D03*
X891540Y152400D03*
X891540Y127000D03*
X891540Y101600D03*
X1094740Y101600D03*
X1094740Y127000D03*
X1094740Y152400D03*
X1094740Y177800D03*
X1094740Y203200D03*
X1094740Y228600D03*
X1094740Y254000D03*
X1094740Y279400D03*
X1094740Y304800D03*
X1094740Y330200D03*
X1094740Y355600D03*
X1094740Y381000D03*
D14*
X993140Y426100D03*
D15*
X950090Y473000D03*
X1036190Y473000D03*
D10*
X198675Y655955D03*
X188675Y655955D03*
X188595Y619045D03*
X188595Y609045D03*
X198755Y619045D03*
X198755Y609045D03*
X188675Y634365D03*
X198675Y634365D03*
X91360Y621665D03*
X81360Y621665D03*
D11*
X111700Y646430D03*
X111700Y633730D03*
X111700Y621030D03*
X111700Y608330D03*
X167700Y608330D03*
X167700Y621030D03*
X167700Y633730D03*
X167700Y646430D03*
D10*
X52150Y652780D03*
X62150Y652780D03*
D12*
X20130Y656280D02*
X20130Y649280D01*
X13130Y649280D01*
X13130Y656280D01*
X20130Y656280D01*
X20130Y652130D02*
X13130Y652130D01*
X13130Y654980D02*
X20130Y654980D01*
X37670Y656280D02*
X37670Y649280D01*
X30670Y649280D01*
X30670Y656280D01*
X37670Y656280D01*
X37670Y652130D02*
X30670Y652130D01*
X30670Y654980D02*
X37670Y654980D01*
D13*
X38100Y970280D03*
X38100Y944880D03*
X38100Y919480D03*
X38100Y894080D03*
X38100Y868680D03*
X38100Y843280D03*
X38100Y817880D03*
X38100Y792480D03*
X38100Y767080D03*
X38100Y741680D03*
X38100Y716280D03*
X38100Y690880D03*
X241300Y690880D03*
X241300Y716280D03*
X241300Y741680D03*
X241300Y767080D03*
X241300Y792480D03*
X241300Y817880D03*
X241300Y843280D03*
X241300Y868680D03*
X241300Y894080D03*
X241300Y919480D03*
X241300Y944880D03*
X241300Y970280D03*
D14*
X139700Y1015380D03*
D15*
X96650Y1062280D03*
X182750Y1062280D03*
D10*
X483155Y655955D03*
X473155Y655955D03*
X473075Y619045D03*
X473075Y609045D03*
X483235Y619045D03*
X483235Y609045D03*
X473155Y634365D03*
X483155Y634365D03*
X375840Y621665D03*
X365840Y621665D03*
D11*
X396180Y646430D03*
X396180Y633730D03*
X396180Y621030D03*
X396180Y608330D03*
X452180Y608330D03*
X452180Y621030D03*
X452180Y633730D03*
X452180Y646430D03*
D10*
X336630Y652780D03*
X346630Y652780D03*
D12*
X304610Y656280D02*
X304610Y649280D01*
X297610Y649280D01*
X297610Y656280D01*
X304610Y656280D01*
X304610Y652130D02*
X297610Y652130D01*
X297610Y654980D02*
X304610Y654980D01*
X322150Y656280D02*
X322150Y649280D01*
X315150Y649280D01*
X315150Y656280D01*
X322150Y656280D01*
X322150Y652130D02*
X315150Y652130D01*
X315150Y654980D02*
X322150Y654980D01*
D13*
X322580Y970280D03*
X322580Y944880D03*
X322580Y919480D03*
X322580Y894080D03*
X322580Y868680D03*
X322580Y843280D03*
X322580Y817880D03*
X322580Y792480D03*
X322580Y767080D03*
X322580Y741680D03*
X322580Y716280D03*
X322580Y690880D03*
X525780Y690880D03*
X525780Y716280D03*
X525780Y741680D03*
X525780Y767080D03*
X525780Y792480D03*
X525780Y817880D03*
X525780Y843280D03*
X525780Y868680D03*
X525780Y894080D03*
X525780Y919480D03*
X525780Y944880D03*
X525780Y970280D03*
D14*
X424180Y1015380D03*
D15*
X381130Y1062280D03*
X467230Y1062280D03*
D10*
X767635Y655955D03*
X757635Y655955D03*
X757555Y619045D03*
X757555Y609045D03*
X767715Y619045D03*
X767715Y609045D03*
X757635Y634365D03*
X767635Y634365D03*
X660320Y621665D03*
X650320Y621665D03*
D11*
X680660Y646430D03*
X680660Y633730D03*
X680660Y621030D03*
X680660Y608330D03*
X736660Y608330D03*
X736660Y621030D03*
X736660Y633730D03*
X736660Y646430D03*
D10*
X621110Y652780D03*
X631110Y652780D03*
D12*
X589090Y656280D02*
X589090Y649280D01*
X582090Y649280D01*
X582090Y656280D01*
X589090Y656280D01*
X589090Y652130D02*
X582090Y652130D01*
X582090Y654980D02*
X589090Y654980D01*
X606630Y656280D02*
X606630Y649280D01*
X599630Y649280D01*
X599630Y656280D01*
X606630Y656280D01*
X606630Y652130D02*
X599630Y652130D01*
X599630Y654980D02*
X606630Y654980D01*
D13*
X607060Y970280D03*
X607060Y944880D03*
X607060Y919480D03*
X607060Y894080D03*
X607060Y868680D03*
X607060Y843280D03*
X607060Y817880D03*
X607060Y792480D03*
X607060Y767080D03*
X607060Y741680D03*
X607060Y716280D03*
X607060Y690880D03*
X810260Y690880D03*
X810260Y716280D03*
X810260Y741680D03*
X810260Y767080D03*
X810260Y792480D03*
X810260Y817880D03*
X810260Y843280D03*
X810260Y868680D03*
X810260Y894080D03*
X810260Y919480D03*
X810260Y944880D03*
X810260Y970280D03*
D14*
X708660Y1015380D03*
D15*
X665610Y1062280D03*
X751710Y1062280D03*
D10*
X1052115Y655955D03*
X1042115Y655955D03*
X1042035Y619045D03*
X1042035Y609045D03*
X1052195Y619045D03*
X1052195Y609045D03*
X1042115Y634365D03*
X1052115Y634365D03*
X944800Y621665D03*
X934800Y621665D03*
D11*
X965140Y646430D03*
X965140Y633730D03*
X965140Y621030D03*
X965140Y608330D03*
X1021140Y608330D03*
X1021140Y621030D03*
X1021140Y633730D03*
X1021140Y646430D03*
D10*
X905590Y652780D03*
X915590Y652780D03*
D12*
X873570Y656280D02*
X873570Y649280D01*
X866570Y649280D01*
X866570Y656280D01*
X873570Y656280D01*
X873570Y652130D02*
X866570Y652130D01*
X866570Y654980D02*
X873570Y654980D01*
X891110Y656280D02*
X891110Y649280D01*
X884110Y649280D01*
X884110Y656280D01*
X891110Y656280D01*
X891110Y652130D02*
X884110Y652130D01*
X884110Y654980D02*
X891110Y654980D01*
D13*
X891540Y970280D03*
X891540Y944880D03*
X891540Y919480D03*
X891540Y894080D03*
X891540Y868680D03*
X891540Y843280D03*
X891540Y817880D03*
X891540Y792480D03*
X891540Y767080D03*
X891540Y741680D03*
X891540Y716280D03*
X891540Y690880D03*
X1094740Y690880D03*
X1094740Y716280D03*
X1094740Y741680D03*
X1094740Y767080D03*
X1094740Y792480D03*
X1094740Y817880D03*
X1094740Y843280D03*
X1094740Y868680D03*
X1094740Y894080D03*
X1094740Y919480D03*
X1094740Y944880D03*
X1094740Y970280D03*
D14*
X993140Y1015380D03*
D15*
X950090Y1062280D03*
X1036190Y1062280D03*
M02*
